SplineFontDB: 3.2
FontName: poj-Garamond08-Italic
FullName: poj-Garamond 08 Italic
FamilyName: poj-Garamond 08
Weight: Regular
Copyright: POJ support by Edward Greve <edward.greve@gmail.com>\nCreated by Georg Duffner with FontForge\nBased on Guillaume Vauthier's French One Petit Texte Italic, v.1.00, 2012.
Version: 1.000
ItalicAngle: -14
UnderlinePosition: -66
UnderlineWidth: 70
Ascent: 726
Descent: 274
InvalidEm: 0
sfntRevision: 0x00010000
LayerCount: 2
Layer: 0 0 "Back" 1
Layer: 1 0 "Zeichenebene" 0
XUID: [1021 660 827469224 19745]
UseXUID: 1
FSType: 0
OS2Version: 4
OS2_WeightWidthSlopeOnly: 0
OS2_UseTypoMetrics: 1
CreationTime: 1339342330
ModificationTime: 1598260216
PfmFamily: 17
TTFWeight: 400
TTFWidth: 5
LineGap: 0
VLineGap: 0
Panose: 2 2 5 2 6 2 6 9 4 4
OS2TypoAscent: 726
OS2TypoAOffset: 0
OS2TypoDescent: -274
OS2TypoDOffset: 0
OS2TypoLinegap: 0
OS2WinAscent: 890
OS2WinAOffset: 0
OS2WinDescent: 274
OS2WinDOffset: 0
HheadAscent: 726
HheadAOffset: 0
HheadDescent: -274
HheadDOffset: 0
OS2SubXSize: 700
OS2SubYSize: 650
OS2SubXOff: 0
OS2SubYOff: 138
OS2SupXSize: 700
OS2SupYSize: 650
OS2SupXOff: 0
OS2SupYOff: 477
OS2StrikeYSize: 50
OS2StrikeYPos: 259
OS2FamilyClass: 258
OS2Vendor: 'PfEd'
OS2CodePages: 20000111.41000000
OS2UnicodeRanges: 800000a7.5000004a.00000000.00000000
Lookup: 4 0 0 "'ccmp' Glyph Composition POJ" { "'ccmp' Glyph Composition POJ subtable"  } ['ccmp' ('DFLT' <'dflt' > 'latn' <'dflt' > ) ]
Lookup: 4 0 1 "'liga' Standard Ligatures lookup POJ" { "'liga' Standard Ligatures lookup POJ subtable"  } ['liga' ('DFLT' <'dflt' > 'latn' <'dflt' > ) ]
Lookup: 4 0 0 "LATliga" { "LATliga subtable"  } []
Lookup: 1 0 0 "'case' Case-Sensitive Forms lookup 6" { "'case' Case-Sensitive Forms lookup 6 subtable"  } ['case' ('latn' <'dflt' 'DEU ' 'TRK ' 'AZE ' 'CRT ' 'CAT ' 'LAT ' > 'grek' <'dflt' > 'cyrl' <'dflt' 'SRB ' 'MKD ' 'BGR ' > 'DFLT' <'dflt' > ) ]

StartChar: .notdef
Encoding: 1167 -1 0
Width: 416
Flags: MW
LayerCount: 2
Fore
SplineSet
90 -31 m 1
 326 -31 l 1
 326 424 l 1
 90 424 l 1
 90 -31 l 1
368 -73 m 1
 48 -73 l 1
 48 466 l 1
 368 466 l 1
 368 -73 l 1
EndSplineSet
Validated: 1
EndChar

StartChar: exclam
Encoding: 1 33 3
Width: 203
Flags: MW
LayerCount: 2
Fore
SplineSet
95 96 m 0
 124.52 96 150 73.5195 150 44 c 0
 150 11.7236 122.276 -13 90 -13 c 0
 61.5303 -13 35 6.53027 35 35 c 0
 35 68.3691 61.6309 96 95 96 c 0
169 628 m 0
 194.35 628 208 600 208 576 c 0
 208 516 134 225 114 225 c 0
 97 225 96.0049 261.088 94 284 c 0
 91.124 316.874 92 453 92 487 c 0
 92 549 110 628 169 628 c 0
EndSplineSet
Validated: 33
Substitution2: "sups subtable" exclam.sups
Substitution2: "sinf subtable" exclam.sinf
Substitution2: "ordn subtable" exclam.ordn
Substitution2: "subs subtable" exclam.subs
EndChar

StartChar: quotedbl
Encoding: 2 34 4
Width: 309
Flags: MW
LayerCount: 2
Fore
SplineSet
208 620 m 0
 212.788 633.155 219 648 227 655 c 0
 243 668 263 676 279 676 c 0
 289 676 293 661 293 644 c 0
 293 625 227.293 502.772 207 469 c 0
 200.305 457.856 193 444 188 444 c 0
 183 444 180.576 458.01 181 467 c 0
 181.707 481.983 201.714 602.729 208 620 c 0
76 620 m 0
 80.7883 633.156 87 648 95 655 c 0
 111 668 131 676 147 676 c 0
 157 676 161 661 161 644 c 0
 161 625 95.2925 502.772 75 469 c 0
 68.3045 457.857 61 444 56 444 c 0
 51 444 48.576 458.01 49 467 c 0
 49.7066 481.983 69.7137 602.728 76 620 c 0
EndSplineSet
Validated: 1
Substitution2: "sups subtable" quotedbl.sups
Substitution2: "sinf subtable" quotedbl.sinf
Substitution2: "ordn subtable" quotedbl.ordn
Substitution2: "subs subtable" quotedbl.subs
EndChar

StartChar: numbersign
Encoding: 3 35 5
Width: 680
Flags: MW
LayerCount: 2
Fore
SplineSet
290 529 m 2
 301 558 321 592 348 592 c 0
 380 592 362 553 338 490 c 2
 312 420 l 1
 438 420 l 1
 479 529 l 2
 490 558 509 592 528 592 c 0
 559 592 551 553 527 490 c 2
 501 420 l 1
 577 420 l 2
 600 420 646 410 646 386 c 0
 646 372 618 355 562 355 c 2
 476 355 l 1
 419 203 l 1
 508 203 l 2
 531 203 577 193 577 169 c 0
 577 155 549 138 493 138 c 2
 394 138 l 1
 353 28 l 2
 342 -1 324 -34 293 -34 c 0
 275 -34 278 -4 305 67 c 2
 332 138 l 1
 205 138 l 1
 164 28 l 2
 153 -1 135 -34 113 -34 c 0
 95 -34 89 -4 116 67 c 2
 143 138 l 1
 90 138 l 2
 61 138 20 149 20 174 c 0
 20 188 47 203 104 203 c 2
 167 203 l 1
 224 355 l 1
 159 355 l 2
 130 355 89 366 89 391 c 0
 89 405 116 420 173 420 c 2
 249 420 l 1
 290 529 l 2
287 355 m 1
 230 203 l 1
 356 203 l 1
 413 355 l 1
 287 355 l 1
EndSplineSet
Validated: 33
Substitution2: "sups subtable" numbersign.sups
Substitution2: "sinf subtable" numbersign.sinf
Substitution2: "ordn subtable" numbersign.ordn
Substitution2: "subs subtable" numbersign.subs
EndChar

StartChar: dollar
Encoding: 4 36 6
Width: 409
Flags: MW
LayerCount: 2
Fore
SplineSet
220 601 m 1
 226 673 l 2
 228 693 246 709 263 709 c 0
 272 709 276 702 273 673 c 2
 266 597 l 1
 291 592 317 583 333 574 c 0
 366 555 367 524 367 489 c 0
 367 476 362 462 347 462 c 0
 335 462 328 475 307 508 c 0
 295 527 278 537 261 541 c 1
 244 341 l 1
 338 262 l 2
 368 237 386 198 386 160 c 0
 386 68 305 2 213 -9 c 1
 206 -89 l 2
 205 -106 187 -119 171 -119 c 0
 161 -119 158 -111 159 -91 c 2
 166 -10 l 1
 136 -7 100 2 80 11 c 0
 43 28 34 39 34 71 c 0
 34 103 41 138 61 138 c 0
 77 138 84 123 93 93 c 0
 102 64 129 39 170 31 c 1
 189 252 l 1
 98 327 l 2
 69 350 54 379 54 417 c 0
 54 512 128 594 220 601 c 1
233 216 m 1
 216 29 l 1
 261 38 288 86 288 138 c 0
 288 166 270 186 248 204 c 2
 233 216 l 1
200 378 m 1
 215 543 l 1
 173 536 146 497 146 453 c 0
 146 420 168 406 197 381 c 1
 200 378 l 1
EndSplineSet
Validated: 33
Substitution2: "sups subtable" dollar.sups
Substitution2: "sinf subtable" dollar.sinf
Substitution2: "ordn subtable" dollar.ordn
Substitution2: "subs subtable" dollar.subs
EndChar

StartChar: percent
Encoding: 5 37 7
Width: 763
Flags: MW
LayerCount: 2
Fore
SplineSet
606 570 m 2
 184 10 l 2
 172 -6 156 -18 139 -18 c 0
 126 -18 123 14 136 31 c 2
 530 551 l 2
 550 577 571 604 596 604 c 0
 613 604 617 584 606 570 c 2
586 272 m 0
 659 272 731 227 731 154 c 0
 731 71 669 -1 586 -1 c 0
 508 -1 449 65 449 143 c 0
 449 216 513 272 586 272 c 0
506 135 m 0
 506 88 544 51 591 51 c 0
 640 51 676 95 676 144 c 0
 676 190 632 219 586 219 c 0
 541 219 506 180 506 135 c 0
178 620 m 0
 251 620 323 575 323 502 c 0
 323 419 261 347 178 347 c 0
 100 347 41 413 41 491 c 0
 41 564 105 620 178 620 c 0
98 483 m 0
 98 436 136 399 183 399 c 0
 232 399 268 443 268 492 c 0
 268 538 224 567 178 567 c 0
 133 567 98 528 98 483 c 0
EndSplineSet
Validated: 33
Substitution2: "sups subtable" percent.sups
Substitution2: "sinf subtable" percent.sinf
Substitution2: "ordn subtable" percent.ordn
Substitution2: "subs subtable" percent.subs
EndChar

StartChar: ampersand
Encoding: 6 38 8
Width: 830
Flags: MW
LayerCount: 2
Fore
SplineSet
165 116 m 2
 222 258 l 2
 238.784 299.753 230 362 197 362 c 0
 149 362 121 288 121 236 c 0
 121 200 129 157 143 125 c 0
 151 108 161 105 165 116 c 2
214 39 m 0
 240 20 272 8 312 8 c 0
 466 8 580 143 580 297 c 0
 580 333 575 369 562 380 c 0
 549 391 530 399 508 399 c 0
 487 399 457 372 457 347 c 0
 457 325 468 313 468 289 c 0
 468 267 445 250 421 250 c 0
 390 250 377 282 377 312 c 0
 377 364 424 409 474 447 c 0
 502 468 525 482 560 482 c 0
 619 482 682 420 751 420 c 0
 769 420 778 437 778 455 c 0
 778 468 784 490 799 490 c 0
 822 490 840 451 840 426 c 0
 840 374 796 327 743 327 c 0
 711 327 648 355 636 355 c 0
 621 355 634 321 634 279 c 0
 634 84 468 -60 275 -60 c 0
 146 -60 48 81 48 182 c 0
 48 305 152 434 232 434 c 0
 277 434 283.429 404.073 289 418 c 2
 357 588 l 2
 364.427 606.57 333 640 333 660 c 0
 333 684 368 703 398 703 c 0
 424 703 433 678 433 654 c 0
 433 636 416 603 387 537 c 2
 196 91 l 2
 188 74 188 58 214 39 c 0
EndSplineSet
Validated: 33
Substitution2: "sups subtable" ampersand.sups
Substitution2: "sinf subtable" ampersand.sinf
Substitution2: "ordn subtable" ampersand.ordn
Substitution2: "subs subtable" ampersand.subs
Substitution2: "ampersand_alt subtable" ampersand.01
EndChar

StartChar: quotesingle
Encoding: 7 39 9
Width: 177
Flags: MW
LayerCount: 2
Fore
SplineSet
76 620 m 0
 80.7883 633.156 87 648 95 655 c 0
 111 668 131 676 147 676 c 0
 157 676 161 661 161 644 c 0
 161 625 95.2925 502.772 75 469 c 0
 68.3045 457.857 61 444 56 444 c 0
 51 444 48.576 458.01 49 467 c 0
 49.7066 481.983 69.7137 602.728 76 620 c 0
EndSplineSet
Validated: 1
Substitution2: "sups subtable" quotesingle.sups
Substitution2: "sinf subtable" quotesingle.sinf
Substitution2: "ordn subtable" quotesingle.ordn
Substitution2: "subs subtable" quotesingle.subs
EndChar

StartChar: parenleft
Encoding: 8 40 10
Width: 341
Flags: MW
LayerCount: 2
Fore
SplineSet
415 715 m 0
 431 715 441 704 441 690 c 0
 441 677 418.386 656.935 375 628 c 0
 261.022 551.986 118 361 118 134 c 0
 118 44 143.394 -52.071 183 -134 c 0
 186.482 -141.203 187 -149 187 -159 c 0
 187 -167 180 -175 168 -175 c 0
 144 -175 111.962 -116.625 76 1 c 0
 57.5806 61.2472 50 116 50 176 c 0
 50 372 216.994 620.881 369 697 c 0
 385.488 705.257 400 715 415 715 c 0
EndSplineSet
Validated: 1
Substitution2: "sups subtable" parenleft.sups
Substitution2: "sinf subtable" parenleft.sinf
Substitution2: "ordn subtable" parenleft.ordn
Substitution2: "subs subtable" parenleft.subs
EndChar

StartChar: parenright
Encoding: 9 41 11
Width: 341
Flags: MW
LayerCount: 2
Fore
SplineSet
-72 -175 m 0
 -91 -175 -101 -165.96 -101 -150 c 0
 -101 -133 -69.14 -115.48 -34 -89 c 0
 84.5894 0.363507 223 181 223 405 c 0
 223 495 199.772 584.421 158 674 c 0
 155.887 678.532 154 683 154 688 c 0
 153.024 702.617 153 715 173 715 c 0
 197 715 236.587 640.083 265 539 c 0
 284.213 470.649 291 424.309 291 363 c 0
 291 156.064 119.382 -79.6358 -28 -158 c 0
 -44.2816 -166.657 -57 -175 -72 -175 c 0
EndSplineSet
Validated: 33
Substitution2: "sups subtable" parenright.sups
Substitution2: "sinf subtable" parenright.sinf
Substitution2: "ordn subtable" parenright.ordn
Substitution2: "subs subtable" parenright.subs
EndChar

StartChar: asterisk
Encoding: 10 42 12
Width: 395
Flags: MW
LayerCount: 2
Fore
SplineSet
235 602 m 0
 235 588 232 569 225 536 c 0
 223 523 222 512 222 510 c 0
 222 503 233 501 246 501 c 0
 266 501 301 500 328 499 c 0
 357 498 372 490 372 478 c 0
 372 459 337 452 281 447 c 0
 238 443 228 435 234 419 c 0
 245 392 264 349 264 318 c 0
 264 307 258 291 246 291 c 0
 218 291 199 353 174 396 c 0
 168 406 167 416 157 405 c 0
 153 400 139 390 120 370 c 0
 98 347 81 333 61 333 c 0
 46 333 37 341 37 356 c 0
 37 363 50 381 76 404 c 0
 105 430 114 449 114 456 c 0
 114 463 99 476 85 484 c 0
 56 501 24 521 24 545 c 0
 24 555 30 560 44 560 c 0
 65 560 79 552 110 537 c 0
 123 530 146 519 151 519 c 0
 158 519 161 536 171 569 c 0
 184 612 200 633 213 633 c 0
 230 633 235 609 235 602 c 0
EndSplineSet
Validated: 33
Substitution2: "sups subtable" asterisk.sups
Substitution2: "sinf subtable" asterisk.sinf
Substitution2: "ordn subtable" asterisk.ordn
Substitution2: "subs subtable" asterisk.subs
EndChar

StartChar: plus
Encoding: 11 43 13
Width: 459
Flags: MW
LayerCount: 2
Fore
SplineSet
200 172 m 1
 95 172 l 2
 74 172 42 177 42 202 c 0
 42 220 63 238 95 238 c 2
 200 238 l 1
 200 343 l 2
 200 379 217 396 232 396 c 0
 247 396 265 386 265 354 c 2
 265 238 l 1
 380 238 l 2
 405 238 422 225 422 210 c 0
 422 195 409 173 379 173 c 2
 265 173 l 1
 265 56 l 2
 265 37 258 16 233 16 c 0
 208 16 200 32 200 54 c 2
 200 172 l 1
EndSplineSet
Validated: 1
Substitution2: "sups subtable" plus.sups
Substitution2: "sinf subtable" plus.sinf
Substitution2: "ordn subtable" plus.ordn
Substitution2: "subs subtable" plus.subs
EndChar

StartChar: comma
Encoding: 12 44 14
Width: 250
Flags: MW
LayerCount: 2
Fore
SplineSet
50 97 m 4
 50 121 78 137 113 137 c 4
 160.98 137 200 97.9844 200 50 c 4
 200 -53.4443 69 -133 8 -133 c 4
 -2 -133 -15 -131 -15 -121 c 4
 -15 -111 -8.52466 -108.891 10 -99 c 4
 61.1634 -71.6813 106 -44 106 12 c 4
 106 50 50 61 50 97 c 4
EndSplineSet
Validated: 1
Substitution2: "sups subtable" comma.sups
Substitution2: "sinf subtable" comma.sinf
Substitution2: "ordn subtable" comma.ordn
Substitution2: "subs subtable" comma.subs
EndChar

StartChar: period
Encoding: 14 46 15
Width: 229
Flags: MW
LayerCount: 2
Fore
SplineSet
114 106 m 0
 147.369 106 174 78.3691 174 45 c 0
 174 9.14941 144.851 -20 109 -20 c 0
 76.7051 -20 48 3.70508 48 36 c 0
 48 73.5215 76.4785 106 114 106 c 0
EndSplineSet
Validated: 1
Substitution2: "sups subtable" period.sups
Substitution2: "sinf subtable" period.sinf
Substitution2: "ordn subtable" period.ordn
Substitution2: "subs subtable" period.subs
EndChar

StartChar: slash
Encoding: 15 47 16
Width: 237
Flags: MW
LayerCount: 2
Fore
SplineSet
342 667 m 6
 43 -18 l 6
 35 -36 24 -46 7 -46 c 4
 -12 -46 -5 -17 4 3 c 6
 282 648 l 6
 299 687 305 701 330 701 c 4
 347 701 349 683 342 667 c 6
EndSplineSet
Validated: 33
Substitution2: "frac_slash subtable" fraction
Substitution2: "sups subtable" slash.sups
Substitution2: "sinf subtable" slash.sinf
Substitution2: "ordn subtable" slash.ordn
Substitution2: "subs subtable" slash.subs
EndChar

StartChar: zero
Encoding: 16 48 17
Width: 469
Flags: HMW
LayerCount: 2
Fore
SplineSet
280 430 m 0
 367.16015625 430 419 343 419 255 c 0
 419 127 311 -20 185 -20 c 0
 108 -20 49 45.3203125 49 122 c 0
 49 262 145 430 280 430 c 0
129 109 m 0
 129 71 154 36 192 36 c 0
 300 36 339 164 339 274 c 0
 339 320 321 372 275 372 c 0
 196 372 129 225 129 109 c 0
EndSplineSet
Substitution2: "'tnum' Tabular Numbers lookup 44 subtable" zero.taboldstyle
Substitution2: "'lnum' Lining Figures lookup 42 subtable" zero.lnum
Substitution2: "Single Substitution lookup 41 subtable" zero.ordn
Substitution2: "Single Substitution lookup 40 subtable" zero.subs
Substitution2: "sups subtable" zero.sups
Substitution2: "sinf subtable" zero.sinf
Substitution2: "ordn subtable" zero.ordn
Substitution2: "subs subtable" zero.subs
EndChar

StartChar: one
Encoding: 17 49 18
Width: 346
Flags: HMW
LayerCount: 2
Fore
SplineSet
194 129 m 2
 182.502929688 85.4931640625 190.447265625 53.208984375 213 45 c 0
 240.250976562 35.0810546875 255 30 255 15 c 0
 255 5 240 -2 224 -2 c 0
 212 -2 178 4 130 4 c 0
 83 4 63 -2 48 -2 c 0
 32 -2 15 5 15 15 c 0
 15 30 37.232421875 33.6728515625 60 44 c 0
 92.7841796875 58.8720703125 102.665039062 88.2919921875 113 129 c 2
 162 322 l 2
 173.073242188 365.616210938 166.985351562 381.387695312 115 396 c 0
 106.3359375 398.435546875 99 404 99 413 c 0
 99 425 119 431 134 431 c 0
 173 431 193 426 229 426 c 0
 264 426 274 431 308 431 c 0
 323 431 343 425 343 413 c 0
 343 404 332.6640625 398.435546875 324 396 c 0
 267.201171875 380.034179688 257.7734375 370.340820312 245 322 c 2
 194 129 l 2
EndSplineSet
Substitution2: "'tnum' Tabular Numbers lookup 44 subtable" one.taboldstyle
Substitution2: "'lnum' Lining Figures lookup 42 subtable" one.lnum
Substitution2: "Single Substitution lookup 41 subtable" one.ordn
Substitution2: "Single Substitution lookup 40 subtable" one.subs
Substitution2: "sups subtable" one.sups
Substitution2: "sinf subtable" one.sinf
Substitution2: "ordn subtable" one.ordn
Substitution2: "subs subtable" one.subs
EndChar

StartChar: two
Encoding: 18 50 19
Width: 431
Flags: HMW
LayerCount: 2
Fore
SplineSet
243 429 m 0
 305 429 360 387 360 332 c 0
 360 252 250.032226562 162.84375 146 90 c 0
 138.627929688 84.837890625 138 77 150 77 c 2
 264 77 l 2
 310 77 353 153 364 153 c 0
 374 153 374 144 374 139 c 0
 374 124 342.5 46.310546875 325 16 c 0
 315.5 -0.4541015625 316 -1 298 -1 c 2
 37 -1 l 2
 22 -1 15 8 15 19 c 0
 15 43 62.7255859375 71.55078125 130 128 c 0
 188.754882812 177.30078125 258 251 258 300 c 0
 258 331 239 355 207 355 c 0
 168 355 132 315 117 315 c 0
 103 315 93 324 93 338 c 0
 93 365 170 429 243 429 c 0
EndSplineSet
Substitution2: "'tnum' Tabular Numbers lookup 44 subtable" two.taboldstyle
Substitution2: "'lnum' Lining Figures lookup 42 subtable" two.lnum
Substitution2: "Single Substitution lookup 41 subtable" two.ordn
Substitution2: "Single Substitution lookup 40 subtable" two.subs
Substitution2: "sups subtable" two.sups
Substitution2: "sinf subtable" two.sinf
Substitution2: "ordn subtable" two.ordn
Substitution2: "subs subtable" two.subs
EndChar

StartChar: three
Encoding: 19 51 20
Width: 384
Flags: HMW
LayerCount: 2
Fore
SplineSet
208 430 m 0
 283 430 311 370 311 308 c 0
 311 242 231.728 185.883 208 173 c 0
 196.18 166.582 196.183728166 160.908089954 206 159 c 0
 253.118104805 149.841168222 282 105 282 54 c 0
 282 -103 69 -217 -17 -217 c 0
 -36 -217 -52 -198 -52 -179 c 0
 -52 -156 -31.999 -133.186 -10 -133 c 0
 2 -132.898 17 -143 35 -143 c 0
 89 -143 193 -56 193 38 c 0
 193 74 157 97 121 97 c 0
 93 97 71 75 64 75 c 0
 52 75 41 84 41 96 c 0
 41 110 91.3467 146.544 127 174 c 0
 166.614 204.507 224 240.054 224 303 c 0
 224 337 209 373 176 373 c 0
 134 373 90 320 84 320 c 0
 67 320 63 331 63 341 c 0
 63 372 149 430 208 430 c 0
EndSplineSet
Substitution2: "'tnum' Tabular Numbers lookup 44 subtable" three.taboldstyle
Substitution2: "'lnum' Lining Figures lookup 42 subtable" three.lnum
Substitution2: "Single Substitution lookup 41 subtable" three.ordn
Substitution2: "Single Substitution lookup 40 subtable" three.subs
Substitution2: "sups subtable" three.sups
Substitution2: "sinf subtable" three.sinf
Substitution2: "ordn subtable" three.ordn
Substitution2: "subs subtable" three.subs
EndChar

StartChar: four
Encoding: 20 52 21
Width: 574
Flags: HMW
LayerCount: 2
Fore
SplineSet
392 405 m 2
 398 410 430 430 452 430 c 0
 461 430 465.80078125 423.053710938 462 409 c 2
 384.235351562 121.490234375 l 1
 489 136 l 2
 503.987304688 138.076171875 521 133 521 122 c 0
 521 110 507.596679688 74.203125 483 71 c 2
 366.473632812 55.82421875 l 1
 320 -116 l 2
 310.198242188 -152.237304688 278 -160 242 -160 c 0
 230 -160 226.227539062 -139.545898438 230 -126 c 2
 278.044921875 46.5263671875 l 1
 53 15 l 2
 24.009765625 10.9384765625 21 31 21 41 c 0
 21 57 37 85 74 117 c 1
 392 405 l 2
296.126953125 111.455078125 m 1
 340 269 l 2
 344.571289062 285.374023438 334.071289062 288.147460938 319 275 c 2
 116 98 l 2
 108.461914062 91.427734375 116.094726562 84.197265625 128 86 c 2
 296.126953125 111.455078125 l 1
EndSplineSet
Substitution2: "'tnum' Tabular Numbers lookup 44 subtable" four.taboldstyle
Substitution2: "'lnum' Lining Figures lookup 42 subtable" four.lnum
Substitution2: "Single Substitution lookup 41 subtable" four.ordn
Substitution2: "Single Substitution lookup 40 subtable" four.subs
Substitution2: "sups subtable" four.sups
Substitution2: "sinf subtable" four.sinf
Substitution2: "ordn subtable" four.ordn
Substitution2: "subs subtable" four.subs
EndChar

StartChar: five
Encoding: 21 53 22
Width: 388
Flags: HMW
LayerCount: 2
Fore
SplineSet
312 430 m 2
 335.958007812 431.422851562 340.338867188 420.650390625 338 413 c 2
 323 364 l 2
 317.737304688 346.787109375 308 345 291 345 c 0
 276.6796875 345 221 359 197 359 c 0
 181 359 149 327 149 308 c 0
 149 299 156.869140625 279.107421875 161 270 c 2
 219 142 l 2
 228.500976562 121.053710938 233 102 233 82 c 0
 233 -35 119 -162 25 -162 c 0
 -19 -162 -39 -145.200195312 -39 -114 c 0
 -39 -100.2109375 -31 -89 -14 -89 c 0
 0 -89 12 -114 43 -114 c 0
 88 -114 149 -42 149 57 c 0
 149 99 122.8984375 163.283203125 75 243 c 0
 69.3349609375 252.428710938 68 256 68 264 c 0
 68 282 90.7451171875 314.247070312 129 354 c 0
 178.924804688 405.879882812 207.037109375 423.779296875 227 425 c 2
 312 430 l 2
EndSplineSet
Substitution2: "'tnum' Tabular Numbers lookup 44 subtable" five.taboldstyle
Substitution2: "'lnum' Lining Figures lookup 42 subtable" five.lnum
Substitution2: "Single Substitution lookup 41 subtable" five.ordn
Substitution2: "Single Substitution lookup 40 subtable" five.subs
Substitution2: "sups subtable" five.sups
Substitution2: "sinf subtable" five.sinf
Substitution2: "ordn subtable" five.ordn
Substitution2: "subs subtable" five.subs
EndChar

StartChar: six
Encoding: 22 54 23
Width: 437
Flags: HMW
LayerCount: 2
Fore
SplineSet
274 342 m 0
 184 342 117 198 117 112 c 0
 117 67 127 28 163 28 c 0
 238 28 309 155 309 263 c 0
 309 300 301 342 274 342 c 0
37 108 m 0
 37 310 315 623 501 623 c 0
 514 623 517 617 517 611 c 0
 517 593 500.9140625 585.15625 484 579 c 0
 413.5234375 553.34765625 281.647460938 443.750976562 259 412 c 0
 239.255859375 384.3203125 245.193359375 378.041015625 255 380 c 0
 263.825195312 381.763671875 287 388 297 388 c 0
 353 388 389 332 389 279 c 0
 389 126 281 -20 134 -20 c 0
 79 -20 37 27 37 108 c 0
EndSplineSet
Substitution2: "'tnum' Tabular Numbers lookup 44 subtable" six.taboldstyle
Substitution2: "'lnum' Lining Figures lookup 42 subtable" six.lnum
Substitution2: "Single Substitution lookup 41 subtable" six.ordn
Substitution2: "Single Substitution lookup 40 subtable" six.subs
Substitution2: "sups subtable" six.sups
Substitution2: "sinf subtable" six.sinf
Substitution2: "ordn subtable" six.ordn
Substitution2: "subs subtable" six.subs
EndChar

StartChar: seven
Encoding: 23 55 24
Width: 457
Flags: HMW
LayerCount: 2
Fore
SplineSet
333 326 m 2
 342.154296875 339.122070312 333 343 314 343 c 2
 173 343 l 2
 152 343 120.442382812 334.133789062 107 318 c 0
 91.6376953125 299.560546875 77 289 67 289 c 0
 55 289 47 296 47 309 c 0
 47 327 108 404 115 416 c 0
 120 425 124 427 135 427 c 0
 142 427 179.000976562 422.208984375 203 422 c 2
 330 422 l 2
 405 422 417 428 433 428 c 0
 439 428 447 416 447 405 c 0
 447 395 417.103515625 362.92578125 404 344 c 2
 66 -145 l 2
 57.791015625 -156.85546875 42 -165 33 -165 c 0
 21 -165 17 -157 17 -152 c 0
 17 -147 13.974609375 -129.985351562 32 -105 c 2
 333 326 l 2
EndSplineSet
Substitution2: "'tnum' Tabular Numbers lookup 44 subtable" seven.taboldstyle
Substitution2: "'lnum' Lining Figures lookup 42 subtable" seven.lnum
Substitution2: "Single Substitution lookup 41 subtable" seven.ordn
Substitution2: "Single Substitution lookup 40 subtable" seven.subs
Substitution2: "sups subtable" seven.sups
Substitution2: "sinf subtable" seven.sinf
Substitution2: "ordn subtable" seven.ordn
Substitution2: "subs subtable" seven.subs
EndChar

StartChar: eight
Encoding: 24 56 25
Width: 459
Flags: HMW
LayerCount: 2
Fore
SplineSet
375 449 m 0
 375 491 357 538 316 538 c 0
 276 538 247 472 247 428 c 0
 247 399 259 363 272 335 c 2
 278 322 l 1
 288 328 l 2
 332 356 375 395 375 449 c 0
125 116 m 0
 125 76 143 28 183 28 c 0
 223 28 257 51 257 113 c 0
 257 158 247 190 227 236 c 2
 222 247 l 1
 205 236 l 2
 159 207 125 171 125 116 c 0
293 290 m 1
 299 276 l 2
 322 226 342 190 342 134 c 0
 342 40 217 -20 148 -20 c 0
 85 -20 45 34 45 94 c 0
 45 172 123 223 199 272 c 2
 209 278 l 1
 201 297 l 2
 187 331 175 375 175 414 c 0
 175 514 263 582 350 582 c 0
 408 582 451 531 451 473 c 0
 451 393 371 338 303 296 c 2
 293 290 l 1
EndSplineSet
Substitution2: "'tnum' Tabular Numbers lookup 44 subtable" eight.taboldstyle
Substitution2: "'lnum' Lining Figures lookup 42 subtable" eight.lnum
Substitution2: "Single Substitution lookup 41 subtable" eight.ordn
Substitution2: "Single Substitution lookup 40 subtable" eight.subs
Substitution2: "sups subtable" eight.sups
Substitution2: "sinf subtable" eight.sinf
Substitution2: "ordn subtable" eight.ordn
Substitution2: "subs subtable" eight.subs
EndChar

StartChar: nine
Encoding: 25 57 26
Width: 472
Flags: HMW
LayerCount: 2
Fore
SplineSet
186 63 m 0
 280 63 317 146 317 246 c 0
 317 316 296 385 261 385 c 0
 192 385 135 263 135 165 c 0
 135 120 148 63 186 63 c 0
402 265 m 0
 402 25 197 -213 45 -213 c 0
 41 -213 35 -212 35 -205 c 0
 35 -193 49.322265625 -180.33984375 65.5 -171 c 0
 176.350585938 -107 227.053710938 -33.9970703125 260 40 c 0
 264.473632812 50.048828125 263.250976562 52.3486328125 253.5 45 c 0
 242.319335938 36.57421875 202 15 143 15 c 0
 87 15 50 89 50 144 c 0
 50 291 156 430 283 430 c 0
 351 430 402 342.774414062 402 265 c 0
EndSplineSet
Substitution2: "'tnum' Tabular Numbers lookup 44 subtable" nine.taboldstyle
Substitution2: "'lnum' Lining Figures lookup 42 subtable" nine.lnum
Substitution2: "Single Substitution lookup 41 subtable" nine.ordn
Substitution2: "Single Substitution lookup 40 subtable" nine.subs
Substitution2: "sups subtable" nine.sups
Substitution2: "sinf subtable" nine.sinf
Substitution2: "ordn subtable" nine.ordn
Substitution2: "subs subtable" nine.subs
EndChar

StartChar: colon
Encoding: 26 58 27
Width: 341
Flags: MW
LayerCount: 2
Fore
SplineSet
167 400 m 0
 200.369 400 227 372.369 227 339 c 0
 227 303.149 197.851 274 162 274 c 0
 129.705 274 101 297.705 101 330 c 0
 101 367.521 129.479 400 167 400 c 0
110 106 m 0
 143.369 106 170 78.3691 170 45 c 0
 170 9.14941 140.851 -20 105 -20 c 0
 72.7051 -20 44 3.70508 44 36 c 0
 44 73.5215 72.4785 106 110 106 c 0
EndSplineSet
Validated: 1
Substitution2: "sups subtable" colon.sups
Substitution2: "sinf subtable" colon.sinf
Substitution2: "ordn subtable" colon.ordn
Substitution2: "subs subtable" colon.subs
EndChar

StartChar: less
Encoding: 28 60 28
Width: 578
Flags: MW
LayerCount: 2
Fore
SplineSet
136 210 m 2
 502 44 l 2
 521 35 528 -3 528 -12 c 0
 528 -17 523 -25 517 -25 c 0
 516 -25 515 -24 514 -24 c 2
 85 176 l 2
 68 184 44 197 44 203 c 0
 44 212 57 240 77 249 c 2
 514 449 l 2
 515 449 516 450 517 450 c 0
 523 450 527 446 527 440 c 0
 527 428 514 390 494 381 c 2
 135 219 l 2
 130 217 131 212 136 210 c 2
EndSplineSet
Validated: 1
Substitution2: "sups subtable" less.sups
Substitution2: "sinf subtable" less.sinf
Substitution2: "ordn subtable" less.ordn
Substitution2: "subs subtable" less.subs
EndChar

StartChar: equal
Encoding: 29 61 29
Width: 459
Flags: MW
LayerCount: 2
Fore
SplineSet
95 86 m 2
 74 86 42 91 42 116 c 0
 42 134 63 152 95 152 c 2
 380 152 l 2
 405 152 422 139 422 124 c 0
 422 109 409 87 379 87 c 2
 95 86 l 2
95 244 m 2
 74 244 42 249 42 274 c 0
 42 292 63 310 95 310 c 2
 380 310 l 2
 405 310 422 297 422 282 c 0
 422 267 409 245 379 245 c 2
 95 244 l 2
EndSplineSet
Validated: 1
Substitution2: "sups subtable" equal.sups
Substitution2: "sinf subtable" equal.sinf
Substitution2: "ordn subtable" equal.ordn
Substitution2: "subs subtable" equal.subs
EndChar

StartChar: greater
Encoding: 30 62 30
Width: 578
Flags: MW
LayerCount: 2
Fore
SplineSet
442 215 m 6
 76 381 l 6
 57 390 50 428 50 437 c 4
 50 442 55 450 61 450 c 4
 62 450 63 449 64 449 c 6
 493 249 l 6
 510 241 534 228 534 222 c 4
 534 213 521 185 501 176 c 6
 64 -24 l 6
 63 -24 62 -25 61 -25 c 4
 55 -25 51 -21 51 -15 c 4
 51 -3 64 35 84 44 c 6
 443 206 l 6
 448 208 447 213 442 215 c 6
EndSplineSet
Validated: 1
Substitution2: "sups subtable" greater.sups
Substitution2: "sinf subtable" greater.sinf
Substitution2: "ordn subtable" greater.ordn
Substitution2: "subs subtable" greater.subs
EndChar

StartChar: question
Encoding: 31 63 31
Width: 341
Flags: MW
LayerCount: 2
Fore
SplineSet
225 628 m 0
 300 628 355 560 355 485 c 0
 355 439 302.35 372.53 209 329 c 0
 172.884 312.159 141 293.27 141 258 c 0
 141 235.29 169 222 169 202 c 0
 169 184 155 174 139 174 c 0
 116.24 174 63 210 63 253 c 0
 63 331 130.87 377.5 207 413 c 0
 248.69 432.44 283 470 283 518 c 0
 283 553 247 571 213 571 c 0
 192 571 166 547 152 547 c 0
 127 547 114 561 114 581 c 0
 114 601 177 628 225 628 c 0
82 84 m 0
 110.968 84 136 61.9678 136 33 c 0
 136 3.49121 111.509 -20 82 -20 c 0
 52.4912 -20 28 3.49121 28 33 c 0
 28 61.9678 53.0322 84 82 84 c 0
EndSplineSet
Validated: 1
Substitution2: "sups subtable" question.sups
Substitution2: "sinf subtable" question.sinf
Substitution2: "ordn subtable" question.ordn
Substitution2: "subs subtable" question.subs
EndChar

StartChar: at
Encoding: 32 64 32
Width: 796
Flags: MW
LayerCount: 2
Fore
SplineSet
482 316 m 0
 441 316 301 228 301 126 c 0
 301 110 309 102 325 102 c 0
 400 102 506 237 506 286 c 0
 506 304 496.98 316 482 316 c 0
568 95 m 0
 653 95 735 165 735 261 c 0
 735 387 652 476 517 476 c 0
 309 476 128 332 128 124 c 0
 128 -60 258 -101 368 -101 c 0
 488 -101 620 -49 681 16 c 0
 687 23 694 25 699 25 c 0
 706 25 713 4 708 -2 c 0
 646 -78 495 -155 353 -155 c 0
 201 -155 55 -89 55 110 c 0
 55 338 288 526 534 526 c 0
 686 526 791 417 791 277 c 0
 791 154 684 44 504 44 c 0
 485 44 473 66 473 88 c 0
 473 115 477.603 136.375 493 162 c 0
 499.006 171.994 495 179 489 169 c 0
 440 99 378 41 287 41 c 0
 262 41 228 49 228 84 c 0
 228 222 413 367 515 367 c 0
 530 367 541 354 554 343 c 0
 563 335 566.735 343.1 569 349 c 0
 578.984 375.01 586 387 596 387 c 0
 620 387 622 366 622 356 c 0
 622 351 620.785 342.005 616 331 c 2
 540 131 l 2
 537.478 125.2 537 120 537 115 c 0
 537 98 552 95 568 95 c 0
EndSplineSet
Validated: 1
Substitution2: "sups subtable" at.sups
Substitution2: "sinf subtable" at.sinf
Substitution2: "ordn subtable" at.ordn
Substitution2: "subs subtable" at.subs
Substitution2: "at_alternates subtable" at.01
EndChar

StartChar: A
Encoding: 33 65 33
Width: 686
Flags: HMW
AnchorPoint: "POJ_TOP_RIGHT" 717 559 basechar 0
AnchorPoint: "cedilla" 124 8 basechar 0
AnchorPoint: "ogonek" 508 18 basechar 0
AnchorPoint: "top_accent" 608 660 basechar 0
LayerCount: 2
Fore
SplineSet
496 280 m 2
 516 425 l 2
 518.818359375 444.80078125 515.406 448.1 497 427 c 2
 373 285 l 2
 359.852495084 269.928732154 365 266 373 266 c 10
 484 266 l 18
 494 266 494.873046875 272.080078125 496 280 c 2
301 203 m 2
 229 120 l 2
 195.6082185 81.4514730725 202 53 225 45 c 0
 252 35 273 30 273 15 c 0
 273 5 258 -2 242 -2 c 0
 230 -2 167 4 119 4 c 0
 72 4 45 -2 30 -2 c 0
 14 -2 -3 5 -3 15 c 0
 -3 30 29 34 52 44 c 0
 85 59 123 72 176 132 c 2
 496 499 l 2
 513 517 527 552 536 560 c 0
 558 579 594 597 607 597 c 0
 621 597 623.023780013 592.791208191 620 571 c 2
 559 129 l 2
 553 84 559 53 582 45 c 0
 609 35 630 30 630 15 c 0
 630 5 615 -2 599 -2 c 0
 587 -2 536 4 488 4 c 0
 441 4 412 -2 397 -2 c 0
 381 -2 364 5 364 15 c 0
 364 30 396 34 419 44 c 0
 452 59 466.868164062 79.5107421875 474 129 c 2
 485 205 l 2
 486.140625 212.91796875 484 216 474 216 c 10
 325 216 l 18
 315 216 308.856 212.07 301 203 c 2
EndSplineSet
Substitution2: "Swash subtable" A.sw
Substitution2: "c2sc subtable" a.sc
Substitution2: "sups subtable" A.sups
Substitution2: "sinf subtable" A.sinf
Substitution2: "ordn subtable" A.ordn
Substitution2: "subs subtable" A.subs
EndChar

StartChar: B
Encoding: 34 66 34
Width: 560
Flags: MW
AnchorPoint: "top_accent" 302 650 basechar 0
LayerCount: 2
Fore
SplineSet
270 599 m 0
 302 599 369 605 396 605 c 0
 473 605 540 551 540 475 c 0
 540 399 471.3828125 345.385742188 399 330 c 0
 387.262695312 327.504882812 389.21875 322.079101562 399 320 c 0
 459.646484375 307.109375 507 242 507 179 c 0
 507 77 378.872070312 -6 276 -6 c 0
 213 -6 220 4 126 4 c 0
 79 4 52 -2 37 -2 c 0
 21 -2 4 5 4 15 c 0
 3 30 36 34 59 44 c 0
 92 59 104 88 114 129 c 2
 205 495 l 2
 216 539 206 554 154 569 c 0
 145 571 138 577 138 586 c 0
 138 598 158 604 173 604 c 0
 210 604 234 599 270 599 c 0
275 394 m 2
 263.387749011 347.425805139 266 343 296 343 c 0
 373 343 446 392 446 461 c 0
 446 535 407 562 349 562 c 0
 327 562 314.838437912 553.405914526 310 534 c 2
 275 394 l 2
208 126 m 2
 192.275076786 62.9307777921 206 40 259 40 c 0
 328 40 402 106 402 175 c 0
 402 269 348 303 282 303 c 0
 260 303 249 288 244 270 c 2
 208 126 l 2
EndSplineSet
Substitution2: "Swash subtable" B.sw
Substitution2: "c2sc subtable" b.sc
Substitution2: "sups subtable" B.sups
Substitution2: "sinf subtable" B.sinf
Substitution2: "ordn subtable" B.ordn
Substitution2: "subs subtable" B.subs
EndChar

StartChar: C
Encoding: 35 67 35
Width: 646
Flags: MW
AnchorPoint: "cedilla" 426 8 basechar 0
AnchorPoint: "top_accent" 449 660 basechar 0
LayerCount: 2
Fore
SplineSet
303 -8 m 0
 164 -8 71 136 71 266 c 0
 71 487 287 620 475 620 c 0
 538 620 579 585 610 583 c 0
 625 582 634 606 653 606 c 0
 665 606 671.79296875 595.811523438 665 577 c 0
 660.006835938 563.173828125 631.5 479 619.408203125 434 c 0
 615.935546875 421.07421875 610 414 601 414 c 0
 592 414 583 422 583 472 c 0
 583 532 525 576 455 576 c 0
 305 576 184 420 184 245 c 0
 184 144 248 38 354 38 c 0
 417 38 486 84 507 114 c 0
 519 131 532 151 552 151 c 0
 568 151 566 137 566 122 c 0
 566 107 512 -10 495 -10 c 0
 481 -10 483 -3 479 9 c 0
 477 15 470.567548797 19.9277289319 460 15 c 0
 442.897972059 7.02519340095 386 -8 303 -8 c 0
EndSplineSet
Substitution2: "Swash subtable" C.sw
Substitution2: "c2sc subtable" c.sc
Substitution2: "sups subtable" C.sups
Substitution2: "sinf subtable" C.sinf
Substitution2: "ordn subtable" C.ordn
Substitution2: "subs subtable" C.subs
EndChar

StartChar: D
Encoding: 36 68 36
Width: 735
Flags: MW
AnchorPoint: "cedilla" 412 8 basechar 0
AnchorPoint: "top_accent" 436 650 basechar 0
LayerCount: 2
Fore
SplineSet
205 495 m 2
 215.734375 538.701171875 205.985351562 554.387695312 154 569 c 0
 145.3359375 571.435546875 138 577 138 586 c 0
 138 598 158 604 173 604 c 0
 192 604 228 599 247 599 c 0
 317.697265625 599 365.740234375 609 428 609 c 0
 585 609 715 495 715 339 c 0
 715 124 489.75 -6 274 -6 c 0
 193.5 -6 174 4 126 4 c 0
 79 4 52 -2 37 -2 c 0
 21 -2 4 5 4 15 c 0
 4 30 36.232421875 33.6728515625 59 44 c 0
 91.7841796875 58.8720703125 103.866210938 88.2412109375 114 129 c 2
 205 495 l 2
297 481 m 2
 209 129 l 2
 200.775390625 96.009765625 208 47 296 47 c 0
 456 47 610 155 610 322 c 0
 610 473 534 564 371 564 c 0
 329 564 310.693359375 536.331054688 297 481 c 2
EndSplineSet
Substitution2: "Swash subtable" D.sw
Substitution2: "c2sc subtable" d.sc
Substitution2: "sups subtable" D.sups
Substitution2: "sinf subtable" D.sinf
Substitution2: "ordn subtable" D.ordn
Substitution2: "subs subtable" D.subs
EndChar

StartChar: E
Encoding: 37 69 37
Width: 579
Flags: HMW
AnchorPoint: "POJ_TOP_RIGHT" 651 606 basechar 0
AnchorPoint: "cedilla" 322 8 basechar 0
AnchorPoint: "ogonek" 450 18 basechar 0
AnchorPoint: "top_accent" 405 650 basechar 0
LayerCount: 2
Fore
SplineSet
140 2 m 0
 93 2 52 -2 37 -2 c 0
 21 -2 4 5 4 15 c 0
 4 30 36 34 59 44 c 0
 92 59 104 88 114 129 c 2
 205 495 l 2
 216 539 206 554 154 569 c 0
 145 571 138 577 138 586 c 0
 138 598 158 604 173 604 c 0
 212 604 248 599 284 599 c 2
 459 599 l 2
 495 599 531 606 549 606 c 0
 569 606 579.499021087 599.487401296 575 580 c 0
 572.075636294 567.333189158 560.5 534 555 507 c 0
 550.640572307 485.599173142 542 477 529 477 c 0
 517 477 515.522683738 484.85520719 514 508 c 0
 511.5 546 501 559 478 559 c 2
 363 559 l 2
 326 559 314 552 300 495 c 2
 270 375 l 2
 263 348 263 338 285 338 c 2
 387 338 l 2
 424 338 449 380 461 380 c 0
 473 380 476.840402867 363.793852416 470 345 c 0
 462.284025567 323.800534475 451.5 284 447 257 c 0
 444.400623775 241.403742653 437 232 432 232 c 0
 417 232 416 239 409 259 c 0
 404 274 389 290 364 290 c 2
 282 290 l 2
 253 290 245 272 241 257 c 2
 210 133 l 2
 195 71 205 42 240 42 c 2
 391 42 l 2
 423 42 451 59 469 74 c 0
 489 90 510 123 531 123 c 0
 543 123 544 119 544 105 c 0
 544 80 519 37 493 8 c 0
 485 -1 468 -5 454 -5 c 0
 340 -5 178 2 140 2 c 0
EndSplineSet
Substitution2: "Swash subtable" E.sw
Substitution2: "c2sc subtable" e.sc
Substitution2: "sups subtable" E.sups
Substitution2: "sinf subtable" E.sinf
Substitution2: "ordn subtable" E.ordn
Substitution2: "subs subtable" E.subs
EndChar

StartChar: F
Encoding: 38 70 38
Width: 541
Flags: MW
AnchorPoint: "top_accent" 368 650 basechar 0
LayerCount: 2
Fore
SplineSet
378 275 m 2
 280 275 l 2
 251 275 245 272 241 257 c 2
 208 125 l 10
 200.099609375 93.3984375 209 53 232 45 c 0
 259 35 280 30 280 15 c 0
 280 5 265 -2 249 -2 c 0
 237 -2 174 4 126 4 c 0
 79 4 52 -2 37 -2 c 0
 21 -2 4 5 4 15 c 0
 4 30 36 34 59 44 c 0
 92 59 104 88 114 129 c 2
 205 495 l 2
 216 539 206 554 154 569 c 0
 145 571 138 577 138 586 c 0
 138 598 158 604 174 604 c 0
 213 604 249 599 285 599 c 2
 479 599 l 2
 515 599 559 606 569 606 c 0
 589 606 595 600 595 580 c 0
 595 567 579 522 575 507 c 0
 569 486 562 477 549 477 c 0
 537 477 537 485 534 508 c 0
 528 551 512 559 489 559 c 2
 365 559 l 2
 328 559 314 552 300 495 c 2
 270 375 l 2
 263 348 261 323 283 323 c 2
 401 323 l 2
 438 323 463 365 475 365 c 0
 487 365 490.840820312 348.793945312 484 330 c 0
 476.284179688 308.80078125 465.5 269 461 242 c 0
 458.400390625 226.403320312 451 217 446 217 c 0
 431 217 430 224 423 244 c 0
 418 259 403 275 378 275 c 2
EndSplineSet
Substitution2: "Swash subtable" F.sw
Substitution2: "c2sc subtable" f.sc
Substitution2: "sups subtable" F.sups
Substitution2: "sinf subtable" F.sinf
Substitution2: "ordn subtable" F.ordn
Substitution2: "subs subtable" F.subs
EndChar

StartChar: G
Encoding: 39 71 39
Width: 709
Flags: MW
AnchorPoint: "top_accent" 456 660 basechar 0
LayerCount: 2
Fore
SplineSet
483 620 m 0
 538 620 613 586 622 586 c 0
 633 586 647 589 662 589 c 0
 673 589 677 575 673 559 c 0
 669 541 654 496 647 459 c 0
 642 432 626 414 616 414 c 0
 604 414 593 436 597 478 c 0
 602 538 533 576 463 576 c 0
 313 576 177 408 177 233 c 0
 177 132 251 35 357 35 c 0
 420 35 486 68 492 93 c 2
 521 212 l 2
 528 240 480 258 458 264 c 0
 446 267 434 277 434 286 c 0
 434 298 442 302 466 302 c 0
 485 302 577 297 586 297 c 0
 662 297 657 299 667 299 c 0
 679 299 692 291 692 279 c 0
 692 275 673 260 663 257 c 0
 635 249 619 238 608 194 c 2
 578 73 l 2
 573 54 570 47 555 40 c 0
 465 -2 404 -8 304 -8 c 0
 165 -8 64 124 64 254 c 0
 64 475 295 620 483 620 c 0
EndSplineSet
Substitution2: "Swash subtable" G.sw
Substitution2: "c2sc subtable" g.sc
Substitution2: "sups subtable" G.sups
Substitution2: "sinf subtable" G.sinf
Substitution2: "ordn subtable" G.ordn
Substitution2: "subs subtable" G.subs
EndChar

StartChar: H
Encoding: 40 72 40
Width: 723
Flags: MW
AnchorPoint: "top_accent" 462 650 basechar 0
LayerCount: 2
Fore
SplineSet
677 495 m 2
 689.096 543.515 706.201 553.034 763 569 c 0
 771.664 571.436 778 577 778 586 c 0
 778 598 758 604 743 604 c 0
 709 604 696 599 661 599 c 0
 625 599 589 604 550 604 c 0
 535 604 515 598 515 586 c 0
 515 577 522.336 571.436 531 569 c 0
 582.985 554.388 592.963 538.645 582 495 c 2
 548 356 l 2
 544.436 341.429 541 335 530 335 c 2
 273 335 l 2
 263 335 263.336 345.201 265 352 c 2
 300 495 l 2
 311.887 543.566 329.201 553.034 386 569 c 0
 394.664 571.436 401 577 401 586 c 0
 401 598 381 604 366 604 c 0
 332 604 319 599 284 599 c 0
 248 599 212 604 173 604 c 0
 158 604 138 598 138 586 c 0
 138 577 145.336 571.436 154 569 c 0
 205.985 554.388 215.858 538.67 205 495 c 2
 114 129 l 2
 103.817 88.0449 92 59 59 44 c 0
 36 34 4 30 4 15 c 0
 4 5 21 -2 37 -2 c 0
 52 -2 79 4 126 4 c 0
 174 4 237 -2 249 -2 c 0
 265 -2 280 5 280 15 c 0
 280 30 259 35 232 45 c 0
 209 53 198 85 209 129 c 2
 242 263 l 2
 244.862 274.654 248 280 260 280 c 2
 517 280 l 2
 527 280 527.324 275.473 523 258 c 2
 491 129 l 2
 481 88 469 59 436 44 c 0
 413 34 381 30 381 15 c 0
 381 5 398 -2 414 -2 c 0
 429 -2 456 4 503 4 c 0
 551 4 614 -2 626 -2 c 0
 642 -2 657 5 657 15 c 0
 657 30 636 35 609 45 c 0
 586 53 575.057 84.9873 586 129 c 2
 677 495 l 2
EndSplineSet
Validated: 41
Substitution2: "Swash subtable" H.sw
Substitution2: "c2sc subtable" h.sc
Substitution2: "sups subtable" H.sups
Substitution2: "sinf subtable" H.sinf
Substitution2: "ordn subtable" H.ordn
Substitution2: "subs subtable" H.subs
EndChar

StartChar: I
Encoding: 41 73 41
Width: 346
Flags: HMW
AnchorPoint: "POJ_TOP_RIGHT" 393 487 basechar 0
AnchorPoint: "ogonek" 206 18 basechar 0
AnchorPoint: "top_accent" 281 650 basechar 0
LayerCount: 2
Fore
SplineSet
366 604 m 0
 381 604 401 598 401 586 c 0
 401 577 394.664 571.436 386 569 c 0
 329.201 553.034 312.096 543.515 300 495 c 2
 209 129 l 2
 198.142 85.3291 209.447 53.2085 232 45 c 0
 259.251 35.0814 280 30 280 15 c 0
 280 5 265 -2 249 -2 c 0
 237 -2 174 4 126 4 c 0
 79 4 52 -2 37 -2 c 0
 21 -2 4 5 4 15 c 0
 4 30 36.2329 33.6724 59 44 c 0
 91.7846 58.8718 103.866 88.2412 114 129 c 2
 205 495 l 2
 215.886 538.663 205.985 554.388 154 569 c 0
 145.336 571.436 138 577 138 586 c 0
 138 598 158 604 173 604 c 0
 212 604 248 599 284 599 c 0
 319 599 332 604 366 604 c 0
EndSplineSet
Substitution2: "Swash subtable" I.sw
Substitution2: "c2sc subtable" i.sc
Substitution2: "sups subtable" I.sups
Substitution2: "sinf subtable" I.sinf
Substitution2: "ordn subtable" I.ordn
Substitution2: "subs subtable" I.subs
EndChar

StartChar: J
Encoding: 42 74 42
Width: 346
Flags: MW
AnchorPoint: "top_accent" 281 650 basechar 0
LayerCount: 2
Fore
SplineSet
114 129 m 2
 205 495 l 2
 215.886 538.663 205.985 554.388 154 569 c 0
 145.336 571.436 138 577 138 586 c 0
 138 598 158 604 173 604 c 0
 212 604 248 599 284 599 c 0
 319 599 332 604 366 604 c 0
 381 604 401 598 401 586 c 0
 401 577 394.664 571.436 386 569 c 0
 329.201 553.034 312.096 543.515 300 495 c 2
 209 129 l 2
 165.174 -47.2626 68 -244 -115 -244 c 0
 -148 -244 -179 -219 -179 -174 c 0
 -179 -131 -148 -105 -116 -105 c 0
 -93 -105 -77 -168 -35 -168 c 0
 31 -168 77.4698 -17.5146 114 129 c 2
EndSplineSet
Validated: 33
Substitution2: "Swash subtable" J.sw
Substitution2: "c2sc subtable" j.sc
Substitution2: "sups subtable" J.sups
Substitution2: "sinf subtable" J.sinf
Substitution2: "ordn subtable" J.ordn
Substitution2: "subs subtable" J.subs
Substitution2: "historic_j subtable" J.hist
EndChar

StartChar: K
Encoding: 43 75 43
Width: 659
Flags: MW
AnchorPoint: "top_accent" 391 650 basechar 0
LayerCount: 2
Fore
SplineSet
315 263 m 24
 302.100585938 282.5234375 283.302734375 299 267 299 c 0
 253 299 246.418945312 279.703125 244 270 c 2
 209 129 l 2
 198.141601562 85.3291015625 209.447265625 53.2080078125 232 45 c 0
 259.250976562 35.0810546875 280 30 280 15 c 0
 280 5 265 -2 249 -2 c 0
 237 -2 174 4 126 4 c 0
 79 4 52 -2 37 -2 c 0
 21 -2 4 5 4 15 c 0
 4 30 36.232421875 33.6728515625 59 44 c 0
 91.7841796875 58.8720703125 103.866210938 88.2412109375 114 129 c 2
 205 495 l 2
 215.88671875 538.663085938 205.985351562 554.387695312 154 569 c 0
 145.3359375 571.435546875 138 577 138 586 c 0
 138 598 158 604 173 604 c 0
 212 604 248 599 284 599 c 0
 319 599 332 604 366 604 c 0
 381 604 401 598 401 586 c 0
 401 577 394.6640625 571.435546875 386 569 c 0
 329.201171875 553.034179688 312.065429688 543.5234375 300 495 c 2
 271 379 l 2
 268.649414062 369.280273438 267 347 281 347 c 0
 306 347 345.461914062 380.028320312 375 407 c 2
 490 512 l 2
 508.4609375 528.858398438 520 557 477 569 c 0
 468 572 461 577 461 586 c 0
 461 598 481 604 496 604 c 0
 535 604 547 599 583 599 c 0
 618 599 621 604 655 604 c 0
 670 604 690 598 690 586 c 0
 690 577 683 571 675 569 c 0
 593 546 572.76171875 525.49609375 530 485 c 2
 379 342 l 2
 370.825195312 334.639648438 376.094726562 328.763671875 380 322 c 16
 422.974609375 247.565429688 473 156.981445312 488 131 c 0
 525 66.9140625 545 49 591 41 c 0
 613.66015625 37.0595703125 624 34 624 22 c 0
 624 2.9638671875 605 -17 517 -17 c 0
 471 -17 433.30859375 40.5654296875 415 75 c 0
 379.790039062 141.220703125 360.780273438 193.7109375 315 263 c 24
EndSplineSet
Substitution2: "Swash subtable" K.sw
Substitution2: "c2sc subtable" k.sc
Substitution2: "sups subtable" K.sups
Substitution2: "sinf subtable" K.sinf
Substitution2: "ordn subtable" K.ordn
Substitution2: "subs subtable" K.subs
EndChar

StartChar: L
Encoding: 44 76 44
Width: 609
Flags: MW
AnchorPoint: "cedilla" 183 8 basechar 0
AnchorPoint: "top_accent" 321 650 basechar 0
LayerCount: 2
Fore
SplineSet
209 131 m 2
 300 495 l 2
 312 544 329 553 386 569 c 0
 395 571 401 577 401 586 c 0
 401 598 381 604 366 604 c 0
 332 604 319 599 284 599 c 0
 248 599 212 604 173 604 c 0
 158 604 138 598 138 586 c 0
 138 577 145 571 154 569 c 0
 206 554 216 539 205 495 c 2
 114 129 l 2
 104 88 92 59 59 44 c 0
 36 34 4 30 4 15 c 0
 4 5 21 -2 36 -2 c 0
 51 -2 92 2 139 2 c 0
 177 2 372 -5 486 -5 c 0
 500 -5 517 -1 525 8 c 0
 551 37 576 88 576 113 c 0
 576 127 575 131 563 131 c 0
 542 131 521 98 501 82 c 0
 483 67 455 50 423 50 c 2
 251 50 l 2
 216 50 194 69 209 131 c 2
EndSplineSet
Substitution2: "Swash subtable" L.sw
Substitution2: "c2sc subtable" l.sc
Substitution2: "sups subtable" L.sups
Substitution2: "sinf subtable" L.sinf
Substitution2: "ordn subtable" L.ordn
Substitution2: "subs subtable" L.subs
EndChar

StartChar: M
Encoding: 45 77 45
Width: 838
Flags: MW
AnchorPoint: "top_accent" 581 650 basechar 0
LayerCount: 2
Fore
SplineSet
792 495 m 2
 701 129 l 2
 690.141601562 85.3291015625 701.447265625 53.208984375 724 45 c 0
 751.250976562 35.0810546875 772 30 772 15 c 0
 772 5 757 -2 741 -2 c 0
 729 -2 666 4 618 4 c 0
 571 4 544 -2 529 -2 c 0
 513 -2 496 5 496 15 c 0
 496 30 528.232421875 33.6728515625 551 44 c 0
 583.784179688 58.8720703125 595.8671875 88.24609375 606 129 c 2
 666 370 l 2
 678.580078125 420.455078125 653.049804688 387.000976562 644 375 c 2
 494 176 l 2
 450.668945312 118.498046875 413 24 379 24 c 0
 364.200195312 24 357.538085938 55.1044921875 356 62 c 2
 292 349 l 2
 287.159179688 368.293945312 279.3984375 374.82421875 273 358 c 2
 179 95 l 2
 169.2421875 67.6982421875 194.146484375 51.498046875 212 45 c 0
 229.853515625 38.501953125 252 30 252 15 c 0
 252 5 237 -2 221 -2 c 0
 209 -2 163 4 115 4 c 0
 68 4 41 -2 26 -2 c 0
 10 -2 -7 5 -7 15 c 0
 -7 30 27.5048828125 41.0009765625 52 46 c 0
 76.5 51 88.779296875 53.5126953125 106 98 c 2
 238 439 l 2
 248.474609375 467.39453125 243.314453125 481.215820312 237 497 c 0
 225 527 213.679484521 558.759618234 171 564 c 0
 149.163984664 566.681125555 140 577 140 586 c 0
 140 598 160 604 175 604 c 0
 214 604 255.483398438 599 307 599 c 16
 329 599 333.752929688 589.71875 345 541 c 2
 419 220 l 2
 428.978515625 175.095703125 437.384765625 191.462890625 454 214 c 2
 702 552 l 2
 732.192382812 593.102539062 742 599 760 599 c 0
 800 599 824 604 858 604 c 0
 873 604 893 598 893 586 c 0
 893 577 875.790039062 566.958984375 855 564 c 0
 810.44921875 557.659179688 805.063476562 547.395507812 792 495 c 2
EndSplineSet
Substitution2: "Swash subtable" M.sw
Substitution2: "c2sc subtable" m.sc
Substitution2: "sups subtable" M.sups
Substitution2: "sinf subtable" M.sinf
Substitution2: "ordn subtable" M.ordn
Substitution2: "subs subtable" M.subs
EndChar

StartChar: N
Encoding: 46 78 46
Width: 684
Flags: MW
AnchorPoint: "top_accent" 426 660 basechar 0
LayerCount: 2
Fore
SplineSet
522 569 m 16
 513.243164062 571.510742188 506 577 506 586 c 0
 506 598 526 604 541 604 c 0
 580 604 592 599 628 599 c 0
 663 599 687 604 721 604 c 0
 736 604 744 598 744 586 c 0
 744 577 737.498046875 571.436523438 729 569 c 0
 670.36328125 552.185546875 654.259765625 529.204101562 648 505 c 2
 550 125 l 2
 547.39453125 115.344726562 541 80 541 73 c 0
 541 61 559 23 559 19 c 0
 559 4 563 0 546 0 c 2
 478 0 l 2
 464 0 461.850585938 3.28125 456 16 c 2
 257 429 l 2
 251.985351562 439.90234375 246.220703125 443.624023438 243 430 c 2
 168 113 l 2
 159.688476562 77.9716796875 173.447265625 53.208984375 196 45 c 0
 223.250976562 35.0810546875 244 30 244 15 c 0
 244 5 229 -2 213 -2 c 0
 201 -2 174 4 126 4 c 0
 79 4 52 -2 37 -2 c 0
 21 -2 4 5 4 15 c 0
 4 30 32.232421875 33.6728515625 55 44 c 0
 91.427734375 60.5244140625 98.8486328125 75.96484375 106 102 c 2
 202 451 l 2
 208.615234375 474.0703125 212.297851562 494.060546875 203 514 c 0
 189.475585938 543.001953125 166.985351562 554.387695312 115 569 c 0
 106.3359375 571.435546875 99 577 99 586 c 0
 99 598 119 604 134 604 c 0
 173 604 210 599 258 599 c 0
 283 599 286.1484375 589.559570312 310 540 c 2
 488 170 l 2
 500.833984375 143.356445312 502.91015625 145.78515625 509 169 c 2
 596 506 l 2
 605.737304688 543.765625 558.434570312 558.553710938 522 569 c 16
EndSplineSet
Substitution2: "Swash subtable" N.sw
Substitution2: "c2sc subtable" n.sc
Substitution2: "sups subtable" N.sups
Substitution2: "sinf subtable" N.sinf
Substitution2: "ordn subtable" N.ordn
Substitution2: "subs subtable" N.subs
EndChar

StartChar: O
Encoding: 47 79 47
Width: 646
Flags: HMW
AnchorPoint: "POJ_TOP_RIGHT" 626 620 basechar 0
AnchorPoint: "cedilla" 412 8 basechar 0
AnchorPoint: "ogonek" 520 18 basechar 0
AnchorPoint: "top_accent" 404 660 basechar 0
LayerCount: 2
Fore
SplineSet
432 620 m 0
 547 620 626 519 626 404 c 0
 626 185 474 -20 282 -20 c 0
 154 -20 59 93 59 219 c 0
 59 435 237 620 432 620 c 0
158 169 m 0
 158 105 201 25 273 25 c 0
 425 25 527 213.599609375 527 393 c 0
 527 479.015625 503.01953125 573 417 573 c 0
 272 573 158 371 158 169 c 0
EndSplineSet
Substitution2: "Swash subtable" O.sw
Substitution2: "c2sc subtable" o.sc
Substitution2: "sups subtable" O.sups
Substitution2: "sinf subtable" O.sinf
Substitution2: "ordn subtable" O.ordn
Substitution2: "subs subtable" O.subs
EndChar

StartChar: P
Encoding: 48 80 48
Width: 518
Flags: MW
AnchorPoint: "top_accent" 311 650 basechar 0
LayerCount: 2
Fore
SplineSet
309 529 m 2
 209 129 l 2
 193.923828125 68.6943359375 209.447265625 53.2080078125 232 45 c 0
 259.250976562 35.0810546875 280 30 280 15 c 0
 280 5 265 -2 249 -2 c 0
 237 -2 174 4 126 4 c 0
 79 4 52 -2 37 -2 c 0
 21 -2 4 5 4 15 c 0
 4 30 36.232421875 33.6728515625 59 44 c 0
 91.7841796875 58.8720703125 103.866210938 88.2412109375 114 129 c 2
 205 495 l 2
 215.88671875 538.663085938 203.985351562 554.387695312 152 569 c 0
 143.3359375 571.435546875 136 577 136 586 c 0
 136 598 156 604 171 604 c 0
 210 604 234 600 249 600 c 0
 298 600 322 605 368 605 c 0
 462 605 536 532 536 437 c 0
 536 324 431 256 348 256 c 0
 336 256 317 262 317 275 c 0
 317 284 333.348632812 292.005859375 356 296 c 0
 415.087890625 306.418945312 444 359 444 435 c 0
 444 498 407 556 342 556 c 0
 321 556 314.322265625 550.346679688 309 529 c 2
EndSplineSet
Substitution2: "Swash subtable" P.sw
Substitution2: "c2sc subtable" p.sc
Substitution2: "sups subtable" P.sups
Substitution2: "sinf subtable" P.sinf
Substitution2: "ordn subtable" P.ordn
Substitution2: "subs subtable" P.subs
EndChar

StartChar: Q
Encoding: 49 81 49
Width: 646
Flags: HMW
AnchorPoint: "top_accent" 529 726 basechar 0
LayerCount: 2
Fore
SplineSet
242 -16 m 4
 134.999847918 4.99259522998 59 107 59 219 c 4
 59 435 237 620 432 620 c 4
 547 620 626 519 626 404 c 4
 626 265 553 29 274 -65 c 4
 268.0064758 -67.0193235656 266 -75 272 -77 c 4
 346 -98 421 -214 512 -214 c 4
 586 -214 647 -151 662 -151 c 4
 669 -151 676 -158 676 -168 c 4
 676 -203 588 -274 463 -274 c 4
 341 -274 287 -124 166 -124 c 4
 90 -124 -2 -159 -26 -159 c 12
 -39.6220703125 -159 -57.0294356757 -158.58790054 -58 -145 c 28
 -59.40234375 -125.36328125 -48.4178597746 -109.952437133 -30 -103 c 28
 73.3681640625 -63.98046875 152.998947061 -58.9955793654 244 -31 c 4
 253.557930148 -28.0595967477 251.81292664 -17.9252196653 242 -16 c 4
158 169 m 4
 158 105 201 25 273 25 c 4
 425 25 527 214 527 393 c 4
 527 479 503 573 417 573 c 4
 272 573 158 371 158 169 c 4
EndSplineSet
Substitution2: "Swash subtable" Q.sw
Substitution2: "Single Substitution lookup 61 subtable" Q.long
Substitution2: "Single Substitution lookup 60 subtable" Q.long
Substitution2: "c2sc subtable" q.sc
Substitution2: "sups subtable" Q.sups
Substitution2: "sinf subtable" Q.sinf
Substitution2: "ordn subtable" Q.ordn
Substitution2: "subs subtable" Q.subs
EndChar

StartChar: R
Encoding: 50 82 50
Width: 581
Flags: MW
AnchorPoint: "top_accent" 380 650 basechar 0
LayerCount: 2
Fore
SplineSet
209 129 m 2
 198.534179688 85.2333984375 209.447265625 53.2080078125 232 45 c 0
 259.250976562 35.0810546875 280 30 280 15 c 0
 280 5 265 -2 249 -2 c 0
 237 -2 174 4 126 4 c 0
 79 4 52 -2 37 -2 c 0
 21 -2 4 5 4 15 c 0
 4 30 36.232421875 33.6728515625 59 44 c 0
 91.7841796875 58.8720703125 103.866210938 88.2412109375 114 129 c 2
 205 495 l 2
 215.88671875 538.663085938 205.985351562 554.387695312 154 569 c 0
 145.3359375 571.435546875 138 577 138 586 c 0
 138 598 158 604 173 604 c 0
 188 604 243 599.001953125 267 599.001953125 c 0
 292 599.001953125 330 605 391 605 c 0
 478 605 567 564 567 475 c 0
 567 399.017578125 488 329 424 314 c 0
 409.396484375 310.577148438 414.340820312 299.38671875 419 282 c 0
 425.470703125 257.8515625 453.739257812 159.190429688 464 131 c 0
 489.309570312 61.462890625 502 52 548 44 c 0
 570.66015625 40.0595703125 581 37 581 25 c 0
 581 5.9638671875 529 -13 471 -13 c 0
 433 -13 406.08984375 33.541015625 391 75 c 8
 369.31640625 134.575195312 354 194 342 230 c 0
 327.76953125 272.690429688 304 287 274 287 c 0
 249 287 247.758789062 287.149414062 232 221 c 2
 209 129 l 2
269 369 m 2
 263.513671875 346.6640625 262 325 283 325 c 0
 375 325 470 366 470 470 c 0
 470 526 433 556 363 556 c 0
 340 556 312.293602236 545.480417038 308 528 c 2
 269 369 l 2
EndSplineSet
Substitution2: "Swash subtable" R.sw
Substitution2: "c2sc subtable" r.sc
Substitution2: "sups subtable" R.sups
Substitution2: "sinf subtable" R.sinf
Substitution2: "ordn subtable" R.ordn
Substitution2: "subs subtable" R.subs
EndChar

StartChar: S
Encoding: 51 83 51
Width: 494
Flags: MW
AnchorPoint: "cedilla" 265 8 basechar 0
AnchorPoint: "top_accent" 385 660 basechar 0
LayerCount: 2
Fore
SplineSet
381 620 m 0
 442 620 466 596 500 590 c 8
 508.70703125 588.463867188 519 583 517 575 c 0
 513 558 504 513 501 488 c 0
 499 472 491 462 485 462 c 0
 473 462 471 468 465 496 c 0
 454 544 421 580 371 580 c 0
 309 580 260 548 260 481 c 0
 260 453 293 414 323 376 c 2
 399 280 l 2
 428 243 452 197 452 173 c 0
 452 54 331 -20 211 -20 c 0
 148 -20 85 11 59 26 c 0
 48 32 39 40 39 57 c 0
 39 78 48 146 53 176 c 0
 56 193 63 208 75 208 c 0
 91 208 96 197 100 170 c 0
 111 90 138 24 227 24 c 0
 293 24 348 76 348 142 c 0
 348 178 333 202 299 239 c 2
 225 327 l 2
 190 369 172 401 172 456 c 0
 172 563 275 620 381 620 c 0
EndSplineSet
Substitution2: "Swash subtable" S.sw
Substitution2: "c2sc subtable" s.sc
Substitution2: "sups subtable" S.sups
Substitution2: "sinf subtable" S.sinf
Substitution2: "ordn subtable" S.ordn
Substitution2: "subs subtable" S.subs
EndChar

StartChar: T
Encoding: 52 84 52
Width: 656
Flags: MW
AnchorPoint: "cedilla" 356 18 basechar 0
AnchorPoint: "top_accent" 377 650 basechar 0
LayerCount: 2
Fore
SplineSet
457 495 m 2
 366 129 l 2
 355.141601562 85.3291015625 366.447265625 53.2080078125 389 45 c 0
 416.250976562 35.0810546875 437 30 437 15 c 0
 437 5 422 -2 406 -2 c 0
 394 -2 331 4 283 4 c 0
 236 4 209 -2 194 -2 c 0
 178 -2 161 5 161 15 c 0
 161 30 193.232421875 33.6728515625 216 44 c 0
 248.784179688 58.8720703125 260.866210938 88.2412109375 271 129 c 6
 362 495 l 2
 367.791015625 518.291015625 370 545 318 545 c 2
 230 545 l 2
 189 545 128 490 112 490 c 0
 102 490 100 500 100 511 c 0
 100 523 122 554 140 598 c 0
 144.54336354 609.105999765 155 624 164 624 c 0
 182.505859375 624 189.665039062 589 232 589 c 2
 596 589 l 2
 654 589 690 625 705 625 c 0
 716 625 719.514661184 620.349848025 715 605 c 0
 710 588 699 543 692 504 c 0
 689.526686243 490.220109067 680 483 670 483 c 0
 649 483 651.33984375 545 601 545 c 2
 518 545 l 2
 489 545 463.774414062 522.16796875 457 495 c 2
EndSplineSet
Substitution2: "Swash subtable" T.sw
Substitution2: "c2sc subtable" t.sc
Substitution2: "sups subtable" T.sups
Substitution2: "sinf subtable" T.sinf
Substitution2: "ordn subtable" T.ordn
Substitution2: "subs subtable" T.subs
EndChar

StartChar: U
Encoding: 53 85 53
Width: 705
Flags: HMW
AnchorPoint: "POJ_TOP_RIGHT" 760 480 basechar 0
AnchorPoint: "cedilla" 412 8 basechar 0
AnchorPoint: "ogonek" 490 18 basechar 0
AnchorPoint: "top_accent" 452 650 basechar 0
LayerCount: 2
Fore
SplineSet
566 567 m 0
 554.356445312 569.903320312 544 577 544 586 c 0
 544 598 564 604 579 604 c 0
 598 604 630 599 666 599 c 0
 701 599 712 604 746 604 c 0
 761 604 781 598 781 586 c 0
 781 577 772.626953125 569.706054688 763 567 c 0
 716.791015625 554.010742188 693.161132812 546.751953125 683 506 c 2
 624 270 l 2
 583.739257812 112.05078125 494 -20 310 -20 c 0
 191 -20 76 69 118 238 c 2
 182 495 l 2
 193 539 183 554 131 569 c 0
 122 571 115 577 115 586 c 0
 115 598 135 604 150 604 c 0
 189 604 225 599 261 599 c 0
 296 599 309 604 343 604 c 0
 358 604 378 598 378 586 c 0
 378 577 372 571 363 569 c 0
 306 553 289 544 277 495 c 2
 217 254 l 2
 179 105 240 31 338 31 c 0
 474 31 533.325195312 156.87109375 573 316 c 2
 620 505 l 2
 628.891601562 539.884765625 608.693359375 556.35546875 566 567 c 0
EndSplineSet
Substitution2: "Swash subtable" U.sw
Substitution2: "c2sc subtable" u.sc
Substitution2: "sups subtable" U.sups
Substitution2: "sinf subtable" U.sinf
Substitution2: "ordn subtable" U.ordn
Substitution2: "subs subtable" U.subs
Substitution2: "Single Substitution lookup 26 subtable" U.LAT
EndChar

StartChar: V
Encoding: 54 86 54
Width: 616
Flags: MW
AnchorPoint: "top_accent" 334 650 basechar 0
LayerCount: 2
Fore
SplineSet
243 174 m 6
 518 492 l 2
 540.261187666 517.699017952 544.881835938 545.671875 522 554 c 0
 490.990234375 565.287109375 474 572 474 587 c 0
 474 597 489 604 505 604 c 0
 517 604 580 599 628 599 c 0
 675 599 702 604 717 604 c 0
 733 604 750 597 750 587 c 0
 750 572 724.5 561 695 557 c 0
 659.079101562 552.129882812 610 523 557 463 c 2
 237 96 l 2
 221.22265625 77.9140625 166 -16 117 -16 c 0
 103 -16 95 2 98 24 c 2
 159 466 l 2
 165 511 154 551 131 559 c 0
 104 569 83 572 83 587 c 0
 83 597 98 604 114 604 c 0
 126 604 187 599 235 599 c 0
 282 599 311 604 326 604 c 0
 342 604 359 597 359 587 c 0
 359 572 327 570 304 560 c 0
 271 545 261 515 254 466 c 2
 212 174 l 2
 207.150616254 140.347608149 220.08407152 147.545128579 243 174 c 6
EndSplineSet
Substitution2: "Swash subtable" V.sw
Substitution2: "c2sc subtable" v.sc
Substitution2: "sups subtable" V.sups
Substitution2: "sinf subtable" V.sinf
Substitution2: "ordn subtable" V.ordn
Substitution2: "subs subtable" V.subs
EndChar

StartChar: W
Encoding: 55 87 55
Width: 978
Flags: MW
AnchorPoint: "top_accent" 433 650 basechar 0
LayerCount: 2
Fore
SplineSet
495 392 m 2
 237 96 l 2
 221.22265625 77.9140625 166 -16 117 -16 c 0
 103 -16 95 2 98 24 c 2
 159 466 l 2
 165 511 154 551 131 559 c 0
 104 569 83 572 83 587 c 0
 83 597 98 604 114 604 c 0
 126 604 187 599 235 599 c 0
 282 599 311 604 326 604 c 0
 342 604 359 597 359 587 c 0
 359 572 327 570 304 560 c 0
 271 545 261 515 254 466 c 2
 212 174 l 2
 207.150616254 140.347608149 220.738812334 148.300982048 243 174 c 2
 500 471 l 2
 526.189632549 501.234138767 528.886302069 546.503067424 493 559 c 0
 465.811404301 568.46807076 445 572 445 587 c 0
 445 597 460 604 476 604 c 0
 488 604 549 599 597 599 c 0
 644 599 702 604 717 604 c 0
 733 604 750 597 750 587 c 0
 750 572 724.729495991 561.019585563 695 557 c 0
 646.441823214 550.434676915 624.415107089 524.396797624 616 466 c 2
 574 174 l 2
 569.150616254 140.347608149 582.738812334 148.300982048 605 174 c 2
 880 492 l 2
 902.260742188 517.69921875 906.881835938 545.671875 884 554 c 0
 852.990234375 565.287109375 836 572 836 587 c 0
 836 597 851 604 867 604 c 0
 879 604 942 599 990 599 c 0
 1037 599 1064 604 1079 604 c 0
 1095 604 1112 597 1112 587 c 0
 1112 572 1086.5 561 1057 557 c 0
 1021.07910156 552.129882812 972 523 919 463 c 2
 599 96 l 2
 583.22265625 77.9140625 528 -16 479 -16 c 0
 465 -16 457 2 460 24 c 2
 508 372 l 2
 512.535670019 404.686812287 502.231127704 400.289197315 495 392 c 2
EndSplineSet
Substitution2: "Swash subtable" W.sw
Substitution2: "c2sc subtable" w.sc
Substitution2: "sups subtable" W.sups
Substitution2: "sinf subtable" W.sinf
Substitution2: "ordn subtable" W.ordn
Substitution2: "subs subtable" W.subs
EndChar

StartChar: X
Encoding: 56 88 56
Width: 622
Flags: MW
AnchorPoint: "cedilla" 426 8 basechar 0
AnchorPoint: "top_accent" 464 650 basechar 0
LayerCount: 2
Fore
SplineSet
196 490 m 2
 178 532 155 555 108 567 c 0
 91 571 82 577 82 586 c 0
 82 598 102 604 117 604 c 0
 156 604 180 599 216 599 c 0
 251 599 284 604 318 604 c 0
 333 604 353 598 353 586 c 0
 353 577 338 571 330 569 c 0
 301 562 276 543 291 507 c 2
 348 374 l 1
 456 512 l 2
 471 532 482 557 439 569 c 0
 430 572 423 577 423 586 c 0
 423 598 443 604 458 604 c 0
 497 604 513 599 549 599 c 0
 584 599 587 604 621 604 c 0
 636 604 656 598 656 586 c 0
 656 577 649 571 641 569 c 0
 559 546 536 531 500 485 c 2
 371 321 l 1
 453 129 l 2
 471 87 515 53 538 45 c 0
 565 35 586 30 586 15 c 0
 586 5 571 -2 555 -2 c 0
 543 -2 480 4 432 4 c 0
 385 4 338 -2 323 -2 c 0
 307 -2 290 5 290 15 c 0
 290 30 318 38 342 44 c 0
 383 55 374 72 350 129 c 2
 304 237 l 1
 212 120 l 2
 178.916992188 77.9267578125 180 53 203 45 c 0
 230 35 245 30 245 15 c 0
 245 5 230 -2 214 -2 c 0
 202 -2 150 4 102 4 c 0
 55 4 28 -2 13 -2 c 0
 -3 -2 -20 5 -20 15 c 0
 -20 30 12 34 35 44 c 0
 68 59 110 69 159 132 c 2
 282 289 l 1
 196 490 l 2
EndSplineSet
Substitution2: "Swash subtable" X.sw
Substitution2: "c2sc subtable" x.sc
Substitution2: "sups subtable" X.sups
Substitution2: "sinf subtable" X.sinf
Substitution2: "ordn subtable" X.ordn
Substitution2: "subs subtable" X.subs
EndChar

StartChar: Y
Encoding: 57 89 57
Width: 555
Flags: MW
AnchorPoint: "top_accent" 317 650 basechar 0
LayerCount: 2
Fore
SplineSet
183 489 m 2
 173 534 142 556 96 569 c 0
 86 572 80 577 80 586 c 0
 80 598 100 604 115 604 c 0
 154 604 178 599 214 599 c 0
 249 599 270 604 304 604 c 0
 319 604 339 598 339 586 c 0
 339 577 332 571 324 569 c 0
 295 562 258 545 266 507 c 2
 301 351 l 2
 303 340 309 338 314 345 c 10
 450 512 l 2
 466 531 480 557 437 569 c 0
 428 572 421 577 421 586 c 0
 421 598 441 604 456 604 c 0
 495 604 507 599 543 599 c 0
 578 599 581 604 615 604 c 0
 630 604 650 598 650 586 c 0
 650 577 643 571 635 569 c 0
 553 546 532 530 494 485 c 2
 342 305 l 2
 333 293 322 278 312 239 c 2
 285 129 l 2
 274 85 285 53 308 45 c 0
 335 35 356 30 356 15 c 0
 356 5 341 -2 325 -2 c 0
 313 -2 250 4 202 4 c 0
 155 4 128 -2 113 -2 c 0
 97 -2 80 5 80 15 c 0
 80 30 112 34 135 44 c 0
 168 59 180 88 190 129 c 2
 217 238 l 2
 226 276 226 291 221 313 c 2
 183 489 l 2
EndSplineSet
Substitution2: "Swash subtable" Y.sw
Substitution2: "c2sc subtable" y.sc
Substitution2: "sups subtable" Y.sups
Substitution2: "sinf subtable" Y.sinf
Substitution2: "ordn subtable" Y.ordn
Substitution2: "subs subtable" Y.subs
EndChar

StartChar: Z
Encoding: 58 90 58
Width: 594
Flags: MW
AnchorPoint: "top_accent" 421 650 basechar 0
LayerCount: 2
Fore
SplineSet
583 599 m 2
 600 599 614 592 614 575 c 0
 614 557 596.16015625 536.270507812 584 523 c 2
 175 76 l 2
 157 56 157 46 179 46 c 2
 393 46 l 2
 425 46 447 67 465 82 c 0
 485 98 506 131 527 131 c 0
 542 131 542 125 542 113 c 0
 542 94 515 37 489 8 c 0
 481 -1 474 -5 460 -5 c 0
 436.599609375 -5 410 0 385 0 c 2
 144 0 l 2
 125 0 63 -3 40 -3 c 0
 30 -3 15 4 15 21 c 0
 15 36 20.2216796875 48.7021484375 35 65 c 2
 454 527 l 2
 467 541 470 547 439 547 c 2
 240 547 l 2
 220 547 201 536 174 499 c 0
 155 473 144 465 131 465 c 0
 116 465 111 474 111 492 c 0
 111 504 131 545 155 587 c 0
 161 597 175 620 194 620 c 0
 213 620 225 599 267 599 c 2
 583 599 l 2
EndSplineSet
Substitution2: "Swash subtable" Z.sw
Substitution2: "c2sc subtable" z.sc
Substitution2: "sups subtable" Z.sups
Substitution2: "sinf subtable" Z.sinf
Substitution2: "ordn subtable" Z.ordn
Substitution2: "subs subtable" Z.subs
EndChar

StartChar: bracketleft
Encoding: 59 91 59
Width: 268
Flags: MW
LayerCount: 2
Fore
SplineSet
85 584 m 2
 250 584 l 2
 260 584 268 580 268 570 c 0
 268 560 262 541 242 541 c 2
 134 541 l 2
 104 541 95 528 95 498 c 2
 95 -104 l 2
 95 -134 101 -156 130 -156 c 2
 242 -156 l 2
 258 -156 268 -159 268 -171 c 0
 268 -183 254 -199 242 -199 c 2
 78 -199 l 2
 55 -199 47 -198 47 -174 c 2
 47 550 l 2
 47 584 53 584 85 584 c 2
EndSplineSet
Validated: 1
Substitution2: "sups subtable" bracketleft.sups
Substitution2: "sinf subtable" bracketleft.sinf
Substitution2: "ordn subtable" bracketleft.ordn
Substitution2: "subs subtable" bracketleft.subs
EndChar

StartChar: backslash
Encoding: 60 92 60
Width: 351
Flags: MW
LayerCount: 2
Fore
SplineSet
22 701 m 0
 40 701 43 695 60 655 c 2
 337 3 l 2
 341 -7 346 -21 346 -32 c 0
 346 -40 343 -46 335 -46 c 0
 317 -46 310 -40 303 -24 c 2
 15 642 l 2
 11 650 2 676 2 677 c 0
 2 695 7 701 22 701 c 0
EndSplineSet
Validated: 1
Substitution2: "sups subtable" backslash.sups
Substitution2: "sinf subtable" backslash.sinf
Substitution2: "ordn subtable" backslash.ordn
Substitution2: "subs subtable" backslash.subs
EndChar

StartChar: bracketright
Encoding: 61 93 61
Width: 268
Flags: MW
LayerCount: 2
Fore
SplineSet
183 -199 m 2
 18 -199 l 2
 8 -199 0 -195 0 -185 c 0
 0 -175 6 -156 26 -156 c 2
 134 -156 l 2
 164 -156 173 -143 173 -113 c 2
 173 489 l 2
 173 519 167 541 138 541 c 2
 26 541 l 2
 10 541 0 544 0 556 c 0
 0 568 14 584 26 584 c 2
 190 584 l 2
 213 584 221 583 221 559 c 2
 221 -165 l 2
 221 -199 215 -199 183 -199 c 2
EndSplineSet
Validated: 1
Substitution2: "sups subtable" bracketright.sups
Substitution2: "sinf subtable" bracketright.sinf
Substitution2: "ordn subtable" bracketright.ordn
Substitution2: "subs subtable" bracketright.subs
EndChar

StartChar: underscore
Encoding: 63 95 63
Width: 590
Flags: MW
LayerCount: 2
Fore
SplineSet
69 -117 m 2
 45 -117 0 -116 0 -101 c 0
 0 -72 26 -52 83 -52 c 2
 521 -52 l 2
 549 -52 590 -50 590 -70 c 0
 590 -99 563 -117 506 -117 c 2
 69 -117 l 2
EndSplineSet
Validated: 33
Substitution2: "sups subtable" underscore.sups
Substitution2: "sinf subtable" underscore.sinf
Substitution2: "ordn subtable" underscore.ordn
Substitution2: "subs subtable" underscore.subs
EndChar

StartChar: a
Encoding: 65 97 65
Width: 492
Flags: HMW
AnchorPoint: "POJ_TOP_RIGHT" 533 373 basechar 0
AnchorPoint: "ogonek" 341 18 basechar 0
AnchorPoint: "top_accent" 400 570 basechar 0
LayerCount: 2
Fore
SplineSet
463 407 m 2
 381 79 l 2
 378 67 380 62 389 62 c 0
 425 62 456 110 471 110 c 0
 477 110 478 103 478 97 c 0
 478 62 398 -14 338 -14 c 0
 280 -14 305 73 316 121 c 0
 318 131 312 131 308 125 c 0
 253 51 185 -14 87 -14 c 0
 46 -14 15 5 15 43 c 0
 15 188 256 402 346 402 c 0
 360 402 367 396 373 396 c 0
 380 396 386 403 398 430 c 0
 401 437 409 442 416 442 c 0
 457 442 467 423 463 407 c 2
110 86 m 0
 110 72 115 58 128 58 c 0
 211 58 361 249 361 313 c 0
 361 326 345 347 322 347 c 0
 274 347 110 161 110 86 c 0
EndSplineSet
Substitution2: "Smallcaps subtable" a.sc
Substitution2: "sups subtable" a.sups
Substitution2: "sinf subtable" a.sinf
Substitution2: "ordn subtable" a.ordn
Substitution2: "subs subtable" a.subs
EndChar

StartChar: b
Encoding: 66 98 66
Width: 457
Flags: MW
AnchorPoint: "top_accent" 275 749 basechar 0
LayerCount: 2
Fore
SplineSet
197.811523438 344 m 0
 253.217773438 394.948242188 325 430 367 430 c 0
 408 430 440 386 440 340 c 8
 440 159.540039062 262 -14 142 -14 c 0
 92 -14 48 32 48 82 c 0
 48 107 52.984375 125.861328125 60 154 c 2
 161 558 l 2
 167.290039062 583.227539062 170 593 170 604 c 0
 170 612 100 626 100 641 c 0
 100 656 199 682 231 682 c 0
 253 682 255 670 255 657 c 0
 255 635 249.372070312 608.826171875 240 572 c 2
 187 360 l 2
 184.077148438 348.362304688 180.881835938 328.431640625 197.811523438 344 c 0
125 105 m 0
 125 71 152 46 174 46 c 256
 257 46 355 189 355 320 c 0
 355 344 349 367 326 367 c 0
 226 367 125 177 125 105 c 0
EndSplineSet
Substitution2: "Smallcaps subtable" b.sc
Substitution2: "sups subtable" b.sups
Substitution2: "sinf subtable" b.sinf
Substitution2: "ordn subtable" b.ordn
Substitution2: "subs subtable" b.subs
EndChar

StartChar: c
Encoding: 67 99 67
Width: 359
Flags: MW
AnchorPoint: "cedilla" 240 8 basechar 0
AnchorPoint: "top_accent" 305 570 basechar 0
LayerCount: 2
Fore
SplineSet
292 430 m 0
 326 430 369 415 369 381 c 0
 369 366 349 332 334 332 c 0
 321 332 311 334.599609375 292 366 c 0
 286.305664062 375.411132812 268 386 257 386 c 0
 199 386 128 242 128 130 c 0
 128 84 144 53 180 53 c 0
 225 53 272 131 282 131 c 0
 292 131 307 124 307 106 c 0
 307 81 228 -14 143 -14 c 0
 72 -14 40 58 40 126 c 0
 40 187 54.9775390625 239.16796875 86 294 c 0
 132.288085938 375.813476562 205 430 292 430 c 0
EndSplineSet
Substitution2: "Smallcaps subtable" c.sc
Substitution2: "sups subtable" c.sups
Substitution2: "sinf subtable" c.sinf
Substitution2: "ordn subtable" c.ordn
Substitution2: "subs subtable" c.subs
EndChar

StartChar: d
Encoding: 68 100 68
Width: 487
Flags: MW
LayerCount: 2
Fore
SplineSet
343 353 m 0
 343 370 330 384 312 384 c 0
 243 384 116 220 116 90 c 0
 116 68 130 56 151 56 c 256
 251 56 343 245 343 353 c 0
369 422 m 2
 403 558 l 2
 409.219726562 582.946289062 412 593 412 604 c 0
 412 612 342 626 342 641 c 0
 342 656 441 682 473 682 c 0
 495 682 497 670 497 657 c 0
 497 635 491.193359375 608.87109375 482 572 c 2
 359 79 l 2
 355.85546875 66.3857421875 358 62 367 62 c 0
 403 62 434 110 449 110 c 0
 455 110 456 103 456 97 c 0
 456 62 376 -14 316 -14 c 0
 283 -14 267.041992188 31.3427734375 280 66 c 0
 283.501953125 75.3671875 278.931640625 84.2998046875 271 74 c 0
 240.98046875 35.01953125 166 -14 112 -14 c 0
 60 -14 30 45 30 97 c 0
 30 261 203 430 310 430 c 0
 326 430 340.571289062 425.665039062 350 420 c 0
 358.571289062 414.849609375 366.581054688 412.296875 369 422 c 2
EndSplineSet
Substitution2: "Smallcaps subtable" d.sc
Substitution2: "sups subtable" d.sups
Substitution2: "sinf subtable" d.sinf
Substitution2: "ordn subtable" d.ordn
Substitution2: "subs subtable" d.subs
EndChar

StartChar: e
Encoding: 69 101 69
Width: 367
Flags: HMW
AnchorPoint: "POJ_TOP_RIGHT" 448 430 basechar 0
AnchorPoint: "cedilla" 253 8 basechar 0
AnchorPoint: "ogonek" 292 18 basechar 0
AnchorPoint: "top_accent" 298 570 basechar 0
LayerCount: 2
Fore
SplineSet
276 430 m 0
 342 430 372 400 372 353 c 0
 372 272 223 200 145 200 c 0
 135 200 128 170.599609375 128 150 c 0
 128 105 144 55 189 55 c 0
 235 55 281 102 290 102 c 0
 302 102 304 89 304 78 c 0
 304 50 221 -12 145 -12 c 0
 76 -12 40 63 40 133 c 0
 40 281 162 430 276 430 c 0
149 244 m 0
 149 240 151 237 155 237 c 0
 232 237 297 314 297 366 c 0
 297 384 278 390 261 390 c 0
 230 390 149 295 149 244 c 0
EndSplineSet
Substitution2: "Smallcaps subtable" e.sc
Substitution2: "sups subtable" e.sups
Substitution2: "sinf subtable" e.sinf
Substitution2: "ordn subtable" e.ordn
Substitution2: "subs subtable" e.subs
EndChar

StartChar: f
Encoding: 70 102 70
Width: 314
Flags: MW
LayerCount: 2
Fore
SplineSet
387 695 m 0
 444 695 499 656 499 603 c 0
 499 561 472 542 445 542 c 0
 425 542 426 555 426 582 c 0
 426 617.583984375 403 648 363 648 c 0
 274 648 238.142578125 504.713867188 231 444 c 0
 230 437 225.271484375 425.358398438 241 426 c 2
 345 430 l 2
 355.991210938 430.422851562 358 427 358 417 c 0
 358 407 346.98828125 391.515625 335 391 c 2
 229 385 l 2
 217.018554688 384.330078125 214.587890625 379.920898438 212.999023438 364 c 0
 208.0078125 313.998046875 164 34 144 -48 c 0
 124 -129 57 -267 -47 -267 c 0
 -78 -267 -120 -250 -120 -219 c 0
 -120 -189 -106 -159 -78 -159 c 0
 -64 -159 -32 -208 -7 -208 c 0
 26 -208 39.669921875 -164.671875 53 -109 c 0
 70 -38 120.888671875 239.495117188 132 364 c 0
 132.888671875 373.959960938 133.993164062 379.383789062 123 379 c 2
 66 376 l 2
 56.015625 375.474609375 50 377 50 387 c 0
 50 397 63.0224609375 417.290039062 74 418 c 2
 130 421 l 2
 139.985351562 421.541015625 140.244140625 423.38671875 143 433 c 0
 194.543945312 612.755859375 283 695 387 695 c 0
EndSplineSet
Substitution2: "Single Substitution lookup 64 subtable" f.short
Substitution2: "Single Substitution lookup 63 subtable" f.short
Substitution2: "Smallcaps subtable" f.sc
Substitution2: "sups subtable" f.sups
Substitution2: "sinf subtable" f.sinf
Substitution2: "ordn subtable" f.ordn
Substitution2: "subs subtable" f.subs
EndChar

StartChar: g
Encoding: 71 103 71
Width: 438
Flags: MW
AnchorPoint: "top_accent" 274 570 basechar 0
LayerCount: 2
Fore
SplineSet
268 430 m 0
 280 430 326 415 368 415 c 0
 374 415 427 424 443 424 c 0
 470.459960938 424 482 412 482 393 c 0
 482 374 467 361 441 361 c 0
 416 361 369 364 358 364 c 0
 344 364 354 328 354 305 c 0
 354 204 279.001472713 117.776075969 194 95 c 0
 172.749631822 89.3059810077 152 79 152 64 c 0
 152 45 201 24 228 8 c 0
 300 -35 388 -73 388 -133 c 0
 388 -217 240 -273 123 -273 c 0
 39 -273 -68 -247 -68 -162 c 0
 -68 -111 27.052734375 -38.5625 111 -9 c 0
 119.489257812 -6.0107421875 117.688476562 -0.0224609375 111 6 c 0
 102.08203125 14.029296875 87 29 87 40 c 0
 87 60 104 76 130 89 c 0
 137.155273438 92.5771484375 134.233398438 95.265625 120 100 c 0
 84.8916015625 111.678710938 44 151 44 189 c 0
 44 300 115 430 268 430 c 0
122 175 m 0
 122 153 136 130 158 130 c 0
 212 130 278 236 278 326 c 0
 278 352 273 384 247 384 c 0
 171 384 122 269 122 175 c 0
13 -142 m 0
 13 -186 96 -223 186 -223 c 0
 237 -223 308 -207 308 -156 c 0
 308 -126 292.2109375 -115.698242188 279 -105 c 0
 253.625976562 -84.453125 205 -51 163 -36 c 0
 154 -33 144 -36 135 -39 c 0
 103 -50 13 -99 13 -142 c 0
EndSplineSet
Substitution2: "Smallcaps subtable" g.sc
Substitution2: "sups subtable" g.sups
Substitution2: "sinf subtable" g.sinf
Substitution2: "ordn subtable" g.ordn
Substitution2: "subs subtable" g.subs
EndChar

StartChar: h
Encoding: 72 104 72
Width: 502
Flags: MW
LayerCount: 2
Fore
SplineSet
59 109 m 2
 171 558 l 2
 177 583 180 593 180 604 c 0
 180 612 110 626 110 641 c 0
 110 656 209 682 241 682 c 0
 263 682 265 670 265 657 c 0
 265 635 259 609 250 572 c 2
 183 306 l 2
 180 294 181 270 194 290 c 0
 268 403 363 430 405 430 c 0
 446 430 478 386 478 340 c 0
 478 255 450 165 424 95 c 0
 415 72 327 -14 289 -14 c 0
 268 -14 243 -2 243 20 c 0
 243 32 272 72 287 72 c 0
 300 72 318 57 331 57 c 0
 337 57 346 62 350 75 c 0
 383 174 398 239 398 320 c 0
 398 344 381 366 358 366 c 0
 269 366 164 170 108 17 c 0
 105 8 95 -13 84 -14 c 0
 67 -16 51 5 50 11 c 0
 47 29 42 39 59 109 c 2
EndSplineSet
Substitution2: "Smallcaps subtable" h.sc
Substitution2: "sups subtable" h.sups
Substitution2: "sinf subtable" h.sinf
Substitution2: "ordn subtable" h.ordn
Substitution2: "subs subtable" h.subs
EndChar

StartChar: k
Encoding: 75 107 75
Width: 481
Flags: MW
LayerCount: 2
Fore
SplineSet
167 148 m 0
 158 148 152 148 142 122 c 0
 129 89 129 81 108 17 c 0
 105 8 95 -13 84 -14 c 0
 67 -16 51 5 50 11 c 0
 47 29 42 39 59 109 c 2
 171 558 l 2
 177 583 180 593 180 604 c 0
 180 612 110 626 110 641 c 0
 110 656 209 682 241 682 c 0
 263 682 265 670 265 657 c 0
 265 635 259 609 250 572 c 2
 183 304 l 2
 178.74609375 287.06640625 187 293 195 301 c 0
 209 315 311 430 374 430 c 0
 421 430 441 391 441 349 c 0
 441 287 363.4609375 214.252929688 273 178 c 0
 264.646484375 174.65234375 264.10546875 168.78515625 271 163 c 0
 303.939453125 135.360351562 338 60 369 60 c 0
 405 60 434 114 449 114 c 0
 455 114 456 107 456 101 c 0
 456 63 411 -14 340 -14 c 0
 305 -14 264.995117188 65.376953125 220 119 c 0
 205.859375 135.852539062 182 148 167 148 c 0
175 203 m 0
 175 194 179 184 188 184 c 0
 245 184 357 254 357 326 c 0
 357 345 349 364 330 364 c 0
 289 364 175 228 175 203 c 0
EndSplineSet
Substitution2: "Smallcaps subtable" k.sc
Substitution2: "sups subtable" k.sups
Substitution2: "sinf subtable" k.sinf
Substitution2: "ordn subtable" k.ordn
Substitution2: "subs subtable" k.subs
EndChar

StartChar: l
Encoding: 76 108 76
Width: 255
Flags: MW
LayerCount: 2
Fore
SplineSet
127 79 m 2
 124.096679688 67.3564453125 126 62 135 62 c 0
 171 62 202 110 217 110 c 0
 223 110 224 103 224 97 c 0
 224 62 144 -14 84 -14 c 0
 51 -14 40 5 40 27 c 0
 40 39 44 50 46 58 c 2
 171 558 l 2
 177.37109375 583.485351562 180 593 180 604 c 0
 180 612 110 626 110 641 c 0
 110 656 209 682 241 682 c 0
 263 682 265 670 265 657 c 0
 265 635 259.198242188 608.869140625 250 572 c 2
 127 79 l 2
EndSplineSet
Substitution2: "Smallcaps subtable" l.sc
Substitution2: "sups subtable" l.sups
Substitution2: "sinf subtable" l.sinf
Substitution2: "ordn subtable" l.ordn
Substitution2: "subs subtable" l.subs
EndChar

StartChar: m
Encoding: 77 109 77
Width: 750
Flags: MW
AnchorPoint: "top_accent" 465 570 basechar 0
LayerCount: 2
Fore
SplineSet
471 332 m 0
 468.259765625 322.3828125 474.514648438 323.514648438 483 332 c 0
 560.075195312 409.075195312 615 430 673 430 c 0
 721 430 725 363 705 300 c 1
 628 79 l 2
 624 68 627 62 636 62 c 0
 672 62 703 110 718 110 c 0
 724 110 725 103 725 97 c 0
 725 62 640 -14 580 -14 c 0
 547 -14 536 5 536 27 c 0
 536 39 539 50 542 58 c 2
 622 286 l 2
 641 339 647 374 621 374 c 0
 525 374 410 157 359 17 c 0
 356 8 346 -13 335 -14 c 0
 318 -16 288 5 288 11 c 0
 288 29 295 43 303 66 c 2
 380 286 l 2
 398 339 405 374 379 374 c 0
 283 374 168 157 117 17 c 0
 114 8 104 -13 93 -14 c 0
 76 -16 46 5 46 11 c 0
 46 29 53 43 61 66 c 2
 150 315 l 10
 156 331 159 357 143 357 c 0
 105 357 76 312 62 312 c 0
 55 312 51 325 51 333 c 0
 51 356 122 430 187 430 c 0
 228 430 235 390 221 330 c 0
 219 323 227 320 232 324 c 0
 309 400 373 430 431 430 c 0
 471 430 485.51953125 382.971679688 471 332 c 0
EndSplineSet
Substitution2: "Smallcaps subtable" m.sc
Substitution2: "sups subtable" m.sups
Substitution2: "sinf subtable" m.sinf
Substitution2: "ordn subtable" m.ordn
Substitution2: "subs subtable" m.subs
EndChar

StartChar: n
Encoding: 78 110 78
Width: 508
Flags: MW
AnchorPoint: "top_accent" 343 570 basechar 0
LayerCount: 2
Fore
SplineSet
61 66 m 2
 150 315 l 10
 155.588867188 330.63671875 159 357 143 357 c 0
 105 357 76 312 62 312 c 0
 55 312 51 325 51 333 c 0
 51 356 122 430 187 430 c 0
 228 430 235 390 221 330 c 0
 219 323 227.442382812 319.501953125 232 324 c 0
 309 400 373 430 431 430 c 0
 479 430 483.06640625 362.875976562 463 300 c 1
 386 79 l 2
 382.1484375 67.9462890625 385 62 394 62 c 0
 430 62 461 110 476 110 c 0
 482 110 483 103 483 97 c 0
 483 62 398 -14 338 -14 c 0
 305 -14 294 5 294 27 c 0
 294 39 297.170898438 49.9375 300 58 c 2
 380 286 l 2
 398.508789062 338.852539062 405 374 379 374 c 0
 283 374 168 157 117 17 c 0
 114 8 104 -13 93 -14 c 0
 76 -16 46 5 46 11 c 0
 46 29 52.6875 42.7431640625 61 66 c 2
EndSplineSet
Substitution2: "Smallcaps subtable" n.sc
Substitution2: "sups subtable" n.sups
Substitution2: "sinf subtable" n.sinf
Substitution2: "ordn subtable" n.ordn
Substitution2: "subs subtable" n.subs
EndChar

StartChar: o
Encoding: 79 111 79
Width: 378
Flags: HMW
AnchorPoint: "POJ_TOP_RIGHT" 402 459 basechar 0
AnchorPoint: "ogonek" 337 18 basechar 0
AnchorPoint: "top_accent" 280 570 basechar 0
LayerCount: 2
Fore
SplineSet
246 430 m 0
 315.669921875 430 363 365 363 295 c 0
 363 152 272 -14 160 -14 c 0
 88 -14 40 59 40 131 c 0
 40 271 139 430 246 430 c 0
120 105 m 0
 120 71 129 32 162 32 c 256
 225 32 283 198 283 320 c 0
 283 352 278 384 248 384 c 0
 179 384 120 228 120 105 c 0
EndSplineSet
Substitution2: "Smallcaps subtable" o.sc
Substitution2: "sups subtable" o.sups
Substitution2: "sinf subtable" o.sinf
Substitution2: "ordn subtable" o.ordn
Substitution2: "subs subtable" o.subs
EndChar

StartChar: p
Encoding: 80 112 80
Width: 450
Flags: MW
AnchorPoint: "top_accent" 316 570 basechar 0
LayerCount: 2
Fore
SplineSet
207 341 m 2
 146 96 l 2
 138 64 162 38 196 38 c 0
 261 38 353 216 353 327 c 0
 353 354 335 380 309 380 c 0
 251 380 213.047851562 365.256835938 207 341 c 2
239 415 m 0
 266.250976562 424.918945312 298 430 326 430 c 0
 416 430 435 380 435 322 c 0
 435 182 279 -11 171 -11 c 0
 165 -11 137 0 132 0 c 0
 127 0 121 -1 117 -17 c 2
 75 -186 l 2
 69 -208 95 -225 120 -231 c 0
 134 -234 146 -241 146 -251 c 0
 146 -265 130 -269 115 -269 c 0
 102 -269 16 -262 -43 -262 c 0
 -59 -262 -70 -257 -70 -245 c 0
 -70 -231 -55 -225 -43 -223 c 0
 -10 -216 -6 -207 1 -181 c 2
 126 317 l 2
 130.384765625 334.458007812 128.926757812 337.571289062 115 332 c 0
 96.4306640625 324.573242188 69 314 66 314 c 0
 56 314 54 316 54 326 c 0
 54 346 112.921875 377.387695312 124 382 c 0
 141.541015625 389.301757812 143.599609375 392.706054688 149 413 c 0
 157.227539062 443.923828125 189 509 218 509 c 0
 234 509 230.795898438 453.684570312 227 431 c 0
 222.708984375 405.357421875 228.663085938 411.23828125 239 415 c 0
EndSplineSet
Substitution2: "Smallcaps subtable" p.sc
Substitution2: "sups subtable" p.sups
Substitution2: "sinf subtable" p.sinf
Substitution2: "ordn subtable" p.ordn
Substitution2: "subs subtable" p.subs
EndChar

StartChar: q
Encoding: 81 113 81
Width: 456
Flags: MW
AnchorPoint: "top_accent" 334 570 basechar 0
LayerCount: 2
Fore
SplineSet
348 317 m 0
 348 344 314 384 296 384 c 0
 227 384 119 220 119 90 c 0
 119 68 133 56 154 56 c 256
 254 56 348 249 348 317 c 0
294 89 m 2
 296.384765625 98.7109375 289.931640625 98.2998046875 282 88 c 0
 251.98046875 49.01953125 169 -14 115 -14 c 0
 63 -14 33 45 33 97 c 4
 33 261 206 430 313 430 c 0
 332.774414062 430 355 414 368 389.65625 c 0
 372.302734375 381.59765625 374.90234375 380.434570312 377 384 c 0
 399 421.374023438 409 438 422 438 c 0
 447 438 446 425 446 412 c 0
 446 390 436.193359375 356.87109375 427 320 c 2
 301 -187 l 2
 295.91015625 -207.481445312 310 -215 335 -221 c 0
 349.490234375 -224.477539062 358 -234 358 -241 c 0
 358 -255 345 -262 330 -262 c 0
 258 -262 169 -272 147 -272 c 0
 131 -272 123 -267 123 -255 c 0
 123 -241 139.84765625 -234.532226562 152 -232 c 0
 200 -222 218.413085938 -214.9609375 227 -180 c 2
 294 89 l 2
EndSplineSet
Substitution2: "Smallcaps subtable" q.sc
Substitution2: "sups subtable" q.sups
Substitution2: "sinf subtable" q.sinf
Substitution2: "ordn subtable" q.ordn
Substitution2: "subs subtable" q.subs
EndChar

StartChar: r
Encoding: 82 114 82
Width: 384
Flags: MW
AnchorPoint: "top_accent" 298 570 basechar 0
LayerCount: 2
Fore
SplineSet
309 332 m 0
 270 332 138 83 108 17 c 0
 104 8 95 -13 84 -14 c 0
 67 -16 37 5 37 11 c 0
 37 29 44 43 52 66 c 2
 141 315 l 10
 146.589 330.637 150 357 134 357 c 0
 96 357 67 312 53 312 c 0
 46 312 42 325 42 333 c 0
 42 356 113 430 178 430 c 0
 201 430 218.467 400.498 213 371 c 0
 208.262 345.435 189.5 287.6 181 267 c 0
 178.095 259.96 189 256 193 261 c 0
 291 401 319 430 364 430 c 0
 386 430 414 418 414 397 c 0
 414 357 377 311 358 311 c 0
 335 311 326 332 309 332 c 0
EndSplineSet
Validated: 33
Substitution2: "Smallcaps subtable" r.sc
Substitution2: "sups subtable" r.sups
Substitution2: "sinf subtable" r.sinf
Substitution2: "ordn subtable" r.ordn
Substitution2: "subs subtable" r.subs
EndChar

StartChar: s
Encoding: 83 115 83
Width: 294
Flags: MW
AnchorPoint: "cedilla" 199 8 basechar 0
AnchorPoint: "top_accent" 243 570 basechar 0
LayerCount: 2
Fore
SplineSet
220 430 m 0
 254 430 289 402 289 372 c 0
 289 360 273 336 258 336 c 0
 246 336 209 376 168 376 c 0
 154 376 144 357 144 343 c 0
 144 320 181.642578125 255.49609375 214 196 c 0
 231 165 238 148 238 123 c 0
 238 40 145 -14 76 -14 c 0
 36 -14 5 15 5 54 c 0
 5 70 20 84 38 84 c 0
 48 84 82 44 128 44 c 0
 152 44 166 67 166 91 c 0
 166 114 135.413085938 176.42578125 87 257 c 0
 81.849609375 265.571289062 76 285 76 300 c 0
 76 366 144 430 220 430 c 0
EndSplineSet
Substitution2: "Smallcaps subtable" s.sc
Substitution2: "sups subtable" s.sups
Substitution2: "sinf subtable" s.sinf
Substitution2: "ordn subtable" s.ordn
Substitution2: "subs subtable" s.subs
Substitution2: "Single Substitution lookup 29 subtable" longs
EndChar

StartChar: t
Encoding: 84 116 84
Width: 301
Flags: MW
AnchorPoint: "cedilla" 205 8 basechar 0
LayerCount: 2
Fore
SplineSet
220 517 m 0
 234 517 237 505 237 492 c 0
 237 471 231 445 222 410 c 1
 323 410 l 2
 335 410 349 405 349 395 c 0
 349 383 324 354 303 354 c 2
 210 354 l 1
 137 79 l 2
 133.827 67.0479 136 62 145 62 c 0
 181 62 212 110 227 110 c 0
 233 110 234 103 234 97 c 0
 234 62 154 -14 94 -14 c 0
 61 -14 50 5 50 27 c 0
 50 39 53.8994 50.0293 56 58 c 2
 134 354 l 1
 87 354 l 2
 75 354 64 358 64 368 c 0
 64 384 85 410 106 410 c 2
 146 410 l 1
 160 466 l 2
 162 476 188 517 220 517 c 0
EndSplineSet
Substitution2: "Smallcaps subtable" t.sc
Substitution2: "sups subtable" t.sups
Substitution2: "sinf subtable" t.sinf
Substitution2: "ordn subtable" t.ordn
Substitution2: "subs subtable" t.subs
EndChar

StartChar: u
Encoding: 85 117 85
Width: 482
Flags: HMW
AnchorPoint: "POJ_TOP_RIGHT" 528 430 basechar 0
AnchorPoint: "ogonek" 433 18 basechar 0
AnchorPoint: "top_accent" 323 570 basechar 0
LayerCount: 2
Fore
SplineSet
317 163.93359375 m 0
 255.620117188 71.8642578125 177 -14 106 -14 c 0
 70 -14 50 36 56 62 c 2
 129 315 l 2
 134 331 139 352 127 352 c 0
 99 352 60 304 46 304 c 0
 39 304 35 320 35 328 c 0
 35 348 136 430 189 430 c 0
 230 430 223 383 217 363 c 2
 144 110 l 2
 139 89 139 61 157 61 c 0
 208 61 297 191.93359375 333 251.93359375 c 0
 359 296.93359375 371 326 396 418 c 0
 398 426 407 430 414 430 c 0
 455 430 459 396 455 380 c 2
 371 79 l 2
 368 67 370 62 379 62 c 0
 415 62 446 110 461 110 c 0
 467 110 468 103 468 97 c 0
 468 62 388 -14 328 -14 c 0
 270 -14 297 80.8662109375 325 159.93359375 c 0
 328.404296875 169.545898438 319 166.93359375 317 163.93359375 c 0
EndSplineSet
Substitution2: "Smallcaps subtable" u.sc
Substitution2: "sups subtable" u.sups
Substitution2: "sinf subtable" u.sinf
Substitution2: "ordn subtable" u.ordn
Substitution2: "subs subtable" u.subs
Substitution2: "Single Substitution lookup 24 subtable" u.LAT
EndChar

StartChar: v
Encoding: 86 118 86
Width: 454
Flags: MW
AnchorPoint: "top_accent" 303 570 basechar 0
LayerCount: 2
Fore
SplineSet
133 -14 m 0
 72 -14 59.078125 62.52734375 85 156 c 2
 129 315 l 2
 133.471679688 331.158203125 139 352 127 352 c 0
 99 352 60 304 46 304 c 0
 39 304 35 320 35 328 c 0
 35 348 136 430 189 430 c 0
 230 430 222.647460938 383.225585938 217 363 c 2
 155 141 l 2
 145.857421875 108.251953125 151 61 187 61 c 0
 266 61 364 210 364 290 c 0
 364 330 330 355 330 374 c 0
 330 391 359 430 381 430 c 0
 411 430 436 384 436 337 c 0
 436 192 257 -14 133 -14 c 0
EndSplineSet
Substitution2: "Smallcaps subtable" v.sc
Substitution2: "sups subtable" v.sups
Substitution2: "sinf subtable" v.sinf
Substitution2: "ordn subtable" v.ordn
Substitution2: "subs subtable" v.subs
AlternateSubs2: "v_alternates subtable" v.init v.alt v.initalt
Substitution2: "ss03 subtable" v.alt
Substitution2: "Single Substitution lookup 25 subtable" v.LATmedi
EndChar

StartChar: w
Encoding: 87 119 87
Width: 685
Flags: MW
AnchorPoint: "top_accent" 439 570 basechar 0
LayerCount: 2
Fore
SplineSet
314 113 m 0
 261 39 179 -14 133 -14 c 0
 72 -14 59 63 85 156 c 2
 129 315 l 2
 133 331 139 352 127 352 c 0
 99 352 60 304 46 304 c 0
 39 304 35 320 35 328 c 0
 35 348 136 430 189 430 c 0
 230 430 223 383 217 363 c 2
 155 141 l 2
 146 108 151 61 187 61 c 0
 242 61 299 142 334 212 c 0
 335 214 335 262 348 305 c 0
 361 347 386 383 418 383 c 0
 429 383 446 384 446 337 c 0
 446 311 431 273 407 233 c 0
 384 194 379 148 379 128 c 0
 379 98 393 61 423 61 c 0
 514 61 595 210 595 290 c 0
 595 330 561 355 561 374 c 0
 561 391 590 430 612 430 c 0
 642 430 667 384 667 337 c 0
 667 192 505 -14 381 -14 c 0
 340 -14 320 37 320 83 c 0
 320 92 321 100 322 108 c 0
 324 118 320 121 314 113 c 0
EndSplineSet
Substitution2: "Smallcaps subtable" w.sc
Substitution2: "sups subtable" w.sups
Substitution2: "sinf subtable" w.sinf
Substitution2: "ordn subtable" w.ordn
Substitution2: "subs subtable" w.subs
Substitution2: "ss03 subtable" w.alt
EndChar

StartChar: x
Encoding: 88 120 88
Width: 531
Flags: MW
AnchorPoint: "top_accent" 361 570 basechar 0
LayerCount: 2
Fore
SplineSet
161 352 m 0
 124 352 88 279 74 279 c 0
 67 279 63 295 63 303 c 0
 63 323 116 430 185 430 c 0
 226 430 253 389 273 332 c 2
 290 284 l 1
 353 371 412 430 480 430 c 0
 512 430 534 399 534 366 c 0
 534 326 510 304 470 304 c 0
 456 304 455 355 425 355 c 0
 397 355 346 295 306 237 c 1
 319 200 l 2
 357 90 365 69 400 69 c 0
 436 69 465 114 480 114 c 0
 486 114 487 107 487 101 c 0
 487 63 431 -14 360 -14 c 0
 325 -14 290 32 269 96 c 2
 251 152 l 1
 195 69 126 -14 72 -14 c 0
 41 -14 13 10 13 41 c 0
 13 77 39 103 61 103 c 0
 75 103 83 62 110 62 c 0
 146 62 197 146 230 196 c 0
 231 198 233 201 234 203 c 1
 202 302 l 2
 191 335 173 352 161 352 c 0
EndSplineSet
Validated: 1
Substitution2: "Smallcaps subtable" x.sc
Substitution2: "sups subtable" x.sups
Substitution2: "sinf subtable" x.sinf
Substitution2: "ordn subtable" x.ordn
Substitution2: "subs subtable" x.subs
EndChar

StartChar: y
Encoding: 89 121 89
Width: 422
Flags: MW
AnchorPoint: "top_accent" 339 570 basechar 0
LayerCount: 2
Fore
SplineSet
177.000976562 302 m 0
 171.791992188 331.543945312 160 352 138 352 c 0
 101 352 65 279 51 279 c 0
 44 279 40 295 40 303 c 0
 40 323 93 430 162 430 c 0
 203 430 238.889648438 393.9765625 252 332 c 0
 263 280 261.798147934 198.703186451 255 121 c 0
 252.733950689 95.0989378496 259.712141035 92.2149180841 270 115 c 0
 311.974464578 207.963134217 343.572265625 329.379882812 349 368 c 0
 354.872070312 409.779296875 368 435 386 435 c 0
 400 435 417 409 417 385 c 0
 417 365 358.838867188 166.185546875 276 5 c 0
 217.619140625 -108.595703125 133.29296875 -270 9 -270 c 0
 -42.4052734375 -270 -60 -246 -60 -217 c 0
 -60 -196 -34 -171 -13 -171 c 0
 2 -171 24 -208 54 -208 c 0
 136 -208 192 -2.0703125 192 118 c 0
 192 203.299804688 189.493164062 231.153320312 177.000976562 302 c 0
EndSplineSet
Substitution2: "Smallcaps subtable" y.sc
Substitution2: "sups subtable" y.sups
Substitution2: "sinf subtable" y.sinf
Substitution2: "ordn subtable" y.ordn
Substitution2: "subs subtable" y.subs
EndChar

StartChar: z
Encoding: 90 122 90
Width: 465
Flags: MW
AnchorPoint: "top_accent" 306 570 basechar 0
LayerCount: 2
Fore
SplineSet
329 387 m 0
 358 387 377.018554688 401.716796875 400 421 c 0
 407.66015625 427.427734375 419 440 427 440 c 0
 441.98046875 440 455 426 455 416 c 0
 455 411 431.631835938 384.63671875 418 370 c 2
 183 137 l 2
 151.778887592 105.996094762 155 101 167 101 c 0
 218 101 268 36 322 36 c 0
 341 36 374 67 374 95 c 0
 374 126 360 144 360 149 c 0
 360 164 367.940429688 170 376 170 c 0
 410 170 432 133 432 103 c 0
 432 45 348 -35 275 -35 c 0
 230 -35 180 50 132 50 c 0
 86 50 61 -14 43 -14 c 0
 30 -14 20 -2 20 14 c 0
 20 30 46.3154296875 68.6455078125 108 130 c 2
 295 316 l 2
 298.561523438 319.506835938 298.9453125 329.955078125 289 331 c 0
 243.251953125 335.80859375 201 365 158 365 c 0
 137 365 120 352 120 333 c 0
 120 317 126 303 126 288 c 0
 126 273 102.021484375 261 91 261 c 0
 77.7119140625 261 49 282 49 315 c 0
 49 347 130 430 206 430 c 0
 264 430 307 387 329 387 c 0
EndSplineSet
Substitution2: "Smallcaps subtable" z.sc
Substitution2: "sups subtable" z.sups
Substitution2: "sinf subtable" z.sinf
Substitution2: "ordn subtable" z.ordn
Substitution2: "subs subtable" z.subs
EndChar

StartChar: braceleft
Encoding: 91 123 91
Width: 373
Flags: MW
LayerCount: 2
Fore
SplineSet
102 279 m 0
 135 270 208 213 208 147 c 0
 208 89 195 42 195 -26 c 0
 195 -99 248 -127 312 -127 c 0
 323 -127 338 -128 338 -139 c 0
 338 -148 329 -154 320 -154 c 0
 226 -154 118 -115 118 -21 c 0
 118 49 131 95 131 157 c 0
 131 215 90 253 36 273 c 0
 31 275 25 276 25 282 c 0
 25 288 31 286 36 288 c 0
 90 308 131 346 131 404 c 0
 131 466 118 512 118 582 c 0
 118 676 226 715 320 715 c 0
 329 715 338 709 338 700 c 0
 338 689 323 688 312 688 c 0
 248 688 195 660 195 587 c 0
 195 519 208 472 208 414 c 0
 208 348 142 300 100 283 c 0
 96 281 99 280 102 279 c 0
EndSplineSet
Validated: 1
Substitution2: "sups subtable" braceleft.sups
Substitution2: "sinf subtable" braceleft.sinf
Substitution2: "ordn subtable" braceleft.ordn
Substitution2: "subs subtable" braceleft.subs
EndChar

StartChar: bar
Encoding: 92 124 92
Width: 157
Flags: MW
LayerCount: 2
Fore
SplineSet
55 574 m 2
 55 594 75 610 92 610 c 0
 101 610 102 603 102 574 c 2
 102 -188 l 2
 102 -205 83 -218 67 -218 c 0
 57 -218 55 -210 55 -190 c 2
 55 574 l 2
EndSplineSet
Validated: 1
Substitution2: "sups subtable" bar.sups
Substitution2: "sinf subtable" bar.sinf
Substitution2: "ordn subtable" bar.ordn
Substitution2: "subs subtable" bar.subs
EndChar

StartChar: braceright
Encoding: 93 125 93
Width: 373
Flags: MW
LayerCount: 2
Fore
SplineSet
272 279 m 0
 274 280 277 281 274 283 c 0
 232 300 166 348 166 414 c 0
 166 472 179 519 179 587 c 0
 179 660 125 688 61 688 c 0
 50 688 35 689 35 700 c 0
 35 709 44 715 53 715 c 0
 147 715 255 676 255 582 c 0
 255 512 242 466 242 404 c 0
 242 346 282 308 337 288 c 0
 342 286 348 288 348 282 c 0
 348 276 342 275 337 273 c 0
 282 253 242 215 242 157 c 0
 242 95 255 49 255 -21 c 0
 255 -115 147 -154 53 -154 c 0
 44 -154 35 -148 35 -139 c 0
 35 -128 50 -127 61 -127 c 0
 125 -127 179 -99 179 -26 c 0
 179 42 166 89 166 147 c 0
 166 213 239 270 272 279 c 0
EndSplineSet
Validated: 1
Substitution2: "sups subtable" braceright.sups
Substitution2: "sinf subtable" braceright.sinf
Substitution2: "ordn subtable" braceright.ordn
Substitution2: "subs subtable" braceright.subs
EndChar

StartChar: exclamdown
Encoding: 96 161 95
Width: 203
Flags: MW
LayerCount: 2
Fore
SplineSet
148 395 m 0
 118 395 93 417 93 447 c 0
 93 479 121 504 153 504 c 0
 181 504 208 484 208 456 c 0
 208 423 181 395 148 395 c 0
74 -137 m 0
 49 -137 35 -109 35 -85 c 0
 35 -25 109 266 129 266 c 0
 146 266 147 230 149 207 c 0
 152 174 151 38 151 4 c 0
 151 -58 133 -137 74 -137 c 0
EndSplineSet
Validated: 33
EndChar

StartChar: sterling
Encoding: 97 163 96
Width: 600
Flags: MW
LayerCount: 2
Fore
SplineSet
224 488 m 0
 249 628 332 691 449 691 c 0
 488 691 518 643 518 589 c 0
 518 558 502 547 468 547 c 0
 456 547 448 555 448 571 c 0
 448 580 454 608 454 612 c 0
 454 632 429 649 402 649 c 0
 354 649 320 600 308 547 c 0
 295 493 285 327 260 257 c 0
 247 220 239 201 210 166 c 0
 194 147 210 138 248 128 c 0
 322 108 363 55 431 55 c 0
 475 55 490 63 490 92 c 0
 490 98 484 115 484 138 c 0
 484 174 496 192 523 192 c 0
 551 192 562 164 562 128 c 0
 562 55 467 -12 394 -12 c 0
 298 -12 269 27 215 81 c 0
 195 101 183 103 147 56 c 0
 116 15 108 7 74 7 c 0
 55 7 40 24 40 48 c 0
 40 72 65 102 119 138 c 0
 148 158 154 168 159 181 c 0
 200 295 203 367 224 488 c 0
404 379 m 2
 427 379 437 375 437 367 c 0
 437 351 423 335 406 335 c 2
 140 335 l 2
 112 335 84 324 66 324 c 0
 53 324 48 326 48 335 c 0
 48 355 56 379 67 379 c 2
 404 379 l 2
EndSplineSet
Validated: 37
EndChar

StartChar: currency
Encoding: 98 164 97
Width: 483
Flags: MW
LayerCount: 2
Fore
SplineSet
41 434 m 2
 39 436 38 438 38 441 c 0
 38 454 56 472 69 472 c 0
 72 472 75 471 77 469 c 2
 122 428 l 1
 155 453 196 465 241 465 c 0
 286 465 327 454 359 428 c 1
 405 470 l 2
 407 472 410 473 413 473 c 0
 425 473 443 457 443 443 c 0
 443 439 442 436 439 433 c 2
 398 388 l 1
 423 355 433 314 433 270 c 0
 433 226 423 185 398 152 c 1
 441 105 l 2
 443 103 444 101 444 98 c 0
 444 85 426 67 413 67 c 0
 410 67 407 68 405 70 c 2
 359 112 l 1
 327 86 286 75 241 75 c 0
 196 75 155 86 123 112 c 1
 76 70 l 2
 74 68 71 67 68 67 c 0
 55 67 38 84 38 97 c 0
 38 100 39 103 41 105 c 2
 84 152 l 1
 59 185 49 226 49 270 c 0
 49 314 59 355 84 387 c 1
 41 434 l 2
241 405 m 0
 162 405 109 349 109 270 c 0
 109 191 162 135 241 135 c 0
 320 135 373 191 373 270 c 0
 373 349 320 405 241 405 c 0
EndSplineSet
Validated: 1
EndChar

StartChar: section
Encoding: 100 167 98
Width: 333
Flags: MW
LayerCount: 2
Fore
SplineSet
266 570 m 0
 294 570 323 551 323 517 c 0
 323 503 310 485 280 485 c 0
 266 485 253 495 235 511 c 0
 227 518 213 520 201 520 c 0
 170 520 148 488 148 457 c 0
 148 400 311 280 311 155 c 0
 311 30 214 -148 88 -148 c 0
 53 -148 22 -127 22 -93 c 0
 22 -79 34 -68 60 -68 c 0
 84 -68 102 -102 132 -102 c 0
 162 -102 181 -70 181 -35 c 0
 181 6 22 142 22 260 c 0
 22 384 108 570 266 570 c 0
79 317 m 0
 79 236 244 28 249 28 c 0
 257 28 263 71 263 89 c 0
 263 154 98 370 93 370 c 0
 80 370 79 329 79 317 c 0
EndSplineSet
Validated: 1
Substitution2: "sups subtable" section.sups
Substitution2: "sinf subtable" section.sinf
Substitution2: "ordn subtable" section.ordn
Substitution2: "subs subtable" section.subs
EndChar

StartChar: dieresis
Encoding: 101 168 99
Width: 326
Flags: MW
LayerCount: 2
Fore
SplineSet
249 654 m 0
 278 654 301 630 301 601 c 0
 301 572 278 548 249 548 c 0
 220 548 195 572 195 601 c 0
 195 630 220 654 249 654 c 0
77 654 m 0
 106 654 131 630 131 601 c 0
 131 572 106 548 77 548 c 0
 48 548 25 572 25 601 c 0
 25 630 48 654 77 654 c 0
EndSplineSet
Validated: 1
EndChar

StartChar: copyright
Encoding: 102 169 100
Width: 677
Flags: MW
LayerCount: 2
Fore
SplineSet
380 569 m 0
 221 569 75 459 75 300 c 0
 75 141 221 30 380 30 c 0
 522 30 624 158 624 300 c 0
 624 442 522 569 380 569 c 0
380 604 m 0
 541 604 659 461 659 300 c 0
 659 139 541 -5 380 -5 c 0
 202 -5 40 122 40 300 c 0
 40 478 202 604 380 604 c 0
383 499 m 0
 427 499 468 482 495 469 c 0
 515 460 525 442 525 391 c 0
 525 374 518 363 507 363 c 0
 492 363 477 386 471 406 c 0
 464 429 415 457 371 457 c 0
 297 457 239 396 239 322 c 0
 239 234 292 146 380 146 c 0
 431 146 464 177 492 219 c 0
 496 225 514 254 520 254 c 0
 529 254 531 244 531 226 c 0
 531 218 524 186 515 167 c 0
 510 156 493 141 469 129 c 0
 450 120 405 104 364 104 c 0
 251 104 149 186 149 299 c 0
 149 419 263 499 383 499 c 0
EndSplineSet
Validated: 1
EndChar

StartChar: macron
Encoding: 104 175 102
Width: 473
Flags: MW
LayerCount: 2
Fore
SplineSet
77 625 m 1
 107 631 l 2
 117 633 123 634 127 633 c 1
 136 636 144 639 151 640 c 2
 219 653 l 2
 225 654 244 652 277 646 c 1
 362 655 405 658 405 654 c 1
 419 651 427 642 429 627 c 1
 430 625 l 1
 433 604 419 589 389 578 c 1
 374 575 l 1
 338 582 310 584 289 580 c 0
 264 575 230 574 186 577 c 1
 106 563 64 561 62 573 c 1
 58 572 55 578 51 591 c 1
 49 606 58 617 77 625 c 1
EndSplineSet
Validated: 33
EndChar

StartChar: degree
Encoding: 105 176 103
Width: 357
Flags: MW
LayerCount: 2
Fore
SplineSet
178 620 m 0
 251 620 323 575 323 502 c 0
 323 419 261 347 178 347 c 0
 100 347 41 413 41 491 c 0
 41 564 105 620 178 620 c 0
98 483 m 0
 98 436 136 399 183 399 c 0
 232 399 268 443 268 492 c 0
 268 538 224 567 178 567 c 0
 133 567 98 528 98 483 c 0
EndSplineSet
Validated: 1
EndChar

StartChar: plusminus
Encoding: 106 177 104
Width: 424
Flags: MW
LayerCount: 2
Fore
SplineSet
95 0 m 2
 74 0 42 5 42 30 c 0
 42 48 63 66 95 66 c 2
 380 66 l 2
 405 66 422 53 422 38 c 0
 422 23 409 1 379 1 c 2
 95 0 l 2
200 277 m 1
 95 277 l 2
 74 277 42 282 42 307 c 0
 42 325 63 343 95 343 c 2
 200 343 l 1
 200 448 l 2
 200 484 217 501 232 501 c 0
 247 501 265 491 265 459 c 2
 265 343 l 1
 380 343 l 2
 405 343 422 330 422 315 c 0
 422 300 409 278 379 278 c 2
 265 278 l 1
 265 161 l 2
 265 142 258 121 233 121 c 0
 208 121 200 137 200 159 c 2
 200 277 l 1
EndSplineSet
Validated: 1
EndChar

StartChar: uni00B2
Encoding: 107 178 105
Width: 278
Flags: MW
LayerCount: 2
Fore
SplineSet
246 678 m 1
 238 668 230 672 233 683 c 0
 239 703 303 770 368 770 c 0
 415 770 440 728 424 677 c 0
 414 643 391 623 368 598 c 0
 337 565 255 506 246 498 c 0
 241 494 251 492 255 492 c 2
 272 492 l 1
 319 492 l 2
 347 492 380 512 403 542 c 0
 406 547 415 551 420 550 c 0
 424 550 422 544 420 541 c 0
 397 505 382 481 367 450 c 0
 362 439 357 437 354 437 c 2
 352 437 l 1
 305 440 305 440 274 440 c 0
 229 440 207 440 159 438 c 0
 154 437 155 447 164 454 c 2
 213 494 l 2
 233 510 344 588 364 651 c 0
 377 689 360 716 331 716 c 0
 298 716 281 708 246 678 c 1
EndSplineSet
Validated: 33
EndChar

StartChar: mu
Encoding: 110 181 107
Width: 587
Flags: MW
LayerCount: 2
Fore
SplineSet
397 90 m 0
 396 96 386 117 383 112 c 0
 347 38 291 -14 241 -14 c 0
 193 -14 155 4 129 36 c 0
 121 45 110 66 105 60 c 0
 83 32 53 -20 53 -80 c 0
 53 -158 77 -186 83 -250 c 0
 85 -269 70 -286 51 -286 c 0
 22 -286 -3 -269 -3 -236 c 0
 -3 -116 21 -12 59 66 c 0
 72 93 85 113 85 132 c 0
 85 216 105 289 116 330 c 0
 127 370 140 416 183 416 c 0
 212 416 220 382 218 354 c 0
 215 312 143 184 143 130 c 0
 143 93 154 50 191 48 c 0
 253 45 294 72 333 120 c 0
 389 189 395 254 421 330 c 0
 434 369 463 414 487 414 c 0
 510 414 517 387 517 364 c 0
 517 328 479 270 441 212 c 0
 431 197 427 181 427 166 c 0
 427 123 449 62 492 62 c 0
 523 62 548 80 566 106 c 0
 572 115 574 115 585 115 c 0
 592 115 592 83 587 74 c 0
 563 30 529 -12 477 -12 c 0
 424 -12 407 42 397 90 c 0
EndSplineSet
Validated: 545
EndChar

StartChar: paragraph
Encoding: 111 182 108
Width: 669
Flags: MW
LayerCount: 2
Fore
SplineSet
468 672 m 0
 570 672 682 660 727 650 c 0
 754 644 786 637 786 616 c 0
 786 596 763 591 729 591 c 0
 711 591 677 600 649 600 c 0
 613 600 614.771 599.065 603 558 c 2
 429 -49 l 2
 401.161 -146.087 336.049 -218 236 -218 c 0
 191 -218 164 -187 164 -142 c 0
 164 -108 192 -68 226 -68 c 0
 241 -68 250 -79 250 -92 c 0
 250 -105 236 -113 236 -129 c 0
 236 -145 250 -160 278 -160 c 0
 321 -160 340.667 -114.986 355 -65 c 2
 401 95 l 2
 407 114 398 119 380 119 c 0
 360 119 284 102 241 102 c 0
 106 102 11 225 11 360 c 0
 11 576 255 672 468 672 c 0
334 226 m 0
 334 198 362 184 388 184 c 0
 407 184 413 191 422 223 c 2
 522 568 l 2
 532 604 527 608 502 608 c 0
 468 608 439 590 426 560 c 0
 406 515 334 261 334 226 c 0
EndSplineSet
Validated: 33
Substitution2: "sups subtable" paragraph.sups
Substitution2: "sinf subtable" paragraph.sinf
Substitution2: "ordn subtable" paragraph.ordn
Substitution2: "subs subtable" paragraph.subs
EndChar

StartChar: questiondown
Encoding: 115 191 111
Width: 341
Flags: MW
LayerCount: 2
Fore
SplineSet
158 -167 m 0
 83 -167 28 -99 28 -24 c 0
 28 22 81 88 174 132 c 0
 210 149 242 168 242 203 c 0
 242 226 214 239 214 259 c 0
 214 277 228 287 244 287 c 0
 267 287 320 251 320 208 c 0
 320 130 252 84 176 48 c 0
 134 29 100 -9 100 -57 c 0
 100 -92 136 -110 170 -110 c 0
 191 -110 217 -86 231 -86 c 0
 256 -86 269 -100 269 -120 c 0
 269 -140 206 -167 158 -167 c 0
301 377 m 0
 272 377 247 399 247 428 c 0
 247 458 271 481 301 481 c 0
 331 481 355 458 355 428 c 0
 355 399 330 377 301 377 c 0
EndSplineSet
Validated: 1
EndChar

StartChar: AE
Encoding: 122 198 118
Width: 903
Flags: MW
AnchorPoint: "top_accent" 638 650 basechar 0
LayerCount: 2
Fore
SplineSet
482 569 m 0
 473.03 570.56 466 579 466 588 c 0
 466 600 486 604 501 604 c 0
 540 604 598 599 634 599 c 2
 790 599 l 2
 826 599 847 606 880 606 c 0
 900 606 906 600 906 580 c 0
 906 567 890.141 522.455 886 507 c 0
 880.306 485.75 873 477 860 477 c 0
 848 477 848.002 485.197 845 508 c 0
 839.388 550.632 823 559 800 559 c 2
 692 559 l 2
 676 559 664.273 552.247 650 495 c 2
 620 375 l 2
 613.179 347.844 612.978 338 635 338 c 2
 731 338 l 2
 768 338 793 380 805 380 c 0
 817 380 818.604 364.565 814 345 c 0
 806 311 796 242 782 242 c 0
 767 242 763 249 756 269 c 0
 750.776 283.924 739 290 714 290 c 2
 632 290 l 2
 603 290 595 272 591 257 c 2
 560 133 l 2
 545 71 567 42 602 42 c 2
 718 42 l 2
 750 42 778 59 796 74 c 0
 816 90 837 123 858 123 c 0
 870 123 871 119 871 105 c 0
 871 80 846 37 820 8 c 0
 812 -1 795 -5 781 -5 c 0
 667 -5 528 2 490 2 c 0
 443 2 402 -2 387 -2 c 0
 371 -2 354 5 354 15 c 0
 354 30 386 34 409 44 c 0
 442 59 453.791 88.0535 464 129 c 2
 482 201 l 2
 484.903 212.644 478 216 464 216 c 10
 330 216 l 18
 320 216 313.856 212.07 306 203 c 2
 229 120 l 2
 202.961 91.9316 202 53 225 45 c 0
 252 35 273 30 273 15 c 0
 273 5 258 -2 242 -2 c 0
 230 -2 167 4 119 4 c 0
 72 4 45 -2 30 -2 c 0
 14 -2 -3 5 -3 15 c 0
 -3 30 29 34 52 44 c 0
 85 59 121.892 72.999 176 132 c 2
 552 542 l 2
 569 560 528 561 482 569 c 0
501 280 m 2
 546 460 l 2
 550.596 478.436 539.242 466.752 528 454 c 2
 379 285 l 2
 371.248 275.838 371 266 379 266 c 10
 487 266 l 18
 497 266 498.417 272.431 501 280 c 2
EndSplineSet
Validated: 33
EndChar

StartChar: Eth
Encoding: 132 208 128
Width: 706
Flags: MW
LayerCount: 2
Fore
SplineSet
222 495 m 2
 232.734 538.701 222.985 554.388 171 569 c 0
 162.336 571.436 155 577 155 586 c 0
 155 598 175 604 190 604 c 0
 209 604 245 599 264 599 c 0
 334.697 599 382.74 609 445 609 c 0
 602 609 732 495 732 339 c 0
 732 124 506.75 -6 291 -6 c 0
 210.5 -6 191 4 143 4 c 0
 96 4 69 -2 54 -2 c 0
 38 -2 21 5 21 15 c 0
 21 30 53.2324 33.6729 76 44 c 0
 108.784 58.8721 120.866 88.2412 131 129 c 2
 222 495 l 2
314 481 m 2
 226 129 l 2
 217.775 96.0099 225 47 313 47 c 0
 473 47 627 155 627 322 c 0
 627 473 551 564 388 564 c 0
 346 564 327.693 536.331 314 481 c 2
EndSplineSet
Validated: 33
EndChar

StartChar: multiply
Encoding: 139 215 135
Width: 376
Flags: MW
LayerCount: 2
Fore
SplineSet
331 93 m 0
 331 78 312 61 299 61 c 0
 289 61 280 67 271 76 c 2
 188 159 l 1
 113 85 l 2
 102 74 87 61 72 61 c 0
 57 61 47 73 47 89 c 0
 47 102 53 117 67 131 c 2
 141 206 l 1
 67 280 l 2
 52 295 45 310 45 322 c 0
 45 338 59 350 74 350 c 0
 83 350 93 346 105 334 c 2
 187 252 l 1
 268 333 l 2
 279 344 291 349 301 349 c 0
 319 349 327 335 327 318 c 0
 327 308 323 296 313 286 c 2
 233 206 l 1
 316 123 l 2
 324 115 331 104 331 93 c 0
EndSplineSet
Validated: 1
EndChar

StartChar: Oslash
Encoding: 140 216 136
Width: 585
Flags: MW
AnchorPoint: "cedilla" 412 8 basechar 0
AnchorPoint: "top_accent" 404 660 basechar 0
LayerCount: 2
Fore
SplineSet
495.953 588.511 m 1
 507 603 l 2
 533 637 539 650 564 650 c 0
 581 650 587 636 576 622 c 2
 528.781 560.007 l 1
 565.568 519.998 587 463.898 587 404 c 0
 587 185 435 -20 243 -20 c 0
 195.892 -20 153.254 -4.69468 118.177 20.9312 c 1
 87 -20 l 2
 75 -36 68 -48 51 -48 c 0
 32 -48 35 -16 48 1 c 2
 85.4502 50.1178 l 1
 44.5281 94.3092 20 154.976 20 219 c 0
 20 435 198 620 393 620 c 0
 432.023 620 466.9 608.371 495.953 588.511 c 1
130.44 109.124 m 1
 454.274 533.847 l 1
 437.267 557.721 412.672 573 378 573 c 0
 233 573 119 371 119 169 c 0
 119 149.62 122.943 128.773 130.44 109.124 c 1
153.613 67.4547 m 1
 173.156 42.3965 200.425 25 234 25 c 0
 386 25 488 214 488 393 c 0
 488 425.989 484.469 460.155 475.261 489.741 c 1
 153.613 67.4547 l 1
EndSplineSet
Validated: 33
EndChar

StartChar: Thorn
Encoding: 146 222 142
Width: 516
Flags: MW
AnchorPoint: "top_accent" 311 650 basechar 0
LayerCount: 2
Fore
SplineSet
173 604 m 0
 212 604 248 599 284 599 c 0
 319 599 332 604 366 604 c 0
 381 604 401 598 401 586 c 0
 401 577 395 571 386 569 c 0
 329 553 311.923828125 544.018554688 300 495 c 10
 291 458 l 26
 285.420898438 435.061523438 307 450 351 450 c 0
 440 450 502 377 502 287 c 0
 502 180 397 104 314 104 c 0
 302 104 283 110 283 123 c 0
 283 132 298.9765625 140.106445312 322 144 c 0
 373.272460938 152.671875 410 203 410 283 c 0
 410 346 369 404 304 404 c 0
 283 404 272 385 262 343 c 2
 209 129 l 2
 193.12109375 64.8837890625 206 53.400390625 232 45 c 0
 259.3984375 36.1484375 280 30 280 15 c 0
 280 5 265 -2 249 -2 c 0
 237 -2 174 4 126 4 c 0
 79 4 52 -2 37 -2 c 0
 21 -2 4 5 4 15 c 0
 4 30 36 34 59 44 c 0
 92 59 104 88 114 129 c 2
 205 495 l 2
 216 539 206 554 154 569 c 0
 145 571 138 577 138 586 c 0
 138 598 157 604 173 604 c 0
EndSplineSet
EndChar

StartChar: germandbls
Encoding: 147 223 143
Width: 510
Flags: MW
LayerCount: 2
Fore
SplineSet
284 300 m 0
 284 354.76953125 310.771484375 399 361 428 c 0
 418.158203125 461 472 493 472 554 c 0
 472 598 446 627 385 627 c 0
 297 627 238.967773438 485.3828125 199 346 c 0
 157.403320312 200.935546875 137.78125 112.032226562 121 -33 c 0
 107.552734375 -149.224609375 3 -258 -97 -258 c 0
 -137 -258 -163 -237 -163 -207 c 0
 -163 -180 -145 -156 -115 -156 c 0
 -101 -156 -93 -191 -47 -191 c 0
 1 -191 25.7587890625 -142.58203125 33 -80 c 0
 55.2509765625 112.306640625 84.7080078125 224.577148438 134 406 c 0
 169.436523438 536.431640625 252 680 404 680 c 0
 482 680 555 629 555 552 c 0
 555 499 524.532226562 464.052734375 475 442 c 0
 411.96484375 413.934570312 353 383 353 343 c 0
 353 317 390.642578125 255.49609375 423 196 c 0
 440 165 447 148 447 123 c 0
 447 40 354 -14 285 -14 c 0
 245 -14 214 15 214 54 c 0
 214 70 229 84 247 84 c 0
 257 84 291 44 337 44 c 0
 361 44 375 67 375 91 c 0
 375 114 344.413085938 176.42578125 296 257 c 0
 290.849609375 265.571289062 284 282 284 300 c 0
EndSplineSet
EndChar

StartChar: ae
Encoding: 154 230 150
Width: 529
Flags: MW
AnchorPoint: "top_accent" 400 570 basechar 0
LayerCount: 2
Fore
SplineSet
86 -14 m 0
 45 -14 14 5 14 43 c 0
 14 150 147 308 226 333 c 0
 253 342 270 355 312 389 c 0
 333 406 392 431 414 431 c 0
 464 431 489 398 489 359 c 0
 489 295 415 222 334 193 c 0
 319 188 316 179 316 153 c 0
 316 106 330 64 373 64 c 0
 402 64 414 79 435 104 c 0
 438 108 444 120 454 120 c 0
 466 120 468 108 468 90 c 0
 468 47 426 -12 327 -12 c 0
 278 -12 253 35 236 81 c 0
 234 88 227 79 218 68 c 0
 184 27 144 -14 86 -14 c 0
109 86 m 0
 109 72 114 58 127 58 c 0
 190 58 237 185 237 263 c 0
 237 272 235 280 222 280 c 0
 182 280 109 161 109 86 c 0
312 266 m 0
 312 249 319 248 330 248 c 0
 352 248 410 284 410 361 c 0
 410 373 408 382 394 382 c 0
 368 382 312 342 312 266 c 0
EndSplineSet
Ligature2: "LATliga subtable" a e
LCarets2: 1 0
EndChar

StartChar: eth
Encoding: 164 240 160
Width: 416
Flags: MW
LayerCount: 2
Fore
SplineSet
135 491 m 16
 135 532 219 578 272 578 c 0
 361 578 409 549 497 549 c 0
 523 549 544 577 558 577 c 0
 571 577 582 562 582 552 c 0
 582 543 545 498 500 498 c 0
 406.35 498 360.527 514 271 514 c 0
 236.77 514 217.92 501.306 201 472 c 8
 193.79 459.512 184 444 169 444 c 0
 153 444 135 468 135 491 c 16
333 353 m 0
 333 370 320 384 302 384 c 0
 233 384 106 220 106 90 c 0
 106 68 120 56 141 56 c 256
 241 56 333 245 333 353 c 0
359 422 m 2
 393 558 l 2
 399 583 402 593 402 604 c 0
 402 612 332 626 332 641 c 0
 332 656 431 682 463 682 c 0
 485 682 487 670 487 657 c 0
 487 635 481 609 472 572 c 2
 349 79 l 2
 346 66 348 62 357 62 c 0
 393 62 424 110 439 110 c 0
 445 110 446 103 446 97 c 0
 446 62 366 -14 306 -14 c 0
 273 -14 257 31 270 66 c 0
 274 75 269 84 261 74 c 0
 231 35 156 -14 102 -14 c 0
 50 -14 20 45 20 97 c 0
 20 261 193 430 300 430 c 0
 316 430 331 426 340 420 c 0
 349 415 357 412 359 422 c 2
EndSplineSet
Validated: 37
EndChar

StartChar: divide
Encoding: 171 247 167
Width: 469
Flags: MW
LayerCount: 2
Fore
SplineSet
95 167 m 2
 74 167 42 172 42 197 c 0
 42 215 63 233 95 233 c 2
 380 233 l 2
 405 233 422 220 422 205 c 0
 422 190 409 168 379 168 c 2
 95 167 l 2
242 116 m 0
 274 116 296 86 296 54 c 0
 296 19 264 -5 229 -5 c 0
 198 -5 173 20 173 51 c 0
 173 88 205 116 242 116 c 0
242 405 m 0
 274 405 296 375 296 343 c 0
 296 308 264 284 229 284 c 0
 198 284 173 309 173 340 c 0
 173 377 205 405 242 405 c 0
EndSplineSet
Validated: 1
EndChar

StartChar: oslash
Encoding: 172 248 168
Width: 368
Flags: MW
AnchorPoint: "top_accent" 280 570 basechar 0
LayerCount: 2
Fore
SplineSet
297.173 414.051 m 1
 316.914 444.54 328.555 459 347 459 c 0
 361 459 366 440 357 425 c 2
 330.155 383.061 l 1
 347.924 358.749 358 327.411 358 295 c 0
 358 152 267 -14 155 -14 c 0
 130.374 -14 108.555 -5.45991 90.504 8.65926 c 1
 76 -14 l 2
 65.082 -31.0566 57 -42 40 -42 c 0
 21 -42 25.3496 -11.2295 37 7 c 2
 60.0027 42.9924 l 1
 43.9818 68.5222 35 99.8547 35 131 c 0
 35 271 134 430 241 430 c 0
 262.013 430 280.954 424.143 297.173 414.051 c 1
268.849 369.776 m 1
 263.581 378.498 255.439 384 243 384 c 0
 178.654 384 123.005 248.336 115.79 130.284 c 1
 268.849 369.776 l 1
122.431 58.5384 m 1
 128.658 43.0616 139.425 32 157 32 c 0
 216.763 32 272.026 181.379 277.548 300.874 c 1
 122.431 58.5384 l 1
EndSplineSet
Validated: 33
EndChar

StartChar: thorn
Encoding: 178 254 174
Width: 450
Flags: MW
AnchorPoint: "top_accent" 316 570 basechar 0
LayerCount: 2
Fore
SplineSet
207 341 m 2
 146 96 l 2
 138 64 162 38 196 38 c 0
 261 38 353 216 353 327 c 0
 353 354 335 380 309 380 c 0
 248 380 214 367 207 341 c 2
247 418 m 0
 274 425 299 430 326 430 c 0
 416 430 435 380 435 322 c 0
 435 182 279 -11 171 -11 c 0
 165 -11 137 0 132 0 c 0
 127 0 121 -1 117 -17 c 2
 75 -186 l 2
 69 -208 95 -225 120 -231 c 0
 134 -234 146 -241 146 -251 c 0
 146 -265 130 -269 115 -269 c 0
 102 -269 16 -262 -43 -262 c 0
 -59 -262 -70 -257 -70 -245 c 0
 -70 -231 -55 -225 -43 -223 c 0
 -10 -216 -6 -207 1 -181 c 2
 126 318 l 2
 128.922851562 329.637695312 128.0703125 336.828125 116 332 c 0
 89.2685546875 321.307617188 69 314 66 314 c 0
 56 314 54 316 54 326 c 0
 54 357 113 381 134 391 c 0
 144 395 146 403 149 414 c 2
 186 559 l 2
 192 584 194 593 194 604 c 0
 194 612 124 626 124 641 c 0
 124 656 223 682 255 682 c 0
 277 682 281 670 281 657 c 0
 281 635 274 609 265 573 c 2
 234 448 l 2
 223 405 229 413 247 418 c 0
EndSplineSet
EndChar

StartChar: dotlessi
Encoding: 229 305 176
Width: 265
Flags: MW
AnchorPoint: "top_accent" 189 570 basechar 0
LayerCount: 2
Fore
SplineSet
196 430 m 4
 210 430 212 418 212 405 c 4
 212 383 205.600585938 357.088867188 197 320 c 6
 137 79 l 6
 134.096679688 67.3564453125 136 62 145 62 c 4
 181 62 212 110 227 110 c 4
 233 110 234 103 234 97 c 4
 234 62 154 -14 94 -14 c 4
 61 -14 50 5 50 27 c 4
 50 39 54 50 56 58 c 6
 118 306 l 6
 120.177734375 314.732421875 127 333 116 333 c 4
 95 333 67 304 61 304 c 4
 52 304 49 315 49 325 c 4
 49 346 164 430 196 430 c 4
EndSplineSet
EndChar

StartChar: endash
Encoding: 1052 8211 186
Width: 509
Flags: MW
LayerCount: 2
Fore
SplineSet
141 239 m 2
 525 239 l 2
 532 239 537 232 533 225 c 0
 522 206 511 185 492 185 c 2
 115 185 l 2
 108 185 104 191 106 197 c 0
 109 206 123 239 141 239 c 2
EndSplineSet
Validated: 1
Substitution2: "'case' Case-Sensitive Forms lookup 6 subtable" endash.cap
EndChar

StartChar: emdash
Encoding: 1053 8212 187
Width: 881
Flags: MW
LayerCount: 2
Fore
SplineSet
141 239 m 2
 897 239 l 2
 904 239 909 232 905 225 c 0
 894 206 883 185 864 185 c 2
 115 185 l 2
 108 185 104 191 106 197 c 0
 109 206 123 239 141 239 c 2
EndSplineSet
Validated: 1
Substitution2: "'case' Case-Sensitive Forms lookup 6 subtable" emdash.cap
EndChar

StartChar: quoteleft
Encoding: 1056 8216 188
Width: 268
Flags: MW
LayerCount: 2
Fore
SplineSet
283 470 m 0
 283 446 255 430 220 430 c 0
 172 430 143 469 143 517 c 0
 143 620 253 691 314 691 c 0
 324 691 337 689 337 679 c 0
 337 669 331 667 312 657 c 0
 261 630 237 611 237 555 c 0
 237 517 283 506 283 470 c 0
EndSplineSet
Validated: 1
EndChar

StartChar: quoteright
Encoding: 1057 8217 189
Width: 251
Flags: MW
LayerCount: 2
Fore
SplineSet
185 651 m 0
 185 675 213 691 248 691 c 0
 295.98 691 325 651.984 325 604 c 0
 325 500.556 215 430 154 430 c 0
 144 430 131 432 131 442 c 0
 131 452 137.476 454.109 156 464 c 0
 207.163 491.318 231 510 231 566 c 0
 231 604 185 615 185 651 c 0
EndSplineSet
Validated: 1
EndChar

StartChar: quotesinglbase
Encoding: 1058 8218 190
Width: 259
Flags: MW
LayerCount: 2
Fore
SplineSet
54 97 m 0
 54 121 82 137 117 137 c 0
 164.98 137 194 97.9844 194 50 c 0
 194 -53.4443 84 -124 23 -124 c 0
 13 -124 0 -122 0 -112 c 0
 0 -102 6.47559 -99.8906 25 -90 c 0
 76.1631 -62.6816 100 -44 100 12 c 0
 100 50 54 61 54 97 c 0
EndSplineSet
Validated: 1
EndChar

StartChar: ellipsis
Encoding: 1064 8230 194
Width: 736
Flags: MW
LayerCount: 2
Fore
SplineSet
120 138 m 0
 143 138 163 121 182 88 c 1
 185 78 187 70 187 65 c 2
 187 58 l 2
 187 32 166 13 123 -0 c 1
 115 -0 l 2
 96 0 74 14 51 42 c 1
 49 50 48 54 48 56 c 2
 48 71 l 2
 48 90 63 109 92 129 c 1
 102 135 112 138 120 138 c 0
364 138 m 0
 387 138 407 121 426 88 c 1
 429 78 431 70 431 65 c 2
 431 58 l 2
 431 32 410 13 367 -0 c 1
 359 -0 l 2
 340 0 318 14 295 42 c 1
 293 50 292 54 292 56 c 2
 292 71 l 2
 292 90 307 109 336 129 c 1
 346 135 356 138 364 138 c 0
623 138 m 0
 646 138 666 121 685 88 c 1
 688 78 689 70 689 65 c 2
 689 58 l 2
 689 32 668 13 625 -0 c 1
 618 -0 l 2
 599 0 577 14 554 42 c 1
 552 50 551 54 551 56 c 2
 551 71 l 2
 551 90 566 109 595 129 c 1
 605 135 615 138 623 138 c 0
EndSplineSet
Validated: 1
EndChar

StartChar: Euro
Encoding: 1069 8364 195
Width: 524
VWidth: 0
Flags: MW
LayerCount: 2
Fore
SplineSet
66 236 m 2
 45 236.136 13 234 13 251 c 0
 13 269 34.0088 286.383 66 287 c 2
 377 293 l 2
 401.993 293.581 419 292 419 277 c 0
 419 262 406 234 376 234 c 2
 66 236 l 2
117 349 m 2
 96 349.136 64 347 64 364 c 0
 64 382 85.0088 399.383 117 400 c 2
 428 406 l 2
 452.993 406.581 470 405 470 390 c 0
 470 375 457 347 427 347 c 2
 117 349 l 2
457 630 m 0
 484 630 517.517 620.332 556 599 c 0
 575.241 588.334 591 564 591 542 c 0
 591 524 574 476 541 476 c 0
 526 476 518.934 487.928 509 525 c 0
 501.235 553.979 472.34 589 442 589 c 0
 317 589 184 365 184 204 c 0
 184 135 216 44 285 44 c 0
 340 44 373 75 390 75 c 0
 407 75 414 67 414 49 c 0
 414 23 332 -20 268 -20 c 0
 171 -20 85 68 85 169 c 0
 85 399 253 630 457 630 c 0
EndSplineSet
EndChar

StartChar: hyphen
Encoding: 13 45 197
Width: 386
Flags: MW
LayerCount: 2
Fore
SplineSet
320 271 m 2
 334 272 351 266 351 243 c 0
 351 220 341 195 318 194 c 2
 99 176 l 2
 65 173 45 175 45 195 c 0
 45 214 56 249 82 252 c 2
 320 271 l 2
EndSplineSet
Validated: 33
Substitution2: "sups subtable" hyphen.sups
Substitution2: "sinf subtable" hyphen.sinf
Substitution2: "ordn subtable" hyphen.ordn
Substitution2: "subs subtable" hyphen.subs
Substitution2: "'case' Case-Sensitive Forms lookup 6 subtable" hyphen.cap
EndChar

StartChar: semicolon
Encoding: 27 59 198
Width: 263
Flags: MW
LayerCount: 2
Fore
SplineSet
45 93 m 4
 45 117 70 137 105 137 c 4
 153 137 173 98 173 50 c 4
 173 -53 60 -125 -1 -125 c 4
 -11 -125 -24 -123 -24 -113 c 4
 -24 -103 -18 -99 1 -89 c 4
 52 -62 87 -44 87 12 c 4
 87 50 45 57 45 93 c 4
163 400 m 4
 196 400 223 372 223 339 c 4
 223 303 194 274 158 274 c 4
 126 274 97 298 97 330 c 4
 97 368 125 400 163 400 c 4
EndSplineSet
Validated: 1
Substitution2: "sups subtable" semicolon.sups
Substitution2: "sinf subtable" semicolon.sinf
Substitution2: "ordn subtable" semicolon.ordn
Substitution2: "subs subtable" semicolon.subs
EndChar

StartChar: uniF761
Encoding: 1136 63329 200
Width: 532
Flags: MW
LayerCount: 2
Fore
SplineSet
489 48 m 0
 511 39 519 30 519 15 c 0
 519 5 498 -1 487 -2 c 0
 480 -2 455 4 407 4 c 0
 360 4 335 -2 328 -2 c 0
 317 -1 295 5 295 15 c 0
 295 30 306 37 331 46 c 0
 339 49 355 67 352 80 c 2
 336 133 l 1
 333 148 323 158 307 158 c 2
 210 158 l 2
 194 158 186.66 150.258 182 136 c 2
 167 90 l 2
 159 66 163 52 179 47 c 0
 204 39 222 30 222 15 c 0
 222 5 201 -1 190 -2 c 0
 183 -2 156 4 108 4 c 0
 61 4 32 -2 25 -2 c 0
 14 -1 -8 5 -8 15 c 0
 -8 30 24 45 47 52 c 0
 74 61 86 73 94 92 c 2
 225 396 l 2
 228.827 404.871 231.299 415.016 237.5 420.5 c 0
 266.895 446.5 293 475 304 475 c 0
 310 475 324 463 332 436 c 2
 434 100 l 2
 438 87 459 61 489 48 c 0
207 214 m 2
 202 203 206 202 221 202 c 2
 298 202 l 2
 312 202 309 205 304 218 c 1
 271 327 l 2
 267 338 260.121 337.949 255 326 c 2
 207 214 l 2
EndSplineSet
Validated: 33
EndChar

StartChar: uniF762
Encoding: 1137 63330 201
Width: 457
Flags: MW
LayerCount: 2
Fore
SplineSet
156 4 m 0
 109 4 70 -2 63 -2 c 0
 52 -1 30 5 30 15 c 0
 30 30 63 39 85 49 c 0
 119 64 116 92 116 129 c 2
 116 344 l 2
 116 401 107 398 50 414 c 0
 41 417 34 426 34 435 c 0
 34 447 54 453 69 453 c 0
 108 453 160 461 202 461 c 0
 301 461 404 446 404 355 c 0
 404 306 367.934 275.576 321 263 c 0
 311.341 260.412 314.135 252.721 325 251 c 0
 382.286 241.927 427 193 427 137 c 0
 427 57 342 -2 262 -2 c 0
 233 -2 204 4 156 4 c 0
202 354 m 2
 202 296 l 2
 202 284 204 267 225 267 c 0
 274 267 319 279 319 350 c 0
 319 383.26 277 404 239 404 c 0
 215 404 202 401 202 354 c 2
202 201 m 2
 202 115 l 2
 202 78 226 54 263 54 c 0
 302 54 328 90 328 139 c 0
 328 202 286 221 232 221 c 0
 213 221 202 215 202 201 c 2
EndSplineSet
Validated: 33
EndChar

StartChar: uniF763
Encoding: 1138 63331 202
Width: 511
Flags: MW
LayerCount: 2
Fore
SplineSet
311 470 m 4
 356 470 406.323 457.762 419 448 c 4
 454.083 420.983 471 407 471 392 c 4
 471 357.47 451 318 441 318 c 4
 424 318 424.016 335.01 401 371 c 4
 379.449 404.698 342 420 300 420 c 4
 206 420 150 323 150 227 c 4
 150 134 201 37 292 37 c 4
 335 37 379.728 75.1937 396 90 c 4
 413.751 106.152 431 144 442 144 c 4
 453.7 144 458 136 458 120 c 4
 458 84 453.096 43.321 424 30 c 4
 385.812 12.5162 331 -10 271 -10 c 4
 146 -10 48 96 48 219 c 4
 48 358 171 470 311 470 c 4
EndSplineSet
Validated: 1
EndChar

StartChar: uniF764
Encoding: 1139 63332 203
Width: 579
Flags: MW
LayerCount: 2
Fore
SplineSet
156 4 m 0
 108.99 4 70 -2 63 -2 c 0
 52 -1 30 5 30 15 c 0
 30 30 63 39 85 49 c 0
 119 64 116 92 116 129 c 2
 116 344 l 2
 116 401 107 398 50 414 c 0
 41 417 34 426 34 435 c 0
 34 447 54 453 69 453 c 0
 129.958 453 192 463 270 463 c 0
 400 463 547 401 547 271 c 0
 547 116 434 0 287 0 c 0
 257 0 180 4 156 4 c 0
202 348 m 2
 202 122.5 l 2
 202 81.5 234 48 299 48 c 0
 400 48 447 146 447 242 c 0
 447 338 369 410 277 410 c 0
 216 410 202 396 202 348 c 2
EndSplineSet
Validated: 33
EndChar

StartChar: uniF765
Encoding: 1140 63333 204
Width: 443
Flags: MW
LayerCount: 2
Fore
SplineSet
156 4 m 0
 131 4 83 -2 63 -2 c 0
 51 -2 30 5 30 15 c 0
 30 30 63 39 85 49 c 0
 119 64 116 92 116 129 c 2
 116 344 l 2
 116 401 107 398 50 414 c 0
 41 417 34 426 34 435 c 0
 34 447 54 453 69 453 c 0
 108 453 124 449 160 449 c 0
 195 449 308 453 350 453 c 0
 366 453 365 454 371 434 c 0
 374 425 377 395 377 385 c 0
 377 374 373 354 360 354 c 0
 347 354 336 364 327 388 c 0
 324 396 311 406 296 406 c 2
 226 406 l 2
 204 406 202 401 202 382 c 2
 202 296 l 2
 202 276 203 256 218 256 c 2
 268 256 l 2
 312 256 312 296 332 296 c 0
 342 296 344 275 344 229 c 0
 344 184 344 161 330 161 c 0
 311 161 312 205 266 205 c 2
 220 205 l 2
 207 205 202 208 202 172 c 2
 202 104 l 2
 202 81 212 61 237 61 c 2
 321 61 l 2
 341 61 352 92 362 116 c 0
 366 127 377 138 387 138 c 0
 399 138 409 126 409 101 c 0
 409 68 382 -2 365 -2 c 0
 298 -2 227 4 156 4 c 0
EndSplineSet
Validated: 33
EndChar

StartChar: uniF766
Encoding: 1141 63334 205
Width: 413
Flags: MW
LayerCount: 2
Fore
SplineSet
221 205 m 2
 211 205 202 200 202 181 c 2
 202 129 l 1
 203 92 201 64 235 49 c 0
 257 39 290 30 290 15 c 0
 290 5 269 -1 258 -2 c 0
 251 -2 205 4 157 4 c 0
 110 4 71 -2 64 -2 c 0
 52 -1 30 5 30 15 c 0
 30 30 63 39 85 49 c 0
 119 64 116 92 116 129 c 2
 116 344 l 2
 116 401 107 398 50 414 c 0
 41 417 34 426 34 435 c 0
 34 447 54 453 69 453 c 0
 108 453 124 448 160 448 c 0
 195 448 347 453 362 453 c 0
 378 453 377.54 452.198 383 434 c 0
 385.299 426.338 389 395 389 385 c 0
 389 374 385 354 372 354 c 0
 359 354 348 364 339 388 c 0
 336 396 323 406 308 406 c 2
 227 406 l 2
 205 406 203 401 203 382 c 2
 203 296 l 2
 203 276 204 256 219 256 c 2
 280 256 l 2
 324 256 334 296 344 296 c 0
 354 296 356 275 356 229 c 0
 356 184 356 161 342 161 c 0
 332 161 324 205 278 205 c 2
 221 205 l 2
EndSplineSet
Validated: 33
EndChar

StartChar: uniF767
Encoding: 1142 63335 206
Width: 502
Flags: MW
LayerCount: 2
Fore
SplineSet
437 77 m 2
 437 41 444.096 43.3213 415 30 c 0
 376.812 12.5166 322 -10 262 -10 c 0
 137 -10 39 96 39 219 c 0
 39 358 162 470 302 470 c 0
 372 470 416.35 452.432 431 446 c 0
 443.819 440.373 451 424 451 410 c 0
 451 375.47 442 324 432 324 c 0
 415 324 406.971 338.11 395 371 c 0
 383.371 402.949 333 420 291 420 c 0
 197 420 141 323 141 227 c 0
 141 134 192 37 283 37 c 0
 317 37 351 57 351 82 c 2
 351 135 l 2
 351 158 342 161 285 177 c 0
 276 180 269 189 269 198 c 0
 269 210 289 216 304 216 c 0
 343 216 359 211 395 211 c 0
 430 211 429 216 463 216 c 0
 478 216 489 210 489 198 c 0
 489 189 481.591 179.525 474 177 c 0
 447.432 168.162 437 153 437 135 c 2
 437 77 l 2
EndSplineSet
Validated: 33
EndChar

StartChar: uniF768
Encoding: 1143 63336 207
Width: 644
Flags: MW
LayerCount: 2
Fore
SplineSet
202 184 m 2
 202 129 l 2
 202 92 204 57 222 49 c 0
 244 39 277 30 277 15 c 0
 277 5 256 -1 245 -2 c 0
 238 -2 204 4 156 4 c 0
 109 4 70 -2 63 -2 c 0
 52 -1 30 5 30 15 c 0
 30 30 63 39 85 49 c 0
 119 64 116 92 116 129 c 2
 116 344 l 2
 116 401 107 398 50 414 c 0
 41 417 34 426 34 435 c 0
 34 447 54 453 69 453 c 0
 108 453 124 448 160 448 c 0
 195 448 205 453 239 453 c 0
 254 453 274 447 274 435 c 0
 274 426 268 417 259 414 c 0
 208 400 202 401 202 344 c 2
 202 266 l 2
 202 256 205 248 215 248 c 2
 418 248 l 1
 433 249 437 256 437 266 c 2
 437 344 l 2
 437 401 431 400 383 414 c 0
 374 417 367 426 367 435 c 0
 367 447 387 453 402 453 c 0
 441 453 445 448 481 448 c 0
 516 448 537 453 571 453 c 0
 586 453 606 447 606 435 c 0
 606 426 600 417 591 414 c 0
 534 398 523 401 523 344 c 2
 523 129 l 2
 523 92 521 64 555 49 c 0
 577 39 610 30 610 15 c 0
 610 5 589 -1 578 -2 c 0
 571 -2 525 4 477 4 c 0
 430 4 403 -2 396 -2 c 0
 385 -1 363 5 363 15 c 0
 363 30 396 39 418 49 c 0
 443 61 437 92 437 129 c 2
 437 187 l 2
 437 197 434 203 424 203 c 2
 216 203 l 2
 206 203 202 194 202 184 c 2
EndSplineSet
Validated: 33
EndChar

StartChar: uniF769
Encoding: 1144 63337 208
Width: 323
Flags: MW
LayerCount: 2
Fore
SplineSet
250 453 m 0
 265 453 285 447 285 435 c 0
 285 426 279 417 270 414 c 0
 213 398 202 401 202 344 c 2
 202 129 l 2
 202 92 200 64 234 49 c 0
 256 39 289 30 289 15 c 0
 289 5 268 -1 257 -2 c 0
 250 -2 204 4 156 4 c 0
 109 4 70 -2 63 -2 c 0
 52 -1 30 5 30 15 c 0
 30 30 63 39 85 49 c 0
 119 64 116 92 116 129 c 2
 116 344 l 2
 116 401 107 398 50 414 c 0
 41 417 34 426 34 435 c 0
 34 447 54 453 69 453 c 0
 108 453 124 448 160 448 c 0
 195 448 216 453 250 453 c 0
EndSplineSet
Validated: 33
EndChar

StartChar: prescription
Encoding: 1070 8478 209
Width: 655
Flags: MW
LayerCount: 2
Fore
SplineSet
150 4 m 0
 131 4 83 -2 61 -2 c 0
 35 -2 31 8 31 18 c 0
 31 28 43 36 70 44 c 0
 97 52 108 83 108 108 c 2
 108 302 l 2
 108 319 91 344 67 353 c 0
 56 357 46 363 46 374 c 0
 46 385 62 393 75 399 c 0
 86 405 169 438 179 438 c 0
 191 438 191 429 191 410 c 2
 191 385 l 2
 191 370 206 385 211 391 c 0
 227 408 261 430 291 430 c 0
 332 430 348 411 348 388 c 0
 348 373 334 347 318 331 c 0
 315 328 307 322 302 322 c 0
 287 322 265 350 245 350 c 0
 222 350 193 329 193 303 c 2
 191 108 l 2
 191 83 208 44 240 44 c 2
 334 44 l 1
 460 267 l 2
 465 276 468 290 468 297 c 0
 468 303 456 328 456 355 c 0
 456 375 504 436 521 436 c 0
 534 436 560 389 560 366 c 0
 560 343 551 330 528 287 c 2
 395 44 l 1
 516 44 l 2
 541 44 569 80 596 80 c 0
 626 80 624 41 624 31 c 0
 624 21 613 -3 587 -3 c 0
 576 -3 476 -1 372 0 c 1
 310 -112 l 2
 286.150390625 -155.083007812 286 -234 264 -234 c 0
 229 -234 215 -193 215 -179 c 0
 215 -161 235.4296875 -130.673828125 263 -83 c 2
 311 0 l 1
 228 1 157 4 150 4 c 0
EndSplineSet
Validated: 33
EndChar

StartChar: uni211F
Encoding: 1071 8479 210
Width: 635
Flags: MW
LayerCount: 2
Fore
SplineSet
248 -217 m 2
 225 -248 208 -269 192 -269 c 0
 186 -269 175 -260 175 -256 c 0
 175 -248 194 -223 227 -179 c 2
 504 195 l 2
 510 203 518 218 518 225 c 0
 518 231 506 256 506 283 c 0
 506 303 554 364 571 364 c 0
 584 364 610 317 610 294 c 0
 610 271 590 245 561 206 c 2
 248 -217 l 2
385 18 m 2
 232 199 l 2
 226 206 219 209 216 209 c 2
 200 209 l 2
 188 209 185 200 185 186 c 2
 185 108 l 2
 185 83 191 52 218 44 c 0
 245 36 261 28 261 18 c 0
 261 8 253 -2 227 -2 c 0
 205 -2 155 4 139 4 c 0
 119 4 72 -2 50 -2 c 0
 24 -2 15 8 15 18 c 0
 15 28 32 36 59 44 c 0
 86 52 97 83 97 108 c 2
 94 340 l 2
 94 375 69 403 48 410 c 0
 33 415 15 423 15 433 c 0
 15 443 23 453 39 453 c 0
 54 453 118 450 133 450 c 0
 148 450 227 454 252 454 c 0
 330 454 399 420 399 349 c 0
 399 300 360 268 327 248 c 0
 318 243 323 239 330 230 c 2
 430 105 l 2
 455 74 511 48 537 48 c 0
 582 48 592 55 592 33 c 0
 592 -17 523 -17 478 -17 c 0
 445 -17 406 -6 385 18 c 2
185 375 m 2
 185 291 l 2
 185 266 201 257 221 257 c 0
 261 257 304 290 304 330 c 0
 304 368 272 404 234 404 c 0
 209 404 185 397 185 375 c 2
EndSplineSet
Validated: 37
EndChar

StartChar: uni2123
Encoding: 1072 8483 211
Width: 558
Flags: MW
LayerCount: 2
Fore
SplineSet
83 -80 m 2
 69 -107 52 -135 36 -135 c 0
 30 -135 14 -123 14 -119 c 0
 14 -102 29 -80 49 -42 c 2
 327 498 l 2
 336 516 338 529 338 546 c 0
 338 572 319 585 319 612 c 0
 319 632 359 691 371 691 c 0
 381 691 422 636 422 613 c 0
 422 590 404 548 384 509 c 2
 83 -80 l 2
407 414 m 0
 396 416 388 424 388 434 c 0
 388 444 395 453 412 453 c 0
 428 453 438 449 454 449 c 0
 470 449 488 453 504 453 c 0
 521 453 530 444 530 434 c 0
 530 424 510 416 494 411 c 0
 482 407 450 366 435 329 c 1
 328 119 l 2
 306 77 277 -25 258 -25 c 0
 248 -25 238 -1 231 17 c 2
 103 323 l 2
 86 363 75 399 38 411 c 0
 28 414 16 424 16 434 c 0
 16 444 25 453 42 453 c 0
 58 453 105 449 121 449 c 0
 137 449 180 453 196 453 c 0
 213 453 223 444 223 434 c 0
 223 424 211 413 187 408 c 0
 169 404 176 379 183 361 c 2
 265 157 l 2
 270 147 274 136 280 136 c 0
 287 136 293 148 298 157 c 2
 389 327 l 2
 400 347 418 391 418 398 c 0
 418 405 416 413 407 414 c 0
EndSplineSet
Validated: 37
EndChar

StartChar: uniE060
Encoding: 1118 57440 213
Width: 1317
Flags: MW
LayerCount: 2
Fore
SplineSet
325 632 m 0
 403 632 486.776 586.921 490 521 c 0
 491.807 484.044 466 449 429 449 c 0
 399 449 370 468.98 370 498 c 0
 370 534.06 333 569 302 569 c 0
 224 569 139 495 139 417 c 0
 139 333 199.328 277.013 264 256 c 0
 322.014 237.15 404 205.283 404 133 c 0
 404 93 404.687 74 438 74 c 0
 474 74 525.348 136.587 556 187 c 0
 574.703 217.761 577 263 577 331 c 0
 577 363 608.205 414.269 642 418 c 0
 700.644 424.474 718.12 449.718 750 522 c 0
 779.055 587.877 897 644 1009 644 c 0
 1161 644 1269 490 1269 334 c 0
 1269 170 1170 -3 1014 -3 c 0
 935 -3 838 42 838 125 c 0
 838 170 866 220 902 220 c 0
 931 220 959.613 192.732 964 157 c 0
 969.484 112.335 984 67 1030 67 c 0
 1111 67 1170 144.666 1170 223 c 0
 1170 294.46 1130.85 334.952 1058 368 c 0
 976.038 405.179 974.957 437.699 953 541 c 0
 950.089 554.694 931.04 559 918 559 c 0
 858 559 787.474 481.147 764 437 c 0
 752.263 414.926 747 397.04 747 385 c 0
 747 374 758 323 758 306 c 0
 758 265.95 710.201 224.547 651 203 c 0
 628.447 194.792 612.531 166.233 599.73 138 c 0
 563.462 58 448.57 1 352 1 c 0
 168.307 1 46 156.307 46 340 c 0
 46 497.507 168 632 325 632 c 0
EndSplineSet
Validated: 33
EndChar

StartChar: uni2619
Encoding: 1077 9753 214
Width: 1385
Flags: MW
LayerCount: 2
Fore
SplineSet
1176 587 m 0
 1247 587 1347 541 1347 459 c 0
 1347 418 1319 378 1269 378 c 0
 1233 378 1190 388 1190 424 c 0
 1190 453 1207 478 1207 496 c 0
 1207 518 1196 534 1160 534 c 0
 1106 534 1019 433 1019 343 c 0
 1019 307 1038 295 1060 293 c 0
 1202 281 1311 177 1311 28 c 0
 1311 -95 1212 -223 1132 -223 c 0
 1100 -223 1054 -200 1054 -165 c 0
 1054 -141 1084 -127 1110 -123 c 0
 1170 -114 1204 -98 1204 -63 c 0
 1204 -42 1177 -23 1127 -1 c 0
 1067 26 1003 109 979 223 c 0
 975 243 958 253 945 253 c 0
 933 253 913 231 908 204 c 0
 893 127 802 -8 674 -8 c 0
 614 -8 561 40 531 98 c 0
 524 112 517 117 504 117 c 0
 478 117 360 90 341 90 c 0
 269 90 173 120 146 171 c 0
 138 186 110 199 72 199 c 0
 54 199 43 206 43 220 c 0
 43 255 51 271 72 277 c 0
 101 285 129 285 143 289 c 0
 151 291 164 305 174 337 c 0
 180 356 199 369 223 378 c 0
 285 401 353 409 432 409 c 0
 479 409 483 434 504 459 c 0
 551 515 612 545 693 545 c 0
 797 545 903 436 903 372 c 0
 903 346 924 326 950 326 c 0
 968 326 986 338 986 354 c 0
 986 465 1066 587 1176 587 c 0
555 415 m 0
 555 390 596 351 596 298 c 0
 596 209 575 176 575 152 c 0
 575 142 585 137 596 137 c 0
 646 137 691 196 691 265 c 0
 691 335 647 439 581 439 c 0
 564 439 555 429 555 415 c 0
1043 217 m 0
 1043 134 1154 25 1214 25 c 0
 1242 25 1249 60 1249 92 c 0
 1249 164 1129 247 1068 247 c 0
 1053 247 1043 237 1043 217 c 0
EndSplineSet
Validated: 1
EndChar

StartChar: uni2767
Encoding: 1078 10087 215
Width: 1385
Flags: MW
LayerCount: 2
Fore
SplineSet
214 -101 m 0
 143 -101 43 -55 43 27 c 0
 43 68 71 108 121 108 c 0
 157 108 200 98 200 62 c 0
 200 33 183 8 183 -10 c 0
 183 -32 194 -48 230 -48 c 0
 284 -48 371 53 371 143 c 0
 371 179 352 191 330 193 c 0
 188 205 79 309 79 458 c 0
 79 581 178 709 258 709 c 0
 290 709 336 686 336 651 c 0
 336 627 306 613 280 609 c 0
 220 600 186 584 186 549 c 0
 186 528 213 509 263 487 c 0
 323 460 387 377 411 263 c 0
 415 243 432 233 445 233 c 0
 457 233 477 255 482 282 c 0
 497 359 588 494 716 494 c 0
 776 494 829 446 859 388 c 0
 866 374 873 369 886 369 c 0
 912 369 1030 396 1049 396 c 0
 1121 396 1217 366 1244 315 c 0
 1252 300 1280 287 1318 287 c 0
 1336 287 1347 280 1347 266 c 0
 1347 231 1339 215 1318 209 c 0
 1289 201 1261 201 1247 197 c 0
 1239 195 1226 181 1216 149 c 0
 1210 130 1191 117 1167 108 c 0
 1105 85 1037 77 958 77 c 0
 911 77 907 52 886 27 c 0
 839 -29 778 -59 697 -59 c 0
 593 -59 487 50 487 114 c 0
 487 140 466 160 440 160 c 0
 422 160 404 148 404 132 c 0
 404 21 324 -101 214 -101 c 0
835 71 m 0
 835 96 794 135 794 188 c 0
 794 277 815 310 815 334 c 0
 815 344 805 349 794 349 c 0
 744 349 699 290 699 221 c 0
 699 151 743 47 809 47 c 0
 826 47 835 57 835 71 c 0
347 269 m 0
 347 352 236 461 176 461 c 0
 148 461 141 426 141 394 c 0
 141 322 261 239 322 239 c 0
 337 239 347 249 347 269 c 0
EndSplineSet
Validated: 1
EndChar

StartChar: uniF76B
Encoding: 1145 63339 216
Width: 541
Flags: MW
LayerCount: 2
Fore
SplineSet
380 352 m 2
 313 270 l 2
 299.713 253.738 299.928 252.682 321 226 c 2
 422 98 l 2
 444.312 69.748 468 61 498 48 c 0
 520 39 528 30 528 15 c 0
 528 5 507 -1 496 -2 c 0
 489 -2 464 4 416 4 c 0
 369 4 344 -2 337 -2 c 0
 326 -1 304 5 304 15 c 0
 304 30 315 37 340 46 c 0
 348 49 352.494 61.3806 337 81 c 2
 273 162 l 2
 249.448 191.822 225 195 219 195 c 0
 205 194 202 191 202 179 c 2
 202 96 l 2
 202 75 207.786 57.2621 226 49 c 0
 248.011 39.0153 264 30 264 15 c 0
 264 5 243 -1 232 -2 c 0
 225 -2 204 4 156 4 c 0
 109 4 70 -2 63 -2 c 0
 52 -1 30 5 30 15 c 0
 30 30 63 39 85 49 c 0
 119 64 116 92 116 129 c 2
 116 344 l 2
 116 401 107 398 50 414 c 0
 41 417 34 426 34 435 c 0
 34 447 54 453 69 453 c 0
 108 453 124 448 160 448 c 0
 195 448 204 453 238 453 c 0
 253 453 273 447 273 435 c 0
 273 426 267 417 258 414 c 0
 201 398 202 401 202 344 c 2
 202 262 l 2
 202 245 203.57 244 213 244 c 0
 235 244 263.08 279.964 277 297 c 2
 344 379 l 2
 354.767 392.155 348.978 407.688 330 414 c 0
 321.46 416.841 314 426 314 435 c 0
 314 447 334 453 349 453 c 0
 359 453 385 448 403 448 c 0
 428 448 459 453 483 453 c 0
 498 453 518 447 518 435 c 0
 518 426 512 417 503 414 c 0
 446 398 411.669 390.692 380 352 c 2
EndSplineSet
Validated: 33
EndChar

StartChar: uniF76C
Encoding: 1146 63340 217
Width: 483
Flags: MW
LayerCount: 2
Fore
SplineSet
152 4 m 0
 105 4 70 -2 63 -2 c 0
 52 -1 30 5 30 15 c 0
 30 30 63 39 85 49 c 0
 119 64 116 92 116 129 c 2
 116 344 l 2
 116 401 107 398 50 414 c 0
 41 417 34 426 34 435 c 0
 34 447 54 453 69 453 c 0
 108 453 124 448 160 448 c 0
 195 448 216 453 250 453 c 0
 265 453 285 447 285 435 c 0
 285 426 279 417 270 414 c 0
 213 398 202 401 202 344 c 2
 202 129 l 2
 202 75 213 66 256 66 c 2
 342 66 l 2
 370 66 395.344 105.859 405 130 c 0
 409.234 140.585 420 152 430 152 c 0
 442 152 452 140 452 115 c 0
 452 103 428.578 -2 379 -2 c 0
 311.766 -2 218 4 152 4 c 0
EndSplineSet
Validated: 33
EndChar

StartChar: uniF76D
Encoding: 1147 63341 218
Width: 721
Flags: MW
LayerCount: 2
Fore
SplineSet
502 46 m 0
 523.893 53.1136 515 97 515 108 c 2
 502 268 l 2
 500.087 285.898 493.862 285.971 489 275 c 2
 414 127 l 2
 398.617 96.6789 372 19 350 19 c 0
 326.36 19 313.625 51.2022 299 83 c 2
 205 287 l 2
 199.912 297.868 195.514 294.959 194 267 c 2
 187 138 l 2
 185.053 102.053 200 58 222 49 c 0
 245.34 39.4516 277 30 277 15 c 0
 277 5 256 -1 245 -2 c 0
 238 -2 192 4 144 4 c 0
 97 4 63 -2 56 -2 c 0
 45 -1 23 5 23 15 c 0
 23 30 50.013 41.5311 73 49 c 0
 88.2169 53.9443 123.613 70.2598 128 107 c 2
 152 308 l 2
 159.668 378.585 140.553 384.792 118 393 c 0
 96.3871 400.866 75.6785 405.657 50 414 c 0
 40.4894 417.09 34 426 34 435 c 0
 34 447 54 453 69 453 c 0
 108 453 168 448 204 448 c 0
 228 448 235.362 439.714 241 428 c 2
 351 196 l 2
 367.708 160.761 386.184 173.966 404 212 c 2
 503 423 l 2
 511.908 442.017 531 448 551 448 c 0
 567 448 611 453 645 453 c 0
 660 453 680 447 680 435 c 0
 680 426 674 417 665 414 c 0
 608 398 584.704 392.879 588 348 c 2
 601 171 l 2
 608.242 72.3984 620.517 59.579 650 50 c 0
 674.49 42.0428 693 30 693 15 c 0
 693 5 672 -1 661 -2 c 0
 654 -2 632 4 584 4 c 0
 537 4 498 -2 491 -2 c 0
 480 -1 458 5 458 15 c 0
 458 30 482.036 39.5137 502 46 c 0
EndSplineSet
Validated: 33
EndChar

StartChar: uniF76E
Encoding: 1148 63342 219
Width: 539
Flags: MW
LayerCount: 2
Fore
SplineSet
415 344 m 2
 415 386 391.466 404.531 363 414 c 0
 354.46 416.841 347 426 347 435 c 0
 347 447 359 453 374 453 c 0
 390 453 419 448 445 448 c 0
 470 448 489 453 508 453 c 0
 523 453 537 447 537 435 c 0
 537 426 529.702 416.165 522 414 c 0
 496.007 406.694 473 381 473 346 c 2
 473 167 l 2
 473 134 480 84 480 62 c 0
 480 32.4 479 -10 466 -10 c 0
 447 -10 427.063 3.5947 374 70 c 2
 199 289 l 2
 193.762 295.047 191 272 191 245 c 2
 191 129 l 2
 191 92 189 64 223 49 c 0
 245 39 266 30 266 15 c 0
 266 5 245 -1 234 -2 c 0
 227 -2 204 4 156 4 c 0
 109 4 80 -2 73 -2 c 0
 62 -1 40 5 40 15 c 0
 40 30 73 39 95 49 c 0
 129 64 126 92 126 129 c 2
 126 315 l 2
 126 335 124.229 366.793 111 379 c 0
 98.5068 390.528 80.4338 404.111 50 414 c 0
 40.4894 417.09 34 426 34 435 c 0
 34 447 54 453 69 453 c 0
 108 453 126 448 160 448 c 0
 179 448 197.534 428.305 222 398 c 2
 398 180 l 2
 406 171 415.269 152.002 415 174 c 2
 415 344 l 2
EndSplineSet
Validated: 33
EndChar

StartChar: uniF76F
Encoding: 1149 63343 220
Width: 560
Flags: MW
LayerCount: 2
Fore
SplineSet
289 470 m 0
 414 470 525 381 525 256 c 0
 525 108 404 -10 256 -10 c 0
 134 -10 39 91 39 213 c 0
 39 353 149 470 289 470 c 0
141 254 m 0
 141 152 187 34 289 34 c 0
 380 34 422 140 422 231 c 0
 422 326 361 424 266 424 c 0
 185 424 141 335 141 254 c 0
EndSplineSet
Validated: 1
EndChar

StartChar: uniF770
Encoding: 1150 63344 221
Width: 460
Flags: MW
LayerCount: 2
Fore
SplineSet
202 344 m 2
 202 129 l 2
 202 92 200 64 234 49 c 0
 256 39 289 30 289 15 c 0
 289 5 268 -1 257 -2 c 0
 250 -2 204 4 156 4 c 0
 109 4 70 -2 63 -2 c 0
 52 -1 30 5 30 15 c 0
 30 30 63 39 85 49 c 0
 119 64 116 92 116 129 c 2
 116 344 l 2
 116 401 107 398 50 414 c 0
 41 417 34 426 34 435 c 0
 34 447 54 453 69 453 c 0
 108 453 150 460 203 460 c 0
 305 460 425 422 425 322 c 0
 425 243.099 342 175 280 175 c 0
 265 175 252 181 252 191 c 0
 252 207 260.375 210.153 271 213 c 0
 297.08 219.988 326 256 326 315 c 0
 326 380 282.933 404 236 404 c 0
 211 404 202 404 202 344 c 2
EndSplineSet
Validated: 33
EndChar

StartChar: uniF771
Encoding: 1151 63345 222
Width: 585
Flags: MW
LayerCount: 2
Fore
SplineSet
310 470 m 0
 435 470 537 369 537 244 c 0
 537 146 497.788 29.228 401 -6 c 0
 393.464 -8.74301 388.359 -15.1797 392 -17 c 0
 522.901 -82.4505 683 -182 857 -182 c 0
 923 -182 942 -161 961 -161 c 0
 970 -161 978 -165 978 -180 c 0
 978 -211 875 -247 806 -247 c 0
 653 -247 489.215 -140.508 290 -68 c 0
 258.05 -56.3713 235.187 -47.0126 207 -28 c 0
 114.977 34.0704 39 97 39 215 c 0
 39 360 168 470 310 470 c 0
144 230 m 0
 144 119 197 0 308 0 c 0
 406 -1.20011e-14 434 117 434 215 c 0
 434 317 383 424 281 424 c 0
 188 424 144 323 144 230 c 0
EndSplineSet
Validated: 1
EndChar

StartChar: uniF772
Encoding: 1152 63346 223
Width: 590
Flags: MW
LayerCount: 2
Fore
SplineSet
272 455 m 0
 347 455 417 407 417 332 c 0
 417 277 383.16 232.977 331 219 c 0
 323.272 216.93 321.34 214.428 329 208 c 0
 402.54 146.292 446.372 52.49 497 31 c 0
 533.82 15.3708 557 14 557 -2 c 0
 557 -25 534 -37 487 -37 c 0
 466 -37 423.87 -26.8701 397 0 c 0
 348.917 48.083 319.845 99.282 272 149 c 0
 256.052 165.573 241 183 217 183 c 0
 205 183 202 187 202 158 c 2
 202 129 l 2
 202 92 200 64 234 49 c 0
 256 39 289 30 289 15 c 0
 289 5 268 -1 257 -2 c 0
 250 -2 204 4 156 4 c 0
 109 4 70 -2 63 -2 c 0
 52 -1 30 5 30 15 c 0
 30 30 63 39 85 49 c 0
 119 64 116 92 116 129 c 2
 116 344 l 2
 116 401 107 398 50 414 c 0
 41 417 34 426 34 435 c 0
 34 447 54 453 69 453 c 0
 108 453 124 448 160 448 c 0
 195 448 235 455 272 455 c 0
202 274 m 2
 202 253 212 238 235 238 c 0
 283 238 323 280 323 327 c 0
 323 371.76 282 403 237 403 c 0
 217 403 202 391.322 202 370 c 2
 202 274 l 2
EndSplineSet
Validated: 33
EndChar

StartChar: uniF773
Encoding: 1153 63347 224
Width: 373
Flags: MW
LayerCount: 2
Fore
SplineSet
213 470 m 0
 249 470 263 458 287 452 c 0
 300 448 310 439 310 431 c 0
 310 402 309 360 294 360 c 0
 287 360 275.359 362.112 266 378 c 0
 253.819 398.679 227 412 194 412 c 0
 164 412 138 391 138 361 c 0
 138 317 173 298 232 268 c 0
 316 225 338 192 338 121 c 0
 338 31 237 -10 148 -10 c 0
 96 -10 56.1303 10.9046 51 25 c 0
 45.3601 40.4955 37 80 37 100 c 0
 37 111 42 117 52 117 c 0
 76 117 104 38 177 38 c 0
 213 38 239 69 239 105 c 0
 239 159 182 187 133 212 c 0
 78 239 43 280 43 341 c 0
 43 424 130 470 213 470 c 0
EndSplineSet
Validated: 1
EndChar

StartChar: uniF774
Encoding: 1154 63348 225
Width: 532
Flags: MW
LayerCount: 2
Fore
SplineSet
221 343 m 2
 221 385 215 388 200 388 c 2
 120 388 l 2
 100 388 77 333 63 333 c 0
 49 333 39 342 39 359 c 0
 39 412 54 464 75 464 c 0
 95 464 112 438 161 438 c 2
 376 438 l 2
 429 438 465 466 480 466 c 0
 496 466 501 452 501 437 c 0
 501 423 481 347 466 347 c 0
 446 347 445 388 412 388 c 2
 336 388 l 2
 314 388 307 391 307 345 c 2
 307 129 l 2
 306.829 92 305 64 339 49 c 0
 361 39 394 30 394 15 c 0
 394 5 373 -1 362 -2 c 0
 355 -2 309 4 261 4 c 0
 214 4 175 -2 168 -2 c 0
 157 -1 135 5 135 15 c 0
 135 30 168 39 190 49 c 0
 224 64 221 92 221 129 c 2
 221 343 l 2
EndSplineSet
Validated: 33
EndChar

StartChar: uniF776
Encoding: 1155 63350 226
Width: 549
Flags: MW
LayerCount: 2
Fore
SplineSet
416 289 m 2
 335 113 l 2
 306.585 51.2214 304 -10 267 -10 c 0
 242 -10 222.474 52.9512 197 116 c 2
 117 314 l 2
 105.387 342.743 78 398 21 414 c 0
 12 417 5 426 5 435 c 0
 5 447 25 453 40 453 c 0
 66 453 104 448 131 448 c 0
 158 448 201 453 221 453 c 0
 236 453 256 447 256 435 c 0
 256 426 247.489 414.882 233 411 c 0
 194.363 400.647 190.14 394.306 204 360 c 2
 275 184 l 2
 282.35 167.569 291.752 157.197 305 186 c 2
 385 360 l 2
 397.536 387.255 387.183 404.788 364 411 c 0
 349.511 414.882 343 426 343 435 c 0
 343 447 363 453 378 453 c 0
 396 453 415 448 436 448 c 0
 456 448 489 453 509 453 c 0
 524 453 544 447 544 435 c 0
 544 426 539.557 417.364 527 414 c 0
 478.704 401.059 453.608 370.766 416 289 c 2
EndSplineSet
Validated: 33
EndChar

StartChar: uniF778
Encoding: 1156 63352 227
Width: 532
Flags: MW
LayerCount: 2
Fore
SplineSet
147 321 m 2
 110.557 368.665 99.268 390.958 30 414 c 0
 20.5112 417.156 14 426 14 435 c 0
 14 447 34 453 49 453 c 0
 75 453 113 448 140 448 c 0
 167 448 210 453 230 453 c 0
 245 453 265 447 265 435 c 0
 265 426 256.003 414.989 242 411 c 0
 213.148 402.781 213.12 390.102 235 360 c 2
 294.152 278.195 l 1
 361 360 l 2
 378.085 380.908 371 405 348 411 c 0
 334 415 327 426 327 435 c 0
 327 447 347 453 362 453 c 0
 380 453 399 448 420 448 c 0
 440 448 473 453 493 453 c 0
 508 453 528 447 528 435 c 0
 528 426 524 417 511 414 c 0
 463 401 451.541 400.06 397 331 c 2
 323.438 237.692 l 1
 423 100 l 2
 445.282 69.2184 471 58 501 45 c 0
 523 36 531 30 531 15 c 0
 531 5 510 -1 499 -2 c 0
 492 -2 467 4 419 4 c 0
 392 4 351 -2 340 -2 c 0
 327 -2 307 5 307 15 c 0
 307 30 318 37 343 46 c 0
 351 49 341.933 65.7005 331 80 c 2
 266.116 164.984 l 1
 207 90 l 2
 192.745 71.9501 186 52 202 47 c 0
 227 39 245 30 245 15 c 0
 245 4.99999 224 -1.00001 213 -2.00001 c 0
 206 -2.00001 179 3.99999 131 3.99999 c 0
 84 3.99999 50 -2.00001 43 -2.00001 c 0
 32 -1.00001 10 4.99999 10 15 c 0
 10 30 44 41 67 48 c 0
 94 57 129.332 76.5232 142 92 c 2
 234.973 205.775 l 1
 147 321 l 2
EndSplineSet
Validated: 33
EndChar

StartChar: uniF779
Encoding: 1157 63353 228
Width: 549
Flags: MW
LayerCount: 2
Fore
SplineSet
375 331 m 1
 314 248 l 2
 289.72 214.962 290 205 290 178 c 2
 290 113 l 2
 290 75 288 64 322 49 c 0
 344 39 377 30 377 15 c 0
 377 5 356 -1 345 -2 c 0
 338 -2 292 4 244 4 c 0
 197 4 158 -2 151 -2 c 0
 140 -1 118 5 118 15 c 0
 118 30 151 39 173 49 c 0
 207 64 204 73 204 111 c 2
 204 161 l 2
 204 184 190.737 215.597 182 229 c 2
 122 321 l 2
 104.525 347.807 86.2679 390.958 17 414 c 0
 7.51124 417.156 1 426 1 435 c 0
 1 447 21 453 36 453 c 0
 62 453 100 448 127 448 c 0
 154 448 197 453 217 453 c 0
 232 453 252 447 252 435 c 0
 252 426 243 415 229 411 c 0
 190 401 181 392 200 360 c 2
 244 288 l 2
 262.235 258.126 268.415 262.946 299 305 c 2
 339 360 l 1
 354.06 382.41 349 405 326 411 c 0
 312 415 305 426 305 435 c 0
 305 447 325 453 340 453 c 0
 358 453 377 448 398 448 c 0
 418 448 451 453 471 453 c 0
 486 453 506 447 506 435 c 0
 506 426 502 417 489 414 c 0
 441 401 431 401 375 331 c 1
EndSplineSet
Validated: 33
EndChar

StartChar: uniF77A
Encoding: 1158 63354 229
Width: 488
Flags: MW
LayerCount: 2
Fore
SplineSet
342 65 m 2
 369 65 395 106 405 130 c 0
 409 141 420 152 430 152 c 0
 442 152 452 140 452 115 c 0
 452 103 423 -4 408 -4 c 0
 355 -4 200 3 149 3 c 0
 119 3 83 -4 66 -4 c 0
 50 -4 32 19 32 32 c 0
 32 46 56.9688 68.0371 82 103 c 1
 284 366 l 2
 299.836 386.618 299 397 271 397 c 2
 154 397 l 2
 115 397 106.062 364.353 87 335 c 0
 79.9197 324.097 74 316 62 316 c 0
 47 316 39 326 39 346 c 0
 39 355 53.1906 418.258 64 443 c 0
 70.8059 458.578 78 468 90 468 c 0
 104 468 125.001 448.665 173 449 c 2
 336 449 l 2
 360 449.147 403 457 419 457 c 0
 437 457 444 453 444 440 c 0
 444 425 439.779 420.667 433 412 c 2
 196 109 l 2
 179.978 87.2676 169 65.126 187 65 c 2
 342 65 l 2
EndSplineSet
Validated: 33
EndChar

StartChar: longs
Encoding: 307 383 238
Width: 257
Flags: MW
LayerCount: 2
Fore
SplineSet
404 680 m 0
 456 680 519 651 519 597 c 0
 519 570 499 533 476 533 c 0
 463 533 449 557 444 575 c 0
 436 605 419 627 385 627 c 0
 292 627 259 564 222 436 c 0
 180 291 135 112 118 -33 c 0
 105 -149 3 -258 -97 -258 c 0
 -137 -258 -163 -237 -163 -207 c 0
 -163 -180 -145 -156 -115 -156 c 0
 -101 -156 -93 -191 -47 -191 c 0
 1 -191 26 -143 33 -80 c 0
 55 112 85 225 134 406 c 0
 169 536 264 680 404 680 c 0
EndSplineSet
Substitution2: "Single Substitution lookup 64 subtable" longs.short
Substitution2: "Single Substitution lookup 63 subtable" longs.short
EndChar

StartChar: ij
Encoding: 231 307 251
Width: 479
Flags: MW
LayerCount: 2
Fore
SplineSet
194 629 m 0
 219.976 629 236 610.976 236 585 c 0
 236 556.319 209.681 527 181 527 c 0
 154.475 527 139 545.475 139 572 c 0
 139 600.686 165.314 629 194 629 c 0
69 -14 m 0
 36 -14 25 5 25 27 c 0
 25 39 29 50 31 58 c 2
 93 306 l 2
 95.1777 314.732 102 333 91 333 c 0
 70 333 42 304 36 304 c 0
 27 304 24 315 24 325 c 0
 24 346 139 430 171 430 c 0
 185 430 187 418 187 405 c 0
 187 383 180.601 357.089 172 320 c 2
 122 120 l 2
 119.097 108.356 128 102 142 102 c 0
 167 102 359 430 438 430 c 0
 461 430 471 418 471 405 c 0
 471 383 464.69 357.06 456 320 c 2
 361 -62 l 2
 333.663 -171.643 276 -272 165 -272 c 0
 147 -272 127 -260 127 -242 c 0
 127 -225 150 -194 168 -194 c 0
 183 -194 196 -212 218 -212 c 0
 246 -212 252.113 -195.663 263 -152 c 2
 364 254 l 2
 366.419 263.703 371 292 360 292 c 0
 340 292 156 -14 69 -14 c 0
481 629 m 0
 506.976 629 523 610.976 523 585 c 0
 523 556.319 496.681 527 468 527 c 0
 441.475 527 426 545.475 426 572 c 0
 426 600.686 452.314 629 481 629 c 0
EndSplineSet
Validated: 33
EndChar

StartChar: OE
Encoding: 262 338 254
Width: 854
Flags: MW
AnchorPoint: "top_accent" 568 650 basechar 0
LayerCount: 2
Fore
SplineSet
260 -20 m 0
 132 -20 37 93 37 219 c 0
 37 435 215 620 410 620 c 0
 509 620 530 599 566 599 c 2
 741 599 l 2
 777 599 798 606 831 606 c 0
 851 606 857 600 857 580 c 0
 857 567 841 522 837 507 c 0
 831 486 824 477 811 477 c 0
 799 477 799 485 796 508 c 0
 790 551 774 559 751 559 c 2
 658 559 l 2
 621 559 596 552 582 495 c 2
 552 375 l 2
 545 348 545 338 567 338 c 2
 663 338 l 2
 700 338 725 380 737 380 c 0
 749 380 751 365 746 345 c 0
 738 311 728 242 714 242 c 0
 699 242 695 249 688 269 c 0
 683 284 671 290 646 290 c 2
 564 290 l 2
 535 290 527 272 523 257 c 2
 492 133 l 2
 477 71 499 42 534 42 c 2
 673 42 l 2
 705 42 733 59 751 74 c 0
 771 90 792 123 813 123 c 0
 825 123 826 119 826 105 c 0
 826 80 801 37 775 8 c 0
 767 -1 750 -5 736 -5 c 0
 622 -5 460 2 422 2 c 0
 375 2 318 -20 260 -20 c 0
477 525 m 0
 460 554 434 573 395 573 c 0
 250 573 136 371 136 169 c 0
 136 105 179 25 251 25 c 0
 292 25 329.338 38.53 362 62 c 0
 378.242 73.6708 392.371 114.446 396 129 c 2
 487 495 l 2
 490 507 484 514 477 525 c 0
EndSplineSet
Validated: 33
EndChar

StartChar: oe
Encoding: 263 339 255
Width: 576
Flags: MW
AnchorPoint: "top_accent" 373 570 basechar 0
LayerCount: 2
Fore
SplineSet
358 244 m 0
 358 240 360 237 364 237 c 0
 441 237 506 314 506 366 c 0
 506 384 487 390 470 390 c 0
 439 390 358 295 358 244 c 0
259 36 m 0
 228.763 5.23038 193 -14 155 -14 c 0
 83 -14 35 59 35 131 c 0
 35 271 134 430 241 430 c 0
 280 430 311.682 410.466 332 380 c 0
 343.097 363.361 346.837 363.958 362 377 c 0
 400.157 409.82 443 430 485 430 c 0
 551 430 581 400 581 353 c 0
 581 272 432 200 354 200 c 0
 344 200 337 171 337 150 c 0
 337 105 353 55 398 55 c 0
 444 55 490 102 499 102 c 0
 511 102 513 89 513 78 c 0
 513 50 430 -12 354 -12 c 0
 320 -12 294.005 7.00307 276 34 c 0
 270.452 42.3195 269.514 46.6988 259 36 c 0
115 105 m 0
 115 71 124 32 157 32 c 256
 220 32 278 198 278 320 c 0
 278 352 273 384 243 384 c 0
 174 384 115 228 115 105 c 0
EndSplineSet
Validated: 1
Ligature2: "LATliga subtable" o e
EndChar

StartChar: uniE00C
Encoding: 1090 57356 284
Width: 646
Flags: MW
LayerCount: 2
Fore
SplineSet
466 156 m 0
 466 180 491 200 526 200 c 0
 574 200 594 161 594 113 c 0
 594 10 493 -50 432 -50 c 0
 422 -50 409 -48 409 -38 c 0
 409 -28 415 -24 434 -14 c 0
 485 13 514 19 514 75 c 0
 514 113 466 120 466 156 c 0
568 400 m 0
 601 400 628 372 628 339 c 0
 628 303 599 274 563 274 c 0
 531 274 502 298 502 330 c 0
 502 368 530 400 568 400 c 0
EndSplineSet
Refer: 81 113 N 1 0 0 1 0 0 2
EndChar

StartChar: uniE017
Encoding: 1097 57367 290
Width: 293
Flags: MW
LayerCount: 2
Fore
SplineSet
139 79 m 6
 136 67 138 62 147 62 c 4
 183 62 214 110 229 110 c 4
 235 110 236 103 236 97 c 4
 236 62 156 -14 96 -14 c 4
 63 -14 52 5 52 27 c 4
 52 39 56 50 58 58 c 6
 110 266 l 5
 90 255 74 247 62 241 c 4
 56 238 46 233 39 233 c 4
 29 233 24 239 24 244 c 4
 24 253 49 265 78 281 c 4
 82 283 98 293 120 306 c 5
 183 558 l 6
 189 583 192 593 192 604 c 4
 192 612 122 626 122 641 c 4
 122 656 221 682 253 682 c 4
 275 682 277 670 277 657 c 4
 277 635 271 609 262 572 c 6
 260 562 l 5
 296 594 333 611 365 611 c 4
 397 611 430 589 430 554 c 4
 430 477 306 383 198 317 c 5
 139 79 l 6
243 494 m 5
 211 366 l 5
 285 419 361 486 361 535 c 4
 361 548 353 558 336 558 c 4
 309 558 280 537 243 494 c 5
EndSplineSet
Validated: 1
EndChar

StartChar: uniF760
Encoding: 1135 63328 297
Width: 420
Flags: MW
LayerCount: 2
Fore
SplineSet
362 388 m 0
 401.957 384.504 422 374 422 357 c 0
 422 350 401.787 338.431 388 336 c 0
 376.448 333.963 339.65 331 326 331 c 0
 312 331 303 317 303 298 c 2
 303 -45 l 2
 303 -53 308 -92.52 308 -123 c 0
 308 -144 289 -206 234 -206 c 0
 210 -206 188 -177 188 -150 c 0
 188 -132 230.322 -120.678 248 -103 c 0
 262.064 -88.9356 271 -72 271 -51 c 2
 271 24 l 2
 271 35.5552 269 46 254 46 c 0
 148.373 46 49 93 49 213 c 4
 49 324 146.38 394 249 394 c 16
 293.11 394 333.021 390.535 362 388 c 0
EndSplineSet
Validated: 1
EndChar

StartChar: uniE04F
Encoding: 1114 57423 298
Width: 1161
Flags: MW
LayerCount: 2
Fore
SplineSet
990 601 m 0
 1022 601 1068 587 1091 574 c 0
 1124 555 1125 524 1125 489 c 0
 1125 476 1120 462 1105 462 c 0
 1093 462 1086 475 1065 508 c 0
 1045 540 1013 544 986 544 c 0
 936 544 904 502 904 453 c 0
 904 420 926 406 955 381 c 2
 1096 262 l 2
 1126 237 1144 198 1144 160 c 0
 1144 59 1046 -11 943 -11 c 0
 912 -11 862 0 838 11 c 0
 801 28 792 39 792 71 c 0
 792 103 799 138 819 138 c 0
 835 138 842 123 851 93 c 0
 862 57 901 28 959 28 c 0
 1013 28 1046 80 1046 138 c 0
 1046 166 1028 186 1006 204 c 2
 909.229352755 283.351930741 l 1
 603 275.340116279 l 1
 603 129 l 2
 603 92 616 60 650 45 c 0
 672 35 705 30 705 15 c 0
 705 5 684 -1 673 -2 c 0
 666 -2 600 4 552 4 c 0
 505 4 456 -2 449 -2 c 0
 438 -1 416 5 416 15 c 0
 416 30 449 35 471 45 c 0
 505 60 508 92 508 129 c 2
 508 264 l 2
 508 274 504 275 494 275 c 2
 232 275 l 2
 222 275 217 276 217 266 c 2
 217 129 l 2
 217 92 220 60 254 45 c 0
 276 35 309 30 309 15 c 0
 309 5 288 -1 277 -2 c 0
 270 -2 214 4 166 4 c 0
 119 4 60 -2 53 -2 c 0
 42 -1 20 5 20 15 c 0
 20 30 53 35 75 45 c 0
 109 60 122 92 122 129 c 2
 122 482 l 2
 122 539 97 540 40 556 c 0
 31 559 24 564 24 573 c 0
 24 585 44 591 59 591 c 0
 98 591 134 586 170 586 c 0
 205 586 236 591 270 591 c 0
 285 591 305 585 305 573 c 0
 305 564 299 559 290 556 c 0
 233 540 217 539 217 482 c 2
 217 334 l 2
 217 329 220 323 230 323 c 2
 495 323 l 2
 505 323 508 326 508 336 c 2
 508 482 l 2
 508 539 493 540 436 556 c 0
 427 559 420 564 420 573 c 0
 420 585 440 591 455 591 c 0
 494 591 520 586 556 586 c 0
 591 586 632 591 666 591 c 0
 681 591 701 585 701 573 c 0
 701 564 695 559 686 556 c 0
 629 540 603 539 603 482 c 2
 603 323 l 1
 860.87804878 323 l 1
 856 327 l 2
 827 350 812 379 812 417 c 0
 812 516 892 601 990 601 c 0
EndSplineSet
Validated: 1
EndChar

StartChar: infinity
Encoding: 1076 8734 299
Width: 738
Flags: MW
LayerCount: 2
Fore
SplineSet
82 174 m 0
 82 127 126.256835938 96 173 96 c 0
 246.193841479 96 291.771441475 140.802664266 332.537153348 193.353991598 c 1
 297.694276634 237.502334929 256.941608553 272 195 272 c 0
 136.665039062 272 82 232.334960938 82 174 c 0
31 178 m 0
 31 273 87.0654296875 354 176 354 c 0
 259.47831009 354 307.872583208 290.369353162 356.393113231 225.234128116 c 1
 404.892464449 291.317430356 452.958879638 358 542 358 c 0
 639 358 710 271 710 174 c 0
 710 82.98046875 639 6 548 6 c 0
 460.498274819 6 415.192185528 74.5388455403 369.293948161 142.03494562 c 1
 318.289863585 76.196373654 267.628255953 11 180 11 c 0
 92.71484375 11 31 90.71484375 31 178 c 0
395.148380783 174.895033368 m 1
 435.269267558 126.381312455 481.171895942 87 550 87 c 0
 609 87 666 127 666 186 c 0
 666 238.73046875 624 277 566 277 c 0
 488.860565346 277 439.608705149 229.644358184 395.148380783 174.895033368 c 1
EndSplineSet
Validated: 1
EndChar

StartChar: uni2183
Encoding: 1074 8579 300
Width: 511
Flags: MW
LayerCount: 2
Fore
SplineSet
208 -10 m 0
 163 -10 112.676757812 2.23828125 100 12 c 0
 64.9169921875 39.0166015625 48 53 48 68 c 0
 48 102.530273438 68 142 78 142 c 0
 95 142 94.984375 124.990234375 118 89 c 0
 139.55078125 55.3017578125 177 40 219 40 c 0
 313 40 369 137 369 233 c 0
 369 326 318 423 227 423 c 0
 184 423 139.272460938 384.806640625 123 370 c 0
 105.249023438 353.84765625 88 316 77 316 c 0
 65.2998046875 316 61 324 61 340 c 0
 61 376 65.904296875 416.678710938 95 430 c 0
 133.188476562 447.483398438 188 470 248 470 c 0
 373 470 471 364 471 241 c 0
 471 102 348 -10 208 -10 c 0
EndSplineSet
Validated: 1
EndChar

StartChar: uni0307
Encoding: 431 775 306
Width: 0
Flags: MW
AnchorPoint: "top_accent" 83 570 mark 0
LayerCount: 2
Fore
SplineSet
91 629 m 0
 116.976 629 133 610.976 133 585 c 0
 133 556.319 106.681 527 78 527 c 0
 51.4746 527 36 545.475 36 572 c 0
 36 600.686 62.3145 629 91 629 c 0
EndSplineSet
Validated: 1
Substitution2: "Smallcaps subtable" uni0307.sc
Substitution2: "'case' Case-Sensitive Forms lookup 6 subtable" uni0307.cap
EndChar

StartChar: dotlessj
Encoding: 412 567 307
Width: 264
Flags: MW
AnchorPoint: "top_accent" 189 570 basechar 0
LayerCount: 2
Fore
SplineSet
218 430 m 0
 232 430 234 418 234 405 c 0
 234 383 227.690429688 357.059570312 219 320 c 2
 124 -62 l 2
 96.6630859375 -171.642578125 39 -272 -72 -272 c 0
 -90 -272 -110 -260 -110 -242 c 0
 -110 -225 -87 -194 -69 -194 c 0
 -54 -194 -41 -212 -19 -212 c 0
 9 -212 15.11328125 -195.663085938 26 -152 c 2
 140 306 l 2
 142.015625 314.790039062 149 333 138 333 c 0
 117 333 89 304 83 304 c 0
 74 304 71 315 71 325 c 0
 71 346 186 430 218 430 c 0
EndSplineSet
EndChar

StartChar: C.alt
Encoding: 1170 -1 308
Width: 468
VWidth: 0
Flags: MW
LayerCount: 2
Fore
SplineSet
417 630 m 0
 444 630 477.517 620.332 516 599 c 0
 535.241 588.334 551 564 551 542 c 0
 551 524 534 476 501 476 c 0
 486 476 478.934 487.928 469 525 c 0
 461.235 553.978 432.34 589 402 589 c 0
 277 589 144 365 144 204 c 0
 144 135 176 44 245 44 c 0
 300 44 333 75 350 75 c 0
 367 75 374 67 374 49 c 0
 374 23 292 -20 228 -20 c 0
 131 -20 45 68 45 169 c 0
 45 399 213 630 417 630 c 0
EndSplineSet
Validated: 1
EndChar

StartChar: gravecomb
Encoding: 424 768 309
Width: 0
Flags: MW
AnchorPoint: "top_accent" 95 570 mark 0
LayerCount: 2
Fore
SplineSet
56 487 m 0
 44 521 6 616 6 621 c 0
 6 645 42 667 58 667 c 0
 70 667 74 650 76 627 c 0
 79 586 84 493 84 483 c 0
 84 475 81 470 76 470 c 0
 67 470 61 473 56 487 c 0
EndSplineSet
Validated: 1
Substitution2: "Smallcaps subtable" gravecomb.sc
Substitution2: "Single Substitution lookup 20 subtable" gravecomb.grkstack
Substitution2: "Single Substitution lookup 18 subtable" gravecomb.grk
Substitution2: "Single Substitution lookup 13 subtable" gravecomb.stack
Substitution2: "'case' Case-Sensitive Forms lookup 6 subtable" gravecomb.cap
EndChar

StartChar: acutecomb
Encoding: 425 769 310
Width: 0
Flags: HMW
AnchorPoint: "top_accent" 62 570 mark 0
LayerCount: 2
Fore
SplineSet
41 481 m 0
 34 474 26 466 18 466 c 0
 13 466 10 470 10 474 c 0
 10 478 10 482 12 486 c 0
 25 513 62 599 79 630 c 0
 86 643 94 655 104 655 c 0
 114 655 151 633 151 618 c 0
 151 613 67 510 41 481 c 0
EndSplineSet
Substitution2: "Smallcaps subtable" acutecomb.sc
Substitution2: "Single Substitution lookup 20 subtable" acutecomb.grkstack
Substitution2: "Single Substitution lookup 18 subtable" acutecomb.grk
Substitution2: "Single Substitution lookup 13 subtable" acutecomb.stack
Substitution2: "'case' Case-Sensitive Forms lookup 6 subtable" acutecomb.cap
EndChar

StartChar: circumflexcomb
Encoding: 426 770 311
Width: 0
Flags: MW
AnchorPoint: "top_accent" 144 570 mark 0
LayerCount: 2
Fore
SplineSet
133 553 m 2
 45 478 l 2
 35.7803 470.318 24 462 19 462 c 0
 14 462 10 465 10 471 c 0
 10 477 13 483 17 489 c 0
 34 513 90 587 114 615 c 0
 132 636 154 657 164 657 c 0
 173 657 176 649 182 627 c 0
 192 588 205 493 205 483 c 0
 205 475 202 462 197 462 c 0
 190 462 185.882 467.406 180 479 c 2
 144 550 l 2
 141.379 555.397 136.842 556.2 133 553 c 2
EndSplineSet
Validated: 1
Substitution2: "Smallcaps subtable" circumflexcomb.sc
Substitution2: "Single Substitution lookup 11 subtable" uni0302.stack
Substitution2: "'case' Case-Sensitive Forms lookup 6 subtable" circumflexcomb.cap
EndChar

StartChar: tildecomb
Encoding: 427 771 312
Width: 0
Flags: MW
AnchorPoint: "top_stack" 148 644 basemark 0
AnchorPoint: "top_accent" 170 570 mark 0
LayerCount: 2
Fore
SplineSet
50 489 m 0
 40 489 26 499 26 509 c 0
 26 519 78 583 103 583 c 0
 128 583 187 581 212 581 c 0
 247 581 250 624 258 624 c 0
 268 624 289 612 289 602 c 0
 289 592 247 517 222 517 c 0
 197 517 121 518 96 518 c 0
 71 518 58 489 50 489 c 0
EndSplineSet
Validated: 1
Substitution2: "Smallcaps subtable" tildecomb.sc
Substitution2: "'case' Case-Sensitive Forms lookup 6 subtable" tildecomb.cap
EndChar

StartChar: macroncomb
Encoding: 428 772 313
Width: 0
Flags: MW
AnchorPoint: "top_accent" 160 570 mark 0
LayerCount: 2
Fore
SplineSet
34 588 m 2
 241 588 l 2
 246 588 250 583 250 578 c 0
 250 561 227 533 214 533 c 2
 14 533 l 2
 9 533 5 537 5 542 c 0
 5 553 18 588 34 588 c 2
EndSplineSet
Validated: 1
Substitution2: "Smallcaps subtable" macroncomb.sc
Substitution2: "'case' Case-Sensitive Forms lookup 6 subtable" macroncomb.cap
EndChar

StartChar: uni0305
Encoding: 429 773 314
Width: 0
Flags: MW
AnchorPoint: "top_accent" 238 570 mark 0
LayerCount: 2
Fore
SplineSet
4 538 m 4
 4 549 23 589 42 589 c 6
 379 589 l 6
 384 589 388 585 388 580 c 4
 388 557 357 529 344 529 c 6
 14 529 l 6
 8 529 4 533 4 538 c 4
EndSplineSet
Validated: 1
EndChar

StartChar: brevecomb
Encoding: 430 774 315
Width: 0
Flags: MW
AnchorPoint: "top_accent" 175 570 mark 0
LayerCount: 2
Fore
SplineSet
125 601 m 0
 127.524 578.139 131 541 167 541 c 0
 208 541 235.687 560.171 248 594 c 0
 252.104 605.276 263 622 273 622 c 0
 283 622 287 612 287 604 c 0
 287 543 224 484 150 484 c 0
 118 484 78 513 78 554 c 0
 78 587 91 622 111 622 c 0
 118 622 124.122 608.952 125 601 c 0
EndSplineSet
Validated: 1
Substitution2: "Smallcaps subtable" brevecomb.sc
Substitution2: "'case' Case-Sensitive Forms lookup 6 subtable" brevecomb.cap
EndChar

StartChar: uni0308
Encoding: 432 776 316
Width: 0
Flags: MW
AnchorPoint: "top_stack" 148 474 mark 0
AnchorPoint: "top_stack" 148 636 basemark 0
AnchorPoint: "gravestack" 143 570 basemark 0
AnchorPoint: "acutestack" 152 570 basemark 0
AnchorPoint: "top_accent" 139 570 mark 0
LayerCount: 2
Fore
SplineSet
217 624 m 0
 238 624 251 602 251 581 c 0
 251 551 226 524 196 524 c 0
 176 524 161 543 161 563 c 0
 161 595 185 624 217 624 c 0
66 624 m 0
 87 624 100 602 100 581 c 0
 100 551 75 524 45 524 c 0
 25 524 10 543 10 563 c 0
 10 595 34 624 66 624 c 0
EndSplineSet
Validated: 1
Substitution2: "Smallcaps subtable" uni0308.sc
Substitution2: "Single Substitution lookup 15 subtable" uni0308.grkstack
Substitution2: "'case' Case-Sensitive Forms lookup 6 subtable" uni0308.cap
EndChar

StartChar: hookabovecomb
Encoding: 433 777 317
Width: 0
Flags: MW
AnchorPoint: "top_accent" 169 570 mark 0
LayerCount: 2
Fore
SplineSet
96 658 m 0
 118 670 137 677 172 677 c 0
 202 677 238 658 238 630 c 0
 238 596.761 224.523 580.877 172 554 c 0
 163.098 549.445 156 544 156 534 c 0
 156 529.14 165 521.827 165 517 c 0
 165 511 149 506 140 506 c 0
 130 506 113 530 113 543 c 0
 113 564 138.627 577.729 151 585 c 0
 168.527 595.3 184 602.033 184 626 c 0
 184 637 169 645 159 645 c 0
 139 645 134 644 109 606 c 0
 105 600 99 597 93 597 c 0
 80.8291 597 75 613.632 75 624 c 0
 75 638.9 84.5273 652.264 96 658 c 0
EndSplineSet
Validated: 1
Substitution2: "Smallcaps subtable" hookabovecomb.sc
EndChar

StartChar: ringcomb
Encoding: 434 778 318
Width: 0
Flags: MW
AnchorPoint: "top_accent" 130 570 mark 0
LayerCount: 2
Fore
SplineSet
125 660 m 0
 163 660 199 632 199 593 c 0
 199 540 151 493 102 493 c 0
 65 493 33 519 33 556 c 0
 33 611 77 660 125 660 c 0
75 563 m 0
 75 543 87 521 107 521 c 0
 133 521 157 559 157 590 c 0
 157 613 141 632 118 632 c 0
 94 632 75 593 75 563 c 0
EndSplineSet
Validated: 1
Substitution2: "Smallcaps subtable" ringcomb.sc
Substitution2: "'case' Case-Sensitive Forms lookup 6 subtable" ringcomb.cap
EndChar

StartChar: hungarumlautcomb
Encoding: 435 779 319
Width: 0
Flags: MW
AnchorPoint: "top_accent" 118 570 mark 0
LayerCount: 2
Fore
SplineSet
153 478 m 0
 146 471 138 463 130 463 c 0
 125 463 122 467 122 471 c 0
 122 475 122 479 124 483 c 0
 137 510 174 596 191 627 c 0
 198 640 206 652 216 652 c 0
 226 652 263 630 263 615 c 0
 263 610 179 507 153 478 c 0
41 478 m 0
 34 471 26 463 18 463 c 0
 13 463 10 467 10 471 c 0
 10 475 10 479 12 483 c 0
 25 510 62 596 79 627 c 0
 86 640 94 652 104 652 c 0
 114 652 151 630 151 615 c 0
 151 610 67 507 41 478 c 0
EndSplineSet
Validated: 1
Substitution2: "Smallcaps subtable" hungarumlautcomb.sc
Substitution2: "'case' Case-Sensitive Forms lookup 6 subtable" hungarumlautcomb.cap
EndChar

StartChar: caroncomb
Encoding: 436 780 320
Width: 215
Flags: MW
AnchorPoint: "top_accent" 79 570 mark 0
LayerCount: 2
Fore
SplineSet
82 566 m 2
 170 641 l 2
 179 649 191 657 196 657 c 0
 201 657 205 654 205 648 c 0
 205 642 202 636 198 630 c 0
 181 606 125 532 101 504 c 0
 83 483 61 462 51 462 c 0
 42 462 39 470 33 492 c 0
 23 531 10 626 10 636 c 0
 10 644 13 657 18 657 c 0
 25 657 29 652 35 640 c 2
 71 569 l 2
 74 564 78 563 82 566 c 2
EndSplineSet
Validated: 1
Substitution2: "Smallcaps subtable" caroncomb.sc
Substitution2: "Single Substitution lookup 9 subtable" uni030C.alt
Substitution2: "'case' Case-Sensitive Forms lookup 6 subtable" caroncomb.cap
EndChar

StartChar: vlinecomb
Encoding: 437 781 321
Width: 0
Flags: HMW
AnchorPoint: "top_accent" 75.417 572.436 mark 0
LayerCount: 2
Fore
SplineSet
75.0712890625 667.071289062 m 2
 26.654296875 508.708007812 l 2
 25.484375 504.8828125 29.3310546875 500.360351562 34.1123046875 498.8984375 c 0
 50.369140625 493.928710938 82.525390625 503.337890625 85.56640625 513.283203125 c 2
 132.345703125 666.291992188 l 2
 133.515625 670.1171875 130.625976562 674.346679688 125.84375 675.80859375 c 0
 115.325195312 679.025390625 78.8134765625 679.3125 75.0712890625 667.071289062 c 2
EndSplineSet
EndChar

StartChar: uni030E
Encoding: 438 782 322
Width: 1000
Flags: MW
AnchorPoint: "top_accent" 118 570 mark 0
LayerCount: 2
Fore
SplineSet
110 657 m 2
 110 665 128 675 137 675 c 0
 145 675 150 667 150 659 c 2
 150 520 l 2
 150 513 136 500 123 500 c 0
 115 500 110 510 110 519 c 2
 110 657 l 2
30 657 m 2
 30 665 48 675 57 675 c 0
 65 675 70 667 70 659 c 2
 70 520 l 2
 70 513 56 500 43 500 c 0
 35 500 30 510 30 519 c 2
 30 657 l 2
EndSplineSet
Validated: 1
EndChar

StartChar: uni030F
Encoding: 439 783 323
Width: 0
Flags: MW
AnchorPoint: "top_accent" 161 570 mark 0
LayerCount: 2
Fore
SplineSet
159 487 m 0
 147 521 109 616 109 621 c 0
 109 645 145 667 161 667 c 0
 173 667 177 650 179 627 c 0
 182 586 187 493 187 483 c 0
 187 475 184 470 179 470 c 0
 170 470 164 473 159 487 c 0
56 487 m 0
 44 521 6 616 6 621 c 0
 6 645 42 667 58 667 c 0
 70 667 74 650 76 627 c 0
 79 586 84 493 84 483 c 0
 84 475 81 470 76 470 c 0
 67 470 61 473 56 487 c 0
EndSplineSet
Validated: 1
Substitution2: "'case' Case-Sensitive Forms lookup 6 subtable" uni030F.cap
EndChar

StartChar: uni0311
Encoding: 441 785 324
Width: 0
Flags: MW
AnchorPoint: "top_accent" 158 570 mark 0
LayerCount: 2
Fore
SplineSet
194 519 m 0
 191 542 188 579 152 579 c 0
 111 579 83 560 71 526 c 0
 67 515 56 498 46 498 c 0
 36 498 32 508 32 516 c 0
 32 577 95 636 169 636 c 0
 201 636 241 607 241 566 c 0
 241 533 228 498 208 498 c 0
 201 498 195 511 194 519 c 0
EndSplineSet
Validated: 1
Substitution2: "Smallcaps subtable" uni0311.sc
Substitution2: "'case' Case-Sensitive Forms lookup 6 subtable" uni0311.cap
EndChar

StartChar: uni0312
Encoding: 442 786 325
Width: 0
Flags: MW
AnchorPoint: "top_accent" 94 570 mark 0
LayerCount: 2
Fore
SplineSet
6 541 m 0
 6 622 101 686 154 686 c 0
 166 686 177 680 177 671 c 0
 177 662 170.768 652.249 160 650 c 0
 119.866 641.616 83 616 83 578 c 0
 83 554 120 546 120 522 c 0
 120 494 86 481 60 481 c 0
 29 481 6 511 6 541 c 0
EndSplineSet
Validated: 1
Substitution2: "Smallcaps subtable" uni0312.sc
EndChar

StartChar: uni0313
Encoding: 443 787 326
Width: 0
Flags: MW
AnchorPoint: "top_accent" 107 570 mark 0
LayerCount: 2
Fore
SplineSet
177 626 m 0
 177 545 82 481 29 481 c 0
 17 481 6 487 6 496 c 0
 6 505 12 515 23 517 c 0
 63 525 100 551 100 589 c 0
 100 613 63 621 63 645 c 0
 63 673 97 686 123 686 c 0
 154 686 177 656 177 626 c 0
EndSplineSet
Validated: 1
Substitution2: "Smallcaps subtable" uni0313.sc
Substitution2: "Single Substitution lookup 17 subtable" uni0313.grkstack
Substitution2: "Single Substitution lookup 16 subtable" uni0313.grk
EndChar

StartChar: uni0314
Encoding: 444 788 327
Width: 0
Flags: MW
AnchorPoint: "top_accent" 99 570 mark 0
LayerCount: 2
Fore
SplineSet
77 572 m 0
 77 548.31 83.667 530 110 509 c 0
 115.691 504.461 125 501 125 493 c 0
 125 482 111 481 98 481 c 0
 57 481 18 531 18 579 c 0
 18 638 79 686 124 686 c 0
 147 686 169 673 169 649 c 0
 169 610 77 621 77 572 c 0
EndSplineSet
Validated: 1
Substitution2: "Smallcaps subtable" uni0314.sc
Substitution2: "Single Substitution lookup 17 subtable" uni0314.grkstack
Substitution2: "Single Substitution lookup 16 subtable" uni0314.grk
EndChar

StartChar: uni0315
Encoding: 445 789 328
Width: 0
Flags: MW
LayerCount: 2
Fore
SplineSet
177 626 m 0
 177 545 82 481 29 481 c 0
 17 481 6 487 6 496 c 0
 6 505 12 515 23 517 c 0
 63 525 100 551 100 589 c 0
 100 613 63 621 63 645 c 0
 63 673 97 686 123 686 c 0
 154 686 177 656 177 626 c 0
EndSplineSet
Validated: 1
Substitution2: "Smallcaps subtable" uni0315.sc
EndChar

StartChar: uni0316
Encoding: 446 790 329
Width: 0
Flags: MW
LayerCount: 2
Fore
SplineSet
56 -233 m 0
 44 -199 10 -104 10 -99 c 0
 10 -75 39 -53 55 -53 c 0
 67 -53 71 -70 73 -93 c 0
 76 -134 84 -227 84 -237 c 0
 84 -245 81 -250 76 -250 c 0
 67 -250 61 -247 56 -233 c 0
EndSplineSet
Validated: 1
Substitution2: "'case' Case-Sensitive Forms lookup 6 subtable" uni0316.cap
EndChar

StartChar: uni0317
Encoding: 447 791 340
Width: 0
Flags: MW
LayerCount: 2
Fore
SplineSet
41 -242 m 0
 34 -249 26 -257 18 -257 c 0
 13 -257 10 -253 10 -249 c 0
 10 -245 10 -241 12 -237 c 0
 25 -210 70 -124 87 -93 c 0
 94 -80 102 -68 112 -68 c 0
 122 -68 151 -90 151 -105 c 0
 151 -110 67 -213 41 -242 c 0
EndSplineSet
Validated: 1
Substitution2: "'case' Case-Sensitive Forms lookup 6 subtable" uni0317.cap
EndChar

StartChar: brokenbar
Encoding: 99 166 381
Width: 157
Flags: MW
LayerCount: 2
Fore
SplineSet
55 115 m 2
 55 135 75 151 92 151 c 0
 101 151 102 144 102 115 c 2
 102 -188 l 2
 102 -205 83 -218 67 -218 c 0
 57 -218 55 -210 55 -190 c 2
 55 115 l 2
55 574 m 2
 55 594 75 610 92 610 c 0
 101 610 102 603 102 574 c 2
 102 271 l 2
 102 254 83 241 67 241 c 0
 57 241 55 249 55 269 c 2
 55 574 l 2
EndSplineSet
Validated: 1
Substitution2: "sups subtable" brokenbar.sups
Substitution2: "sinf subtable" brokenbar.sinf
Substitution2: "ordn subtable" brokenbar.ordn
Substitution2: "subs subtable" brokenbar.subs
EndChar

StartChar: uni00B3
Encoding: 108 179 382
Width: 277
Flags: MW
LayerCount: 2
Fore
SplineSet
236 434 m 0
 209 434 176 439 185 467 c 0
 187 475 202 495 210 495 c 0
 216 495 219 492 220 490 c 0
 229 482 246 468 274 468 c 0
 286 468 330 472 348 530 c 0
 359 566 341 595 306 595 c 0
 297 595 280 591 269 588 c 0
 263 586 253 594 259 599 c 0
 278 614 298 615 313 624 c 0
 347 644 373 654 383 686 c 0
 390 707 367 723 350 723 c 0
 329 723 303 713 274 693 c 0
 270 690 266 686 263 687 c 0
 260 689 258 694 261 698 c 0
 285 729 330 770 379 770 c 1
 426 769 455 750 439 699 c 0
 431 674 402 650 363 632 c 0
 359 630 358 627 362 627 c 0
 396 625 417 598 406 561 c 0
 381 480 285 434 236 434 c 0
EndSplineSet
Validated: 33
EndChar

StartChar: guilsinglleft
Encoding: 1065 8249 383
Width: 433
Flags: MW
LayerCount: 2
Fore
SplineSet
217 218 m 0
 208 212 211 208 217 202 c 0
 251 166 293 104 320 57 c 0
 325 48 326 19 319 19 c 0
 308 19 292 33 288 37 c 0
 244 80 159 162 113 188 c 0
 107 191 99 201 99 209 c 0
 99 216 109 222 113 224 c 0
 205 271 323 348 395 395 c 0
 402 400 410 405 423 405 c 0
 429 405 438 390 428 381 c 0
 361 323 268 250 217 218 c 0
EndSplineSet
Validated: 33
EndChar

StartChar: guilsinglright
Encoding: 1066 8250 384
Width: 433
Flags: MW
LayerCount: 2
Fore
SplineSet
216 206 m 0
 225 212 222 216 216 222 c 0
 182 258 140 320 113 367 c 0
 108 376 107 405 114 405 c 0
 125 405 141 391 145 387 c 0
 189 344 274 262 320 236 c 0
 326 233 334 223 334 215 c 0
 334 208 324 202 320 200 c 0
 228 153 110 76 38 29 c 0
 31 24 23 19 10 19 c 0
 4 19 -5 34 5 43 c 0
 72 101 165 174 216 206 c 0
EndSplineSet
Validated: 33
EndChar

StartChar: uniA751
Encoding: 1080 42833 385
Width: 450
Flags: MW
LayerCount: 2
Fore
SplineSet
239 415 m 0
 266 425 298 430 326 430 c 0
 416 430 435 380 435 322 c 0
 435 182 279 -11 171 -11 c 0
 165 -11 137 0 132 0 c 0
 127 0 121 -1 117 -17 c 2
 98 -95 l 1
 125 -98 153 -100 186 -100 c 0
 243 -100 256 -78 263 -63 c 0
 272 -43 278 -30 291 -30 c 0
 311 -30 326 -51 326 -75 c 0
 326 -120 245 -165 180 -165 c 0
 142 -165 112 -160 83 -154 c 1
 75 -186 l 2
 69 -208 95 -225 120 -231 c 0
 134 -234 146 -241 146 -251 c 0
 146 -265 130 -269 115 -269 c 0
 102 -269 16 -262 -43 -262 c 0
 -59 -262 -70 -257 -70 -245 c 0
 -70 -231 -55 -225 -43 -223 c 0
 -10 -216 -6 -207 1 -181 c 2
 11 -142 l 1
 -5 -140 -22 -139 -42 -139 c 0
 -73 -139 -90 -161 -111 -161 c 0
 -123 -161 -131 -153 -131 -139 c 0
 -131 -122 -78 -82 -45 -82 c 0
 -20 -82 3 -84 25 -86 c 1
 126 317 l 2
 130 334 129 338 115 332 c 0
 96 325 69 314 66 314 c 0
 56 314 54 316 54 326 c 0
 54 346 113 377 124 382 c 0
 142 389 144 393 149 413 c 0
 157 444 189 509 218 509 c 0
 234 509 231 454 227 431 c 0
 223 405 229 411 239 415 c 0
207 341 m 2
 146 96 l 2
 138 64 162 38 196 38 c 0
 261 38 353 216 353 327 c 0
 353 354 335 380 309 380 c 0
 251 380 213 365 207 341 c 2
EndSplineSet
EndChar

StartChar: uniA753
Encoding: 1081 42835 386
Width: 544
Flags: MW
LayerCount: 2
Fore
SplineSet
301 341 m 2
 240 96 l 2
 232 64 256 38 290 38 c 0
 355 38 447 216 447 327 c 0
 447 354 429 380 403 380 c 0
 345 380 307 365 301 341 c 2
144 15 m 2
 146.176757812 23.732421875 141 37 130 37 c 0
 76 37 29 5 20 -46 c 0
 3 -141 -32 -271 -150 -271 c 0
 -183 -271 -209 -251 -209 -235 c 0
 -209 -218 -183 -210 -131 -210 c 0
 -80 -210 -66 -108 -59 -57 c 0
 -46.2001953125 36.2578125 60 85 145 85 c 0
 158 85 162.85546875 87.3857421875 166 100 c 2
 220 317 l 2
 224.217773438 333.947265625 223 338 209 332 c 0
 190 325 163 314 160 314 c 0
 150 314 148 316 148 326 c 0
 148 346 207 377 218 382 c 0
 236 389 238 393 243 413 c 0
 251 444 283 509 312 509 c 0
 328 509 325 454 321 431 c 0
 317 405 323 411 333 415 c 0
 360 425 392 430 420 430 c 0
 510 430 529 380 529 322 c 0
 529 182 373 -11 265 -11 c 0
 259 -11 231 0 226 0 c 0
 221 0 215 -1 211 -17 c 2
 169 -186 l 2
 163 -208 189 -225 214 -231 c 0
 228 -234 240 -241 240 -251 c 0
 240 -265 224 -269 209 -269 c 0
 196 -269 110 -262 51 -262 c 0
 35 -262 24 -257 24 -245 c 0
 24 -231 39 -225 51 -223 c 0
 84 -216 88.4697265625 -207.122070312 95 -181 c 2
 144 15 l 2
EndSplineSet
EndChar

StartChar: uniA757
Encoding: 1082 42839 387
Width: 472
Flags: MW
LayerCount: 2
Fore
SplineSet
294 89 m 2
 296 99 290 98 282 88 c 0
 252 49 169 -14 115 -14 c 0
 63 -14 33 45 33 97 c 0
 33 261 206 430 313 430 c 0
 333 430 355 414 368 390 c 0
 372 382 375 380 377 384 c 0
 399 421 409 438 422 438 c 0
 447 438 446 425 446 412 c 0
 446 390 436 357 427 320 c 2
 323 -99 l 1
 337 -100 352 -100 366 -100 c 0
 423 -100 436 -78 443 -63 c 0
 452 -43 458 -30 471 -30 c 0
 491 -30 506 -51 506 -75 c 0
 506 -120 425 -165 360 -165 c 0
 342 -165 324 -164 307 -163 c 1
 301 -187 l 2
 296 -207 310 -215 335 -221 c 0
 349 -224 358 -234 358 -241 c 0
 358 -255 345 -262 330 -262 c 0
 258 -262 169 -272 147 -272 c 0
 131 -272 123 -267 123 -255 c 0
 123 -241 140 -235 152 -232 c 0
 200 -222 218 -215 227 -180 c 2
 233 -156 l 1
 192 -152 149 -147 103 -147 c 0
 72 -147 55 -181 34 -181 c 0
 22 -181 14 -165 14 -151 c 0
 14 -134 67 -82 100 -82 c 0
 149 -82 199 -88 249 -93 c 1
 294 89 l 2
348 317 m 0
 348 344 314 384 296 384 c 0
 227 384 119 220 119 90 c 0
 119 68 133 56 154 56 c 0
 254 56 348 249 348 317 c 0
EndSplineSet
EndChar

StartChar: uniA759
Encoding: 1083 42841 388
Width: 725
Flags: MW
LayerCount: 2
Fore
SplineSet
348 317 m 0
 348 344 314 384 296 384 c 0
 227 384 119 220 119 90 c 0
 119 68 133 56 154 56 c 0
 254 56 348 249 348 317 c 0
294 89 m 2
 296 99 290 98 282 88 c 0
 252 49 169 -14 115 -14 c 0
 63 -14 33 45 33 97 c 0
 33 261 206 430 313 430 c 0
 333 430 355 414 368 390 c 0
 372 382 375 380 377 384 c 0
 399 421 409 438 422 438 c 0
 447 438 446 425 446 412 c 0
 446 390 436 357 427 320 c 2
 426 315 l 1
 476 375 542 429 623 429 c 0
 673 429 711 400 711 354 c 0
 711 228 515 58 334 -56 c 1
 301 -187 l 2
 296 -207 310 -215 335 -221 c 0
 349 -224 358 -234 358 -241 c 0
 358 -255 345 -262 330 -262 c 0
 258 -262 169 -272 147 -272 c 0
 131 -272 123 -267 123 -255 c 0
 123 -241 140 -235 152 -232 c 0
 200 -222 218 -215 227 -180 c 2
 245 -108 l 1
 188 -139 137 -162 99 -173 c 0
 83 -178 61 -175 61 -158 c 0
 61 -140 86 -134 116 -121 c 0
 169 -98 216 -71 262 -41 c 1
 294 89 l 2
353 24 m 1
 384 47 416 72 450 99 c 0
 581 203 629 264 629 326 c 0
 629 346 608 368 588 368 c 0
 548 368 487 332 405 230 c 1
 353 24 l 1
EndSplineSet
EndChar

StartChar: uniA770
Encoding: 1084 42864 389
Width: 367
Flags: MW
LayerCount: 2
Fore
SplineSet
206 729 m 0
 285 729 347 659 347 579 c 0
 347 435 185 290 114 290 c 0
 93 290 81 297 81 317 c 0
 81 331 91.216 344.683 131 361 c 0
 158.756 372.384 208.446 414.778 230 461 c 0
 234.226 470.062 221.957 462.078 213.5 459 c 0
 192.827 451.476 171 448 136 448 c 0
 82 448 24 487.216 24 545 c 0
 24 645.934 123 729 206 729 c 0
114 593 m 0
 114 539 140 499 204 499 c 0
 238 499 255 512.961 255 538 c 0
 255 600.27 235.27 675 173 675 c 0
 136.394 675 114 624 114 593 c 0
EndSplineSet
Validated: 1
EndChar

StartChar: f_f
Encoding: 1171 -1 390
Width: 526
Flags: MW
LayerCount: 2
Fore
SplineSet
335 379 m 2
 229 375 l 2
 217.0078125 374.547851562 214.587890625 369.920898438 212.999023438 354 c 0
 208.0078125 303.998046875 164 34 144 -48 c 0
 138.748046875 -69.2705078125 130.254882812 -94.47265625 118.701171875 -120.073242188 c 1
 134.586914062 -127.786132812 168.71484375 -184 192 -184 c 0
 225 -184 251.669921875 -164.671875 265 -109 c 0
 282 -38 332.888671875 239.495117188 344 364 c 0
 344.888671875 373.959960938 345.9921875 379.415039062 335 379 c 2
406.461914062 551.4296875 m 1
 403.0859375 588.99609375 383.653320312 615 343 615 c 0
 281 615 238.142578125 494.713867188 231 434 c 0
 230 427 225.27734375 415.221679688 241 416 c 2
 342 421 l 2
 351.987304688 421.494140625 352.244140625 423.38671875 355 433 c 0
 368.102539062 478.694335938 385.981445312 518.087890625 406.461914062 551.4296875 c 1
465.872070312 626.331054688 m 1
 513.654296875 672.823242188 564.208007812 695 599 695 c 0
 660 695 711 654 711 603 c 0
 711 561 684 542 657 542 c 0
 637 542 638 555 638 582 c 0
 638 608 608 648 575 648 c 0
 511.752929688 648 450.142578125 504.713867188 443 444 c 0
 442 437 437.271484375 425.358398438 453 426 c 2
 557 430 l 2
 567.991210938 430.422851562 570 427 570 417 c 0
 570 407 558.98828125 391.515625 547 391 c 2
 441 385 l 2
 429.018554688 384.330078125 426.587890625 379.920898438 424.999023438 364 c 0
 420.0078125 313.998046875 376 34 356 -48 c 0
 336 -129 262 -240 158 -240 c 0
 134.274414062 -240 92.681640625 -219.030273438 74.4697265625 -195.290039062 c 1
 42.9208984375 -236.264648438 2.0810546875 -267 -47 -267 c 0
 -78 -267 -120 -250 -120 -219 c 0
 -120 -189 -106 -159 -78 -159 c 0
 -64 -159 -32 -208 -7 -208 c 0
 26 -208 39.669921875 -164.671875 53 -109 c 0
 70 -38 120.888671875 229.495117188 132 354 c 0
 132.888671875 363.959960938 133.993164062 369.383789062 123 369 c 2
 66 366 l 2
 56.015625 365.474609375 50 367 50 377 c 0
 50 387 63.0224609375 407.290039062 74 408 c 2
 130 411 l 2
 139.985351562 411.541015625 140.244140625 413.38671875 143 423 c 0
 194.543945312 602.755859375 305 666 372 666 c 0
 416.151367188 666 450.348632812 652.903320312 465.872070312 626.331054688 c 1
EndSplineSet
Substitution2: "Single Substitution lookup 64 subtable" f_f.short
Substitution2: "Single Substitution lookup 63 subtable" f_f.short
Ligature2: "liga_standard subtable" f.DEU f.DEU
Ligature2: "liga_standard subtable" f f
LCarets2: 1 199
EndChar

StartChar: f_i
Encoding: 1172 -1 391
Width: 512
Flags: MW
LayerCount: 2
Fore
SplineSet
359 382 m 2
 229 379 l 2
 217.001953125 378.72265625 214.587890625 379.920898438 212.999023438 364 c 0
 208.0078125 313.998046875 164 34 144 -48 c 0
 124 -129 57 -267 -47 -267 c 0
 -78 -267 -120 -250 -120 -219 c 0
 -120 -189 -106 -159 -78 -159 c 0
 -64 -159 -32 -208 -7 -208 c 0
 26 -208 39.669921875 -164.671875 53 -109 c 0
 70 -38 120.888671875 239.495117188 132 364 c 0
 132.888671875 373.959960938 133.993164062 379.383789062 123 379 c 2
 66 376 l 2
 56.015625 375.474609375 50 377 50 387 c 0
 50 397 63.0224609375 417.290039062 74 418 c 2
 130 421 l 2
 139.985351562 421.541015625 140.640625 423.282226562 143 433 c 0
 192 634.799804688 320 695 387 695 c 0
 448 695 506 654 506 603 c 0
 506 561 472 542 445 542 c 0
 425 542 422 558 422 582 c 0
 422 619 396 648 363 648 c 0
 299.752929688 648 238.142578125 504.713867188 231 444 c 0
 230 437 225.26171875 425.688476562 241 426 c 2
 443 430 l 2
 456.997070312 430.27734375 459 418 459 405 c 0
 459 383 452.600585938 357.088867188 444 320 c 2
 384 79 l 2
 381.096679688 67.3564453125 383 62 392 62 c 0
 428 62 459 110 474 110 c 0
 480 110 481 103 481 97 c 0
 481 62 401 -14 341 -14 c 0
 308 -14 297 5 297 27 c 0
 297 39 301 50 303 58 c 2
 365 306 l 2
 380.647460938 368.587890625 371.997070312 382.294921875 359 382 c 2
EndSplineSet
EndChar

StartChar: f_l
Encoding: 1173 -1 392
Width: 511
Flags: MW
LayerCount: 2
Fore
SplineSet
397 437 m 2
 427 558 l 2
 440 611 427 648 363 648 c 0
 300 648 238 505 231 444 c 0
 230 437 225 426 241 426 c 2
 381 428 l 2
 392 428 395.55859375 431.17578125 397 437 c 2
368 383 m 2
 229 379 l 2
 217 379 215 380 213 364 c 0
 208 314 164 34 144 -48 c 0
 124 -129 57 -267 -47 -267 c 0
 -78 -267 -120 -250 -120 -219 c 0
 -120 -189 -106 -159 -78 -159 c 0
 -64 -159 -32 -208 -7 -208 c 0
 26 -208 40 -165 53 -109 c 0
 70 -38 121 239 132 364 c 0
 133 374 134 379 123 379 c 2
 66 376 l 2
 56 375 50 377 50 387 c 0
 50 397 63 417 74 418 c 2
 130 421 l 2
 140 422 140 423 143 433 c 0
 195 613 320 695 399 695 c 0
 453 695 470 658 477 658 c 0
 489 658 504 681 516 681 c 0
 526 681 525 672 525 667 c 0
 525 645 515 609 506 572 c 2
 383 79 l 2
 380 67 382 62 391 62 c 0
 427 62 458 110 473 110 c 0
 479 110 480 103 480 97 c 0
 480 62 400 -14 340 -14 c 0
 307 -14 296 5 296 27 c 0
 296 39 300 50 302 58 c 2
 380 371 l 2
 381.209960938 375.8515625 380 383 368 383 c 2
EndSplineSet
EndChar

StartChar: f_f_i
Encoding: 1174 -1 393
Width: 724
Flags: MW
LayerCount: 2
Fore
SplineSet
631 582 m 0
 631 608 608 648 575 648 c 0
 511.752929688 648 449.142578125 504.713867188 443 444 c 0
 442 437 437.26171875 425.688476562 453 426 c 2
 655 430 l 2
 668.997070312 430.27734375 671 418 671 405 c 0
 671 383 664.600585938 357.088867188 656 320 c 2
 596 79 l 2
 593.096679688 67.3564453125 595 62 604 62 c 0
 640 62 671 110 686 110 c 0
 692 110 693 103 693 97 c 0
 693 62 613 -14 553 -14 c 0
 520 -14 509 5 509 27 c 0
 509 39 513 50 515 58 c 2
 577 306 l 2
 592.647460938 368.587890625 583.997070312 382.294921875 571 382 c 2
 441 379 l 2
 429.001953125 378.72265625 426.587890625 379.920898438 424.999023438 364 c 0
 420.0078125 313.998046875 376 34 356 -48 c 0
 336 -129 262 -240 158 -240 c 0
 134.274414062 -240 92.681640625 -219.030273438 74.4697265625 -195.290039062 c 1
 42.9208984375 -236.264648438 2.0810546875 -267 -47 -267 c 0
 -78 -267 -120 -250 -120 -219 c 0
 -120 -189 -106 -159 -78 -159 c 0
 -64 -159 -32 -208 -7 -208 c 0
 26 -208 39.669921875 -164.671875 53 -109 c 0
 70 -38 120.888671875 229.495117188 132 354 c 0
 132.888671875 363.959960938 133.993164062 369.383789062 123 369 c 2
 66 366 l 2
 56.015625 365.474609375 50 367 50 377 c 0
 50 387 63.0224609375 407.290039062 74 408 c 2
 130 411 l 2
 139.985351562 411.541015625 140.244140625 413.38671875 143 423 c 0
 194.543945312 602.755859375 305 666 372 666 c 0
 416.151367188 666 450.348632812 652.903320312 465.872070312 626.331054688 c 1
 513.654296875 672.823242188 564.208007812 695 599 695 c 0
 660 695 715 661.049804688 715 603 c 0
 715 568 681 542 654 542 c 0
 634 542 631 558 631 582 c 0
335 379 m 2
 229 375 l 2
 217.0078125 374.547851562 214.587890625 369.920898438 212.999023438 354 c 0
 208.0078125 303.998046875 164 34 144 -48 c 0
 138.748046875 -69.2705078125 130.254882812 -94.47265625 118.701171875 -120.073242188 c 1
 134.586914062 -127.786132812 168.71484375 -184 192 -184 c 0
 225 -184 251.669921875 -164.671875 265 -109 c 0
 282 -38 332.888671875 239.495117188 344 364 c 0
 344.888671875 373.959960938 345.9921875 379.415039062 335 379 c 2
406.461914062 551.4296875 m 1
 403.0859375 588.99609375 383.653320312 615 343 615 c 0
 281 615 238.142578125 494.713867188 231 434 c 0
 230 427 225.27734375 415.221679688 241 416 c 2
 342 421 l 2
 351.987304688 421.494140625 352.244140625 423.38671875 355 433 c 0
 368.102539062 478.694335938 385.981445312 518.087890625 406.461914062 551.4296875 c 1
EndSplineSet
EndChar

StartChar: f_f_l
Encoding: 1175 -1 394
Width: 723
Flags: MW
LayerCount: 2
Fore
SplineSet
575 648 m 0
 514.752929688 648 450.142578125 504.713867188 443 444 c 0
 442 437 440.255859375 425.818359375 453 426 c 2
 593 428 l 2
 603.999023438 428.157226562 607.55859375 431.17578125 609 437 c 2
 639 558 l 2
 652 611 639 648 575 648 c 0
441 379 m 2
 429.002929688 378.741210938 426.587890625 379.920898438 424.999023438 364 c 0
 420.0078125 313.998046875 376 34 356 -48 c 0
 336 -129 262 -240 158 -240 c 0
 134.274414062 -240 92.681640625 -219.030273438 74.4697265625 -195.290039062 c 1
 42.9208984375 -236.264648438 2.0810546875 -267 -47 -267 c 0
 -78 -267 -120 -250 -120 -219 c 0
 -120 -189 -106 -159 -78 -159 c 0
 -64 -159 -32 -208 -7 -208 c 0
 26 -208 39.669921875 -164.671875 53 -109 c 0
 70 -38 120.888671875 229.495117188 132 354 c 0
 132.888671875 363.959960938 133.993164062 369.383789062 123 369 c 2
 66 366 l 2
 56.015625 365.474609375 50 367 50 377 c 0
 50 387 63.0224609375 407.290039062 74 408 c 2
 130 411 l 2
 139.985351562 411.541015625 140.244140625 413.38671875 143 423 c 0
 194.543945312 602.755859375 305 666 372 666 c 0
 416.151367188 666 450.348632812 652.903320312 465.872070312 626.331054688 c 1
 513.654296875 672.823242188 579.208007812 695 611 695 c 0
 665 695 686 661 693 661 c 0
 705 661 710 665 722 665 c 0
 732 665 734 663 734 647 c 0
 734 625 727 609 718 572 c 2
 595 79 l 2
 592 67 594 62 603 62 c 0
 639 62 670 110 685 110 c 0
 691 110 692 103 692 97 c 0
 692 62 612 -14 552 -14 c 0
 519 -14 508 5 508 27 c 0
 508 39 512 50 514 58 c 2
 592 371 l 2
 593.209960938 375.8515625 591.995117188 383.344726562 580 383 c 2
 441 379 l 2
335 379 m 2
 229 375 l 2
 217.0078125 374.547851562 214.587890625 369.920898438 212.999023438 354 c 0
 208.0078125 303.998046875 164 34 144 -48 c 0
 138.748046875 -69.2705078125 130.254882812 -94.47265625 118.701171875 -120.073242188 c 1
 134.586914062 -127.786132812 168.71484375 -184 192 -184 c 0
 225 -184 251.669921875 -164.671875 265 -109 c 0
 282 -38 332.888671875 239.495117188 344 364 c 0
 344.888671875 373.959960938 345.9921875 379.415039062 335 379 c 2
406.461914062 551.4296875 m 1
 403.0859375 588.99609375 383.653320312 615 343 615 c 0
 281 615 238.142578125 494.713867188 231 434 c 0
 230 427 225.27734375 415.221679688 241 416 c 2
 342 421 l 2
 351.987304688 421.494140625 352.244140625 423.38671875 355 433 c 0
 368.102539062 478.694335938 385.981445312 518.087890625 406.461914062 551.4296875 c 1
EndSplineSet
EndChar

StartChar: f_e
Encoding: 1176 -1 395
Width: 619
Flags: MW
LayerCount: 2
Fore
SplineSet
482 422 m 0
 497.001953125 426.990234375 513 430 528 430 c 0
 594 430 624 400 624 353 c 0
 624 272 475 200 397 200 c 0
 387 200 380 171 380 150 c 0
 380 105 396 55 441 55 c 0
 487 55 533 102 542 102 c 0
 554 102 556 89 556 78 c 0
 556 50 473 -12 397 -12 c 0
 328 -12 292 63 292 133 c 0
 292 214 329 296 381 353 c 0
 396 369 395.03125 375.5078125 383 375 c 2
 229 373 l 2
 216.958007812 372.84375 215 368 213 352 c 0
 208 302 164 34 144 -48 c 0
 124 -129 57 -267 -47 -267 c 0
 -78 -267 -120 -250 -120 -219 c 0
 -120 -189 -106 -159 -78 -159 c 0
 -64 -159 -32 -208 -7 -208 c 0
 26 -208 40 -165 53 -109 c 0
 70 -38 121 233 132 358 c 0
 133 368 134 373 123 373 c 2
 66 370 l 2
 56 369 50 371 50 381 c 0
 50 391 63 411 74 412 c 2
 130 415 l 2
 140 416 140 417 143 427 c 0
 195 607 320 695 387 695 c 0
 448 695 499 654 499 603 c 0
 499 561 472 542 445 542 c 0
 425 542 426 555 426 582 c 0
 426 608 396 648 363 648 c 0
 300 648 238 499 231 438 c 0
 230 431 225 420 241 420 c 2
 405 420 l 2
 416 420 473.459960938 419.159179688 482 422 c 0
401 244 m 0
 401 240 403 237 407 237 c 0
 484 237 549 314 549 366 c 0
 549 384 530 390 513 390 c 0
 482 390 401 295 401 244 c 0
EndSplineSet
LCarets2: 1 278
Ligature2: "'dlig' optionale Ligaturen lookup 50 subtable" f e
EndChar

StartChar: f_o
Encoding: 1177 -1 396
Width: 641
Flags: MW
LayerCount: 2
Fore
SplineSet
382 105 m 0
 382 71 391 32 424 32 c 256
 487 32 545 198 545 320 c 0
 545 352 540 384 510 384 c 0
 441 384 382 228 382 105 c 0
382 381 m 2
 229 379 l 2
 216.999023438 379 215 374 213 358 c 0
 208 308 164 34 144 -48 c 0
 124 -129 57 -267 -47 -267 c 0
 -78 -267 -120 -250 -120 -219 c 0
 -120 -189 -106 -159 -78 -159 c 0
 -64 -159 -32 -208 -7 -208 c 0
 26 -208 40 -165 53 -109 c 0
 70 -38 121 239 132 364 c 0
 133 374 134 379 123 379 c 2
 66 376 l 2
 56 375 50 377 50 387 c 0
 50 397 63 417 74 418 c 2
 130 421 l 2
 140 422 140 423 143 433 c 0
 195 613 320 695 387 695 c 0
 448 695 499 654 499 603 c 0
 499 561 472 542 445 542 c 0
 425 542 426 555 426 582 c 0
 426 608 396 648 363 648 c 0
 300 648 238 504 231 443 c 0
 230 436 225.000976562 425 241 425 c 2
 408 426 l 2
 419 426.065429688 484 430 508 430 c 0
 578 430 625 365 625 295 c 0
 625 152 534 -14 422 -14 c 0
 350 -14 302 59 302 131 c 0
 302 218 329.49609375 300.084960938 384.49609375 359.084960938 c 0
 398.49609375 374.084960938 394.040039062 381.157226562 382 381 c 2
EndSplineSet
LCarets2: 1 282
Ligature2: "'dlig' optionale Ligaturen lookup 50 subtable" f o
EndChar

StartChar: f_u
Encoding: 1178 -1 397
Width: 709
Flags: MW
LayerCount: 2
Fore
SplineSet
411 430 m 2
 447.990234375 430.83984375 450 383 444 363 c 2
 371 110 l 2
 366 89 366 61 384 61 c 0
 435 61 524 191.93359375 560 251.93359375 c 0
 586 296.93359375 598 326 623 418 c 0
 625 426 634 430 641 430 c 0
 682 430 686 396 682 380 c 2
 598 79 l 2
 595 67 597 62 606 62 c 0
 642 62 673 110 688 110 c 0
 694 110 695 103 695 97 c 0
 695 62 615 -14 555 -14 c 0
 497 -14 524 80.8662109375 552 159.93359375 c 0
 555.404296875 169.545898438 546 166.93359375 544 163.93359375 c 0
 482.620117188 71.8642578125 404 -14 333 -14 c 0
 297 -14 277 36 283 62 c 2
 356 315 l 2
 369.311523438 361.1171875 363 382 349 382 c 2
 229 382 l 2
 217.004882812 382 214.587890625 376.920898438 212.999023438 361 c 0
 208.0078125 310.998046875 164 34 144 -48 c 0
 124 -129 57 -267 -47 -267 c 0
 -78 -267 -120 -250 -120 -219 c 0
 -120 -189 -106 -159 -78 -159 c 0
 -64 -159 -32 -208 -7 -208 c 0
 26 -208 39.669921875 -164.671875 53 -109 c 0
 70 -38 120.888671875 239.495117188 132 364 c 0
 132.888671875 373.959960938 133.993164062 379.383789062 123 379 c 2
 66 376 l 2
 56.015625 375.474609375 50 377 50 387 c 0
 50 397 63.0224609375 417.290039062 74 418 c 2
 130 421 l 2
 139.985351562 421.541015625 140.244140625 423.38671875 143 433 c 0
 194.543945312 612.755859375 320 695 387 695 c 0
 448 695 499 654 499 603 c 0
 499 561 472 542 445 542 c 0
 425 542 426 555 426 582 c 0
 426 608 396 648 363 648 c 0
 299.752929688 648 238.142578125 504.713867188 231 444 c 0
 230 437 225.26953125 425.629882812 241 426 c 2
 411 430 l 2
EndSplineSet
LCarets2: 1 279
Ligature2: "'dlig' optionale Ligaturen lookup 50 subtable" f u
EndChar

StartChar: f_a
Encoding: 1179 -1 398
Width: 739
Flags: MW
LayerCount: 2
Fore
SplineSet
620 396 m 0
 627 396 633 403 645 430 c 0
 648 437 656 442 663 442 c 0
 704 442 714 423 710 407 c 2
 628 79 l 2
 625 67 627 62 636 62 c 0
 672 62 703 110 718 110 c 0
 724 110 725 103 725 97 c 0
 725 62 645 -14 585 -14 c 0
 527 -14 552 73 563 121 c 0
 565 131 559 131 555 125 c 0
 500 51 432 -14 334 -14 c 0
 293 -14 262 5 262 43 c 0
 262 138 366 263 463 338 c 0
 476 348 468 354 456 354 c 2
 249 351 l 2
 237 351 236 354 233 338 c 2
 144 -48 l 2
 125 -130 57 -267 -47 -267 c 0
 -78 -267 -120 -250 -120 -219 c 0
 -120 -189 -106 -159 -78 -159 c 0
 -64 -159 -32 -208 -7 -208 c 0
 26 -208 41 -165 53 -109 c 2
 150 341 l 2
 152 351 149 353 138 353 c 2
 86 353 l 2
 76 353 70 354 70 364 c 0
 70 374 83 406 94 406 c 2
 150 406 l 2
 160 407 160 423 163 433 c 0
 215 613 340 695 407 695 c 0
 468 695 519 654 519 603 c 0
 519 561 492 542 465 542 c 0
 445 542 446 555 446 582 c 0
 446 608 416 648 383 648 c 0
 320 648 258 505 251 444 c 0
 250 437 245 406 261 406 c 2
 581 406 l 2
 602 406 614 396 620 396 c 0
357 86 m 0
 357 72 362 58 375 58 c 0
 458 58 608 249 608 313 c 0
 608 326 592 347 569 347 c 0
 521 347 357 161 357 86 c 0
EndSplineSet
LCarets2: 1 0
Ligature2: "'dlig' optionale Ligaturen lookup 50 subtable" f a
EndChar

StartChar: f_r
Encoding: 1180 -1 399
Width: 624
Flags: MW
LayerCount: 2
Fore
SplineSet
361 363 m 2
 249 363 l 2
 237.000976562 362.678710938 236 366 233 350 c 2
 144 -48 l 2
 125.630859375 -130.143554688 57 -267 -47 -267 c 0
 -78 -267 -120 -250 -120 -219 c 0
 -120 -189 -106 -159 -78 -159 c 0
 -64 -159 -32 -208 -7 -208 c 0
 26 -208 41.232421875 -165.047851562 53 -109 c 2
 150 353 l 2
 152 363 149 365 138 365 c 2
 86 365 l 2
 76 365 70 366 70 376 c 0
 70 386 83 418 94 418 c 2
 150 418 l 2
 160 419 160 423 163 433 c 0
 215 613 340 695 407 695 c 0
 468 695 519 654 519 603 c 0
 519 561 492 542 465 542 c 0
 445 542 446 555 446 582 c 0
 446 608 416 648 383 648 c 0
 320 648 258 505 251 444 c 0
 250 437 245.004882812 417.607421875 261 418 c 2
 424 422 l 2
 450 422 458.466796875 400.498046875 453 371 c 0
 448.26171875 345.434570312 429.5 287.599609375 421 267 c 0
 418.094726562 259.959960938 429 256 433 261 c 0
 531 401 559 430 604 430 c 0
 626 430 654 418 654 397 c 0
 654 357 617 311 598 311 c 0
 575 311 566 332 549 332 c 0
 510 332 378 83 348 17 c 0
 344 8 335 -13 324 -14 c 0
 307 -16 277 5 277 11 c 0
 277 29 284 43 292 66 c 2
 381 315 l 2
 392.797851562 347.951171875 381 363 361 363 c 2
EndSplineSet
EndChar

StartChar: longs_longs
Encoding: 1181 -1 400
Width: 459
Flags: MW
LayerCount: 2
Fore
SplineSet
356 406 m 0
 376.451171875 481.271484375 393 528 400.461914062 551.4296875 c 1
 397.0859375 588.99609375 377.650390625 615 337 615 c 0
 276 615 237.66015625 473.84765625 201 346 c 0
 159.404296875 200.938476562 153 59 123 -68 c 0
 118.219726562 -88.236328125 111.348632812 -107.28125 102.71875 -124.918945312 c 1
 115.712890625 -131.068359375 131.048828125 -166 173 -166 c 0
 221 -166 239.708984375 -116.58203125 253 -55 c 0
 283 84 306.708007812 224.577148438 356 406 c 0
56.673828125 -190.515625 m 1
 15.09375 -233.11328125 -39.826171875 -258 -97 -258 c 0
 -137 -258 -163 -237 -163 -207 c 0
 -163 -180 -145 -156 -115 -156 c 0
 -101 -156 -93 -191 -47 -191 c 0
 1 -191 25.33984375 -142.254882812 35 -80 c 0
 53 36 84.7080078125 224.577148438 134 406 c 0
 169.436523438 536.431640625 214 666 366 666 c 0
 410.151367188 666 444.348632812 652.903320312 459.872070312 626.331054688 c 1
 507.654296875 672.823242188 558.208007812 695 593 695 c 0
 654 695 705 654 705 603 c 0
 705 561 678 542 651 542 c 0
 631 542 632 555 632 582 c 0
 632 608 616 646 583 646 c 0
 500 646 457.047851562 502.081054688 425 373 c 0
 389 228 360 64 338 -34 c 0
 312.372070312 -148.159179688 223 -233 123 -233 c 0
 88.724609375 -233 63.2607421875 -214.64453125 56.673828125 -190.515625 c 1
EndSplineSet
Substitution2: "Single Substitution lookup 64 subtable" longs_longs.short
Substitution2: "Single Substitution lookup 63 subtable" longs_longs.short
Ligature2: "liga_standard subtable" longs longs
LCarets2: 1 0
EndChar

StartChar: longs_i
Encoding: 1182 -1 401
Width: 513
Flags: MW
LayerCount: 2
Fore
SplineSet
444 430 m 0
 458 430 460 418 460 405 c 0
 460 383 453.600585938 357.088867188 445 320 c 2
 385 79 l 2
 382.096679688 67.3564453125 384 62 393 62 c 0
 429 62 460 110 475 110 c 0
 481 110 482 103 482 97 c 0
 482 62 402 -14 342 -14 c 0
 309 -14 298 5 298 27 c 0
 298 39 302 50 304 58 c 2
 366 306 l 2
 368.177734375 314.732421875 375 333 364 333 c 0
 343 333 315 304 309 304 c 0
 300 304 297 315 297 325 c 0
 297 346 412 430 444 430 c 0
404 680 m 0
 455.790039062 680 523 652 523 604 c 0
 523 574 504 533 476 533 c 0
 459 533 438.556640625 543.486328125 433 575 c 0
 427.095703125 608.483398438 419 628 385 628 c 0
 302 628 233.422851562 474.467773438 199 346 c 0
 159.94140625 200.232421875 141.319335938 111.579101562 121 -33 c 0
 104.716796875 -148.861328125 3 -258 -97 -258 c 0
 -137 -258 -163 -237 -163 -207 c 0
 -163 -180 -145 -156 -115 -156 c 0
 -101 -156 -93 -191 -47 -191 c 0
 1 -191 21.7587890625 -142.58203125 29 -80 c 0
 48.9990234375 92.8466796875 87.1416015625 242.5859375 134 406 c 0
 171.254882812 535.923828125 252 680 404 680 c 0
EndSplineSet
Ligature2: "liga_standard subtable" longs i
LCarets2: 1 0
EndChar

StartChar: longs_l
Encoding: 1183 -1 402
Width: 482
Flags: MW
LayerCount: 2
Fore
SplineSet
483 609 m 0
 483 599 479.661132812 582.672851562 477 572 c 2
 354 79 l 2
 351.096679688 67.3564453125 353 62 362 62 c 0
 398 62 429 110 444 110 c 0
 450 110 451 103 451 97 c 0
 451 62 371 -14 311 -14 c 0
 278 -14 267 5 267 27 c 0
 267 39 271 50 273 58 c 2
 398 558 l 2
 404.37109375 583.485351562 406 590 406 598 c 0
 406 607 402 627 368 627 c 0
 297 627 235.66015625 473.84765625 199 346 c 0
 157.404296875 200.938476562 137.78125 112.032226562 121 -33 c 0
 107.552734375 -149.224609375 3 -258 -97 -258 c 0
 -137 -258 -163 -237 -163 -207 c 0
 -163 -180 -145 -156 -115 -156 c 0
 -101 -156 -93 -191 -47 -191 c 0
 1 -191 25.7587890625 -142.58203125 33 -80 c 0
 55.2509765625 112.306640625 84.7080078125 224.577148438 134 406 c 0
 169.436523438 536.431640625 252 680 404 680 c 0
 459 680 483 648 483 609 c 0
EndSplineSet
Ligature2: "liga_standard subtable" longs l
LCarets2: 1 260
EndChar

StartChar: longs_b
Encoding: 1184 -1 403
Width: 695
Flags: MW
LayerCount: 2
Fore
SplineSet
399 558 m 2
 405.5859375 584.342773438 406 590 406 598 c 0
 406 607 402 627 368 627 c 0
 297 627 235.66015625 473.84765625 199 346 c 0
 157.404296875 200.938476562 137.78125 112.032226562 121 -33 c 0
 107.552734375 -149.224609375 3 -258 -97 -258 c 0
 -137 -258 -163 -237 -163 -207 c 0
 -163 -180 -145 -156 -115 -156 c 0
 -101 -156 -93 -191 -47 -191 c 0
 1 -191 25.7587890625 -142.58203125 33 -80 c 0
 55.2509765625 112.306640625 84.7080078125 224.577148438 134 406 c 0
 169.436523438 536.431640625 252 680 404 680 c 0
 459 680 483 648 483 609 c 0
 483 599 480.930664062 583.720703125 478 572 c 2
 425 360 l 2
 422.08984375 348.359375 418.881835938 328.431640625 435.811523438 344 c 0
 491.217773438 394.948242188 563 430 605 430 c 0
 646 430 678 386 678 340 c 8
 678 159.53515625 500 -14 380 -14 c 0
 330 -14 286 32 286 82 c 0
 286 107 290.966796875 125.866210938 298 154 c 2
 399 558 l 2
363 105 m 0
 363 71 390 46 412 46 c 256
 495 46 593 189 593 320 c 0
 593 344 587 366 564 366 c 0
 464 366 363 177 363 105 c 0
EndSplineSet
Ligature2: "liga_standard subtable" longs b
LCarets2: 1 0
EndChar

StartChar: longs_p
Encoding: 1185 -1 404
Width: 715
Flags: MW
LayerCount: 2
Fore
SplineSet
472 341 m 2
 411 96 l 2
 403 64 427 38 461 38 c 0
 526 38 618 216 618 327 c 0
 618 354 600 380 574 380 c 0
 516 380 478.047851562 365.256835938 472 341 c 2
492 431 m 0
 487.708984375 405.357421875 493.663085938 411.23828125 504 415 c 0
 531.250976562 424.918945312 563 430 591 430 c 0
 681 430 700 380 700 322 c 0
 700 182 544 -11 436 -11 c 0
 430 -11 402 0 397 0 c 0
 392 0 386 -1 382 -17 c 2
 340 -186 l 2
 334 -208 360 -225 385 -231 c 0
 399 -234 411 -241 411 -251 c 0
 411 -265 395 -269 380 -269 c 0
 367 -269 281 -262 222 -262 c 0
 206 -262 195 -257 195 -245 c 0
 195 -231 210 -225 222 -223 c 0
 255 -216 259 -207 266 -181 c 2
 391 317 l 2
 395.384765625 334.458007812 393.926757812 337.571289062 380 332 c 0
 361.430664062 324.573242188 334 314 331 314 c 0
 321 314 319 316 319 326 c 0
 319 346 377.921875 377.387695312 389 382 c 0
 406.541015625 389.301757812 407.930664062 392.815429688 414 415 c 2
 414 415 466.045898438 568.682617188 461 587 c 0
 453.298828125 614.958984375 419 627 385 627 c 0
 302 627 235.66015625 473.84765625 199 346 c 0
 157.404296875 200.938476562 137.78125 112.032226562 121 -33 c 0
 107.552734375 -149.224609375 3 -258 -97 -258 c 0
 -137 -258 -163 -237 -163 -207 c 0
 -163 -180 -145 -156 -115 -156 c 0
 -101 -156 -93 -191 -47 -191 c 0
 1 -191 25.7587890625 -142.58203125 33 -80 c 0
 55.2509765625 112.306640625 84.7080078125 224.577148438 134 406 c 0
 169.436523438 536.431640625 252 680 404 680 c 0
 455.790039062 680 531 637 531 583 c 0
 531 527 495.795898438 453.684570312 492 431 c 0
EndSplineSet
LCarets2: 1 0
Ligature2: "liga_standard subtable" longs p
EndChar

StartChar: longs_t
Encoding: 1186 -1 405
Width: 544
Flags: MW
LayerCount: 2
Fore
SplineSet
504 589 m 0
 504 568 472 445 463 410 c 1
 566 410 l 2
 578 410 592 405 592 395 c 0
 592 383 567 354 546 354 c 2
 453 354 l 1
 380 79 l 2
 376.827148438 67.0478515625 379 62 388 62 c 0
 424 62 455 110 470 110 c 0
 476 110 477 103 477 97 c 0
 477 62 397 -14 337 -14 c 0
 304 -14 293 5 293 27 c 0
 293 39 296.899414062 50.029296875 299 58 c 2
 377 354 l 1
 330 354 l 2
 318 354 307 358 307 368 c 0
 307 384 328 410 349 410 c 2
 387 410 l 1
 419 538 l 2
 438.112304688 614.653320312 414 627 380 627 c 0
 297 627 212.66015625 477.684570312 194 346 c 0
 173 197.799804688 164.78125 112.032226562 148 -33 c 0
 134.552734375 -149.224609375 30 -258 -70 -258 c 0
 -110 -258 -136 -237 -136 -207 c 0
 -136 -180 -118 -156 -88 -156 c 0
 -74 -156 -66 -191 -20 -191 c 0
 28 -191 52.7587890625 -142.58203125 60 -80 c 0
 82.2509765625 112.306640625 77.939453125 225.067382812 129 406 c 0
 175 569 247 680 399 680 c 0
 450.790039062 680 504 643 504 589 c 0
EndSplineSet
Ligature2: "liga_standard subtable" longs t
LCarets2: 1 266
EndChar

